%TF.GenerationSoftware,KiCad,Pcbnew,(5.1.9)-1*%
%TF.CreationDate,2021-05-12T23:31:49+03:00*%
%TF.ProjectId,Ganglion_01,47616e67-6c69-46f6-9e5f-30312e6b6963,01*%
%TF.SameCoordinates,PX4a1f960PY74ffa90*%
%TF.FileFunction,Legend,Bot*%
%TF.FilePolarity,Positive*%
%FSLAX46Y46*%
G04 Gerber Fmt 4.6, Leading zero omitted, Abs format (unit mm)*
G04 Created by KiCad (PCBNEW (5.1.9)-1) date 2021-05-12 23:31:49*
%MOMM*%
%LPD*%
G01*
G04 APERTURE LIST*
%ADD10C,0.300000*%
%ADD11C,0.127000*%
%ADD12C,0.200000*%
%ADD13C,0.120000*%
%ADD14C,0.100000*%
%ADD15C,0.150000*%
%ADD16C,0.015000*%
%ADD17C,0.125000*%
G04 APERTURE END LIST*
D10*
X45142942Y33054029D02*
X44214371Y33054029D01*
X44714371Y32482600D01*
X44500085Y32482600D01*
X44357228Y32411172D01*
X44285800Y32339743D01*
X44214371Y32196886D01*
X44214371Y31839743D01*
X44285800Y31696886D01*
X44357228Y31625458D01*
X44500085Y31554029D01*
X44928657Y31554029D01*
X45071514Y31625458D01*
X45142942Y31696886D01*
X43571514Y31696886D02*
X43500085Y31625458D01*
X43571514Y31554029D01*
X43642942Y31625458D01*
X43571514Y31696886D01*
X43571514Y31554029D01*
X43000085Y33054029D02*
X42071514Y33054029D01*
X42571514Y32482600D01*
X42357228Y32482600D01*
X42214371Y32411172D01*
X42142942Y32339743D01*
X42071514Y32196886D01*
X42071514Y31839743D01*
X42142942Y31696886D01*
X42214371Y31625458D01*
X42357228Y31554029D01*
X42785800Y31554029D01*
X42928657Y31625458D01*
X43000085Y31696886D01*
X41642942Y33054029D02*
X41142942Y31554029D01*
X40642942Y33054029D01*
X39000085Y32125458D02*
X37857228Y32125458D01*
X35214371Y31554029D02*
X36071514Y31554029D01*
X35642942Y31554029D02*
X35642942Y33054029D01*
X35785800Y32839743D01*
X35928657Y32696886D01*
X36071514Y32625458D01*
X34642942Y32911172D02*
X34571514Y32982600D01*
X34428657Y33054029D01*
X34071514Y33054029D01*
X33928657Y32982600D01*
X33857228Y32911172D01*
X33785800Y32768315D01*
X33785800Y32625458D01*
X33857228Y32411172D01*
X34714371Y31554029D01*
X33785800Y31554029D01*
X33357228Y33054029D02*
X32857228Y31554029D01*
X32357228Y33054029D01*
X21070610Y31723959D02*
X20666549Y32128020D01*
X20211980Y31168375D02*
X21121117Y32077512D01*
X21171625Y32229035D01*
X21121117Y32380558D01*
X21020102Y32481573D01*
X19151320Y32229035D02*
X19706904Y32784619D01*
X19858427Y32835127D01*
X20009950Y32784619D01*
X20211980Y32582589D01*
X20262488Y32431066D01*
X19201827Y32279543D02*
X19252335Y32128020D01*
X19504873Y31875482D01*
X19656396Y31824974D01*
X19807919Y31875482D01*
X19908934Y31976497D01*
X19959442Y32128020D01*
X19908934Y32279543D01*
X19656396Y32532081D01*
X19605888Y32683604D01*
X18242183Y33239188D02*
X18292690Y33087665D01*
X18494721Y32885634D01*
X18646244Y32835127D01*
X18747259Y32835127D01*
X18898782Y32885634D01*
X19201827Y33188680D01*
X19252335Y33340203D01*
X19252335Y33441218D01*
X19201827Y33592741D01*
X18999797Y33794772D01*
X18848274Y33845279D01*
X17383553Y34097817D02*
X17434061Y33946295D01*
X17636091Y33744264D01*
X17787614Y33693756D01*
X17939137Y33744264D01*
X18343198Y34148325D01*
X18393705Y34299848D01*
X18343198Y34451371D01*
X18141167Y34653401D01*
X17989644Y34703909D01*
X17838122Y34653401D01*
X17737106Y34552386D01*
X18141167Y33946295D01*
X16676446Y34703909D02*
X16827969Y34653401D01*
X16979492Y34703909D01*
X17888629Y35613046D01*
X16373400Y35208985D02*
X16272385Y35208985D01*
X16272385Y35107970D01*
X16373400Y35107970D01*
X16373400Y35208985D01*
X16272385Y35107970D01*
X16625938Y36168630D02*
X16221877Y36572691D01*
X16827969Y36673706D02*
X15918832Y35764569D01*
X15767309Y35714062D01*
X15615786Y35764569D01*
X15514771Y35865584D01*
X14807664Y36673706D02*
X14858172Y36522184D01*
X15060202Y36320153D01*
X15211725Y36269645D01*
X15363248Y36320153D01*
X15767309Y36724214D01*
X15817816Y36875737D01*
X15767309Y37027260D01*
X15565278Y37229290D01*
X15413755Y37279798D01*
X15262233Y37229290D01*
X15161217Y37128275D01*
X15565278Y36522184D01*
X13848019Y37633351D02*
X13898527Y37481828D01*
X14100557Y37279798D01*
X14252080Y37229290D01*
X14353095Y37229290D01*
X14504618Y37279798D01*
X14807664Y37582844D01*
X14858172Y37734367D01*
X14858172Y37835382D01*
X14807664Y37986905D01*
X14605633Y38188935D01*
X14454111Y38239443D01*
X13342943Y38037412D02*
X14403603Y39098073D01*
X12888374Y38491981D02*
X13443958Y39047565D01*
X13595481Y39098073D01*
X13747004Y39047565D01*
X13898527Y38896042D01*
X13949034Y38744519D01*
X13949034Y38643504D01*
X55473528Y25813558D02*
X54330671Y25813558D01*
X54902100Y25242129D02*
X54902100Y26384986D01*
D11*
%TO.C,U31*%
X32300000Y0D02*
X32300000Y-3500000D01*
X32300000Y-3500000D02*
X42800000Y-3500000D01*
X42800000Y-3500000D02*
X42800000Y0D01*
X32300000Y8450000D02*
X32300000Y10800000D01*
D12*
X31900000Y500000D02*
G75*
G03*
X31900000Y500000I-100000J0D01*
G01*
D13*
%TO.C,U5*%
X20748900Y46685200D02*
X20748900Y45185200D01*
X20748900Y46685200D02*
X20748900Y48185200D01*
X17528900Y46685200D02*
X17528900Y45185200D01*
X17528900Y46685200D02*
X17528900Y49610200D01*
%TO.C,U4*%
X30464400Y46736000D02*
X30464400Y45236000D01*
X30464400Y46736000D02*
X30464400Y48236000D01*
X27244400Y46736000D02*
X27244400Y45236000D01*
X27244400Y46736000D02*
X27244400Y49661000D01*
%TO.C,U3*%
X40091000Y46736000D02*
X40091000Y45236000D01*
X40091000Y46736000D02*
X40091000Y48236000D01*
X36871000Y46736000D02*
X36871000Y45236000D01*
X36871000Y46736000D02*
X36871000Y49661000D01*
%TO.C,U2*%
X50078132Y46712115D02*
X50078132Y45212115D01*
X50078132Y46712115D02*
X50078132Y48212115D01*
X46858132Y46712115D02*
X46858132Y45212115D01*
X46858132Y46712115D02*
X46858132Y49637115D01*
D14*
%TO.C,U23*%
X32850000Y20350000D02*
X32850000Y18600000D01*
X34850000Y20350000D02*
X32850000Y20350000D01*
X34850000Y18600000D02*
X34850000Y20350000D01*
X32850000Y18600000D02*
X34850000Y18600000D01*
X33100000Y19600000D02*
X32850000Y19600000D01*
X33100000Y19350000D02*
X33100000Y19600000D01*
X32850000Y19350000D02*
X33100000Y19350000D01*
D13*
%TO.C,R51*%
X50562742Y9122500D02*
X51037258Y9122500D01*
X50562742Y8077500D02*
X51037258Y8077500D01*
%TO.C,R50*%
X50562742Y11922500D02*
X51037258Y11922500D01*
X50562742Y10877500D02*
X51037258Y10877500D01*
%TO.C,C48*%
X51659420Y23560000D02*
X51940580Y23560000D01*
X51659420Y22540000D02*
X51940580Y22540000D01*
%TO.C,C47*%
X51840580Y16290000D02*
X51559420Y16290000D01*
X51840580Y17310000D02*
X51559420Y17310000D01*
%TO.C,U32*%
X53260000Y20800000D02*
X53260000Y19000000D01*
X50040000Y19000000D02*
X50040000Y21450000D01*
%TO.C,U27*%
X22795000Y38879000D02*
X24195000Y38879000D01*
X24195000Y36559000D02*
X22295000Y36559000D01*
%TO.C,U26*%
X42180552Y39029659D02*
X43580552Y39029659D01*
X43580552Y36709659D02*
X41680552Y36709659D01*
%TO.C,U24*%
X32320000Y39006000D02*
X33720000Y39006000D01*
X33720000Y36686000D02*
X31820000Y36686000D01*
%TO.C,U16*%
X39825700Y18355800D02*
X41225700Y18355800D01*
X41225700Y16035800D02*
X39325700Y16035800D01*
%TO.C,U15*%
X5986000Y28716200D02*
X5986000Y27316200D01*
X3666000Y27316200D02*
X3666000Y29216200D01*
%TO.C,U12*%
X9999200Y27903400D02*
X9999200Y26503400D01*
X7679200Y26503400D02*
X7679200Y28403400D01*
%TO.C,U11*%
X42902300Y26654400D02*
X45352300Y26654400D01*
X44702300Y23434400D02*
X42902300Y23434400D01*
%TO.C,U1*%
X50989000Y39514000D02*
X52389000Y39514000D01*
X52389000Y37194000D02*
X50489000Y37194000D01*
%TO.C,R48*%
X24065580Y35165000D02*
X23784420Y35165000D01*
X24065580Y36185000D02*
X23784420Y36185000D01*
%TO.C,R46*%
X35306422Y19269577D02*
X35306422Y19744093D01*
X36351422Y19269577D02*
X36351422Y19744093D01*
%TO.C,R45*%
X5101358Y30109900D02*
X4626842Y30109900D01*
X5101358Y31154900D02*
X4626842Y31154900D01*
%TO.C,R44*%
X7685300Y31644358D02*
X7685300Y31169842D01*
X6640300Y31644358D02*
X6640300Y31169842D01*
%TO.C,R36*%
X39534420Y37210000D02*
X39815580Y37210000D01*
X39534420Y36190000D02*
X39815580Y36190000D01*
%TO.C,R35*%
X31101420Y36324000D02*
X31382580Y36324000D01*
X31101420Y35304000D02*
X31382580Y35304000D01*
%TO.C,R34*%
X48500420Y38229000D02*
X48781580Y38229000D01*
X48500420Y37209000D02*
X48781580Y37209000D01*
%TO.C,R31*%
X21655500Y39383580D02*
X21655500Y39102420D01*
X20635500Y39383580D02*
X20635500Y39102420D01*
%TO.C,R30*%
X40850551Y39661238D02*
X40850551Y39380078D01*
X39830551Y39661238D02*
X39830551Y39380078D01*
%TO.C,R29*%
X26418000Y38558080D02*
X26418000Y38276920D01*
X25398000Y38558080D02*
X25398000Y38276920D01*
%TO.C,R26*%
X15726642Y44794700D02*
X16201158Y44794700D01*
X15726642Y43749700D02*
X16201158Y43749700D01*
%TO.C,R25*%
X25492942Y44845500D02*
X25967458Y44845500D01*
X25492942Y43800500D02*
X25967458Y43800500D01*
%TO.C,R24*%
X35005242Y44909000D02*
X35479758Y44909000D01*
X35005242Y43864000D02*
X35479758Y43864000D01*
%TO.C,R23*%
X45055874Y45075613D02*
X45530390Y45075613D01*
X45055874Y44030613D02*
X45530390Y44030613D01*
%TO.C,R22*%
X18972000Y40974242D02*
X18972000Y41448758D01*
X20017000Y40974242D02*
X20017000Y41448758D01*
%TO.C,R21*%
X17636258Y42022500D02*
X17161742Y42022500D01*
X17636258Y43067500D02*
X17161742Y43067500D01*
%TO.C,R20*%
X28812258Y40498500D02*
X28337742Y40498500D01*
X28812258Y41543500D02*
X28337742Y41543500D01*
%TO.C,R19*%
X27415258Y42149500D02*
X26940742Y42149500D01*
X27415258Y43194500D02*
X26940742Y43194500D01*
%TO.C,R18*%
X37862742Y41543500D02*
X38337258Y41543500D01*
X37862742Y40498500D02*
X38337258Y40498500D01*
%TO.C,R17*%
X36813258Y42149500D02*
X36338742Y42149500D01*
X36813258Y43194500D02*
X36338742Y43194500D01*
%TO.C,R16*%
X48149742Y41543500D02*
X48624258Y41543500D01*
X48149742Y40498500D02*
X48624258Y40498500D01*
%TO.C,R15*%
X47100258Y42149500D02*
X46625742Y42149500D01*
X47100258Y43194500D02*
X46625742Y43194500D01*
%TO.C,R14*%
X45722000Y38748580D02*
X45722000Y38467420D01*
X44702000Y38748580D02*
X44702000Y38467420D01*
%TO.C,R13*%
X31117000Y39510580D02*
X31117000Y39229420D01*
X30097000Y39510580D02*
X30097000Y39229420D01*
%TO.C,R12*%
X48500420Y39753000D02*
X48781580Y39753000D01*
X48500420Y38733000D02*
X48781580Y38733000D01*
%TO.C,R11*%
X25947900Y58377858D02*
X25947900Y57903342D01*
X24902900Y58377858D02*
X24902900Y57903342D01*
%TO.C,R10*%
X35910000Y38115580D02*
X35910000Y37834420D01*
X34890000Y38115580D02*
X34890000Y37834420D01*
%TO.C,R9*%
X28001700Y57903342D02*
X28001700Y58377858D01*
X29046700Y57903342D02*
X29046700Y58377858D01*
%TO.C,R8*%
X26452300Y57903342D02*
X26452300Y58377858D01*
X27497300Y57903342D02*
X27497300Y58377858D01*
%TO.C,R7*%
X31151300Y57903342D02*
X31151300Y58377858D01*
X32196300Y57903342D02*
X32196300Y58377858D01*
%TO.C,R6*%
X29576500Y57903342D02*
X29576500Y58377858D01*
X30621500Y57903342D02*
X30621500Y58377858D01*
%TO.C,R5*%
X34250100Y57903342D02*
X34250100Y58377858D01*
X35295100Y57903342D02*
X35295100Y58377858D01*
%TO.C,R4*%
X32700700Y57903342D02*
X32700700Y58377858D01*
X33745700Y57903342D02*
X33745700Y58377858D01*
%TO.C,R3*%
X35875700Y57903342D02*
X35875700Y58377858D01*
X36920700Y57903342D02*
X36920700Y58377858D01*
%TO.C,R2*%
X37501300Y57903342D02*
X37501300Y58377858D01*
X38546300Y57903342D02*
X38546300Y58377858D01*
%TO.C,R1*%
X51675420Y42420000D02*
X51956580Y42420000D01*
X51675420Y41400000D02*
X51956580Y41400000D01*
%TO.C,P1*%
X20260000Y52832000D02*
X20260000Y51502000D01*
X20260000Y51502000D02*
X21590000Y51502000D01*
X20260000Y54102000D02*
X22860000Y54102000D01*
X22860000Y54102000D02*
X22860000Y51502000D01*
X22860000Y51502000D02*
X40700000Y51502000D01*
X40700000Y56702000D02*
X40700000Y51502000D01*
X20260000Y56702000D02*
X40700000Y56702000D01*
X20260000Y56702000D02*
X20260000Y54102000D01*
%TO.C,D1*%
X57646180Y25042400D02*
X57365020Y25042400D01*
X57646180Y26062400D02*
X57365020Y26062400D01*
%TO.C,C44*%
X23354420Y40642000D02*
X23635580Y40642000D01*
X23354420Y39622000D02*
X23635580Y39622000D01*
%TO.C,C42*%
X44819180Y20279900D02*
X44538020Y20279900D01*
X44819180Y21299900D02*
X44538020Y21299900D01*
%TO.C,C41*%
X44819180Y18781300D02*
X44538020Y18781300D01*
X44819180Y19801300D02*
X44538020Y19801300D01*
%TO.C,C40*%
X5042780Y31697200D02*
X4761620Y31697200D01*
X5042780Y32717200D02*
X4761620Y32717200D01*
%TO.C,C39*%
X42739972Y40792658D02*
X43021132Y40792658D01*
X42739972Y39772658D02*
X43021132Y39772658D01*
%TO.C,C37*%
X33006420Y40769000D02*
X33287580Y40769000D01*
X33006420Y39749000D02*
X33287580Y39749000D01*
%TO.C,C36*%
X34227838Y17235536D02*
X34508998Y17235536D01*
X34227838Y16215536D02*
X34508998Y16215536D01*
%TO.C,C35*%
X22299666Y18728404D02*
X21293804Y19734266D01*
X24222996Y20651734D02*
X23217134Y21657596D01*
%TO.C,C34*%
X40701500Y26478620D02*
X40701500Y26759780D01*
X41721500Y26478620D02*
X41721500Y26759780D01*
%TO.C,C33*%
X39215600Y26478620D02*
X39215600Y26759780D01*
X40235600Y26478620D02*
X40235600Y26759780D01*
%TO.C,C32*%
X37717000Y26478620D02*
X37717000Y26759780D01*
X38737000Y26478620D02*
X38737000Y26759780D01*
%TO.C,C31*%
X45908500Y25056220D02*
X45908500Y25337380D01*
X46928500Y25056220D02*
X46928500Y25337380D01*
%TO.C,C30*%
X47445200Y25030820D02*
X47445200Y25311980D01*
X48465200Y25030820D02*
X48465200Y25311980D01*
%TO.C,C23*%
X23734420Y3760000D02*
X24015580Y3760000D01*
X23734420Y2740000D02*
X24015580Y2740000D01*
%TO.C,C20*%
X30529600Y1990180D02*
X30529600Y1709020D01*
X29509600Y1990180D02*
X29509600Y1709020D01*
%TO.C,C19*%
X45840580Y10990000D02*
X45559420Y10990000D01*
X45840580Y12010000D02*
X45559420Y12010000D01*
%TO.C,C18*%
X29031000Y1990180D02*
X29031000Y1709020D01*
X28011000Y1990180D02*
X28011000Y1709020D01*
%TO.C,C17*%
X36057300Y26797880D02*
X36057300Y26516720D01*
X35037300Y26797880D02*
X35037300Y26516720D01*
%TO.C,C16*%
X34507900Y26797880D02*
X34507900Y26516720D01*
X33487900Y26797880D02*
X33487900Y26516720D01*
%TO.C,C13*%
X15632820Y46433200D02*
X15913980Y46433200D01*
X15632820Y45413200D02*
X15913980Y45413200D01*
%TO.C,C12*%
X25386420Y46357000D02*
X25667580Y46357000D01*
X25386420Y45337000D02*
X25667580Y45337000D01*
%TO.C,C11*%
X35038420Y46484000D02*
X35319580Y46484000D01*
X35038420Y45464000D02*
X35319580Y45464000D01*
%TO.C,C10*%
X45352580Y45464000D02*
X45071420Y45464000D01*
X45352580Y46484000D02*
X45071420Y46484000D01*
%TO.C,C9*%
X51675420Y40896000D02*
X51956580Y40896000D01*
X51675420Y39876000D02*
X51956580Y39876000D01*
%TO.C,C8*%
X21232400Y45084120D02*
X21232400Y45365280D01*
X22252400Y45084120D02*
X22252400Y45365280D01*
%TO.C,C7*%
X22277800Y48298980D02*
X22277800Y48017820D01*
X21257800Y48298980D02*
X21257800Y48017820D01*
%TO.C,C6*%
X31011400Y45071420D02*
X31011400Y45352580D01*
X32031400Y45071420D02*
X32031400Y45352580D01*
%TO.C,C5*%
X31980600Y48298980D02*
X31980600Y48017820D01*
X30960600Y48298980D02*
X30960600Y48017820D01*
%TO.C,C4*%
X40612600Y45071420D02*
X40612600Y45352580D01*
X41632600Y45071420D02*
X41632600Y45352580D01*
%TO.C,C3*%
X41607200Y48273580D02*
X41607200Y47992420D01*
X40587200Y48273580D02*
X40587200Y47992420D01*
%TO.C,C2*%
X50544000Y45134920D02*
X50544000Y45416080D01*
X51564000Y45134920D02*
X51564000Y45416080D01*
%TO.C,C1*%
X51564000Y48337080D02*
X51564000Y48055920D01*
X50544000Y48337080D02*
X50544000Y48055920D01*
D15*
%TO.C,U13*%
X4034519Y13781837D02*
X14641121Y3175235D01*
X25073774Y13607889D02*
X14467172Y24214491D01*
X14416261Y24254089D02*
X4178769Y14016597D01*
X25012963Y13657386D02*
X14595866Y3240289D01*
X18896489Y10015786D02*
X20310703Y11430000D01*
X12532528Y16379747D02*
X18896489Y10015786D01*
X13946742Y17793961D02*
X12532528Y16379747D01*
X20310703Y11430000D02*
X13946742Y17793961D01*
X19886439Y11005736D02*
X19851083Y11889619D01*
X19320753Y10440051D02*
X19320753Y12419949D01*
X18755068Y10157208D02*
X18755068Y12914924D01*
X18154027Y10758249D02*
X18189382Y13480610D01*
X17482276Y11430000D02*
X17588342Y14152361D01*
X16845880Y12066396D02*
X16951946Y14718047D01*
X16209483Y12702792D02*
X16350905Y15319087D01*
X15537732Y13374544D02*
X15820575Y15920128D01*
X14830625Y14081650D02*
X15113468Y16627235D01*
X14123518Y14859468D02*
X14406361Y17334342D01*
X13451767Y15460509D02*
X13769965Y17546474D01*
X12815371Y16096905D02*
X12815371Y16591880D01*
D14*
%TO.C,U17*%
X42990300Y18209200D02*
X42990300Y16209200D01*
X44990300Y18209200D02*
X42990300Y18209200D01*
X44990300Y16209200D02*
X44990300Y18209200D01*
X42990300Y16209200D02*
X44990300Y16209200D01*
D15*
%TO.C,B1*%
X53911000Y27067000D02*
X53911000Y34067000D01*
X47911000Y27067000D02*
X53911000Y27067000D01*
X47911000Y34067000D02*
X47911000Y27067000D01*
X53911000Y34067000D02*
X47911000Y34067000D01*
%TO.C,SW5*%
X60604000Y30413600D02*
X62204000Y30413600D01*
X62204000Y30413600D02*
X62204000Y29013600D01*
X62204000Y29013600D02*
X60604000Y29013600D01*
X60604000Y31813600D02*
X60604000Y33613600D01*
X60604000Y33613600D02*
X57804000Y33613600D01*
X57804000Y33613600D02*
X57804000Y27013600D01*
X57804000Y27013600D02*
X60604000Y27013600D01*
X60604000Y27013600D02*
X60604000Y31813600D01*
%TO.C,U31*%
D16*
X36713095Y-4027380D02*
X36713095Y-4836904D01*
X36665476Y-4932142D01*
X36617857Y-4979761D01*
X36522619Y-5027380D01*
X36332142Y-5027380D01*
X36236904Y-4979761D01*
X36189285Y-4932142D01*
X36141666Y-4836904D01*
X36141666Y-4027380D01*
X35760714Y-4027380D02*
X35141666Y-4027380D01*
X35475000Y-4408333D01*
X35332142Y-4408333D01*
X35236904Y-4455952D01*
X35189285Y-4503571D01*
X35141666Y-4598809D01*
X35141666Y-4836904D01*
X35189285Y-4932142D01*
X35236904Y-4979761D01*
X35332142Y-5027380D01*
X35617857Y-5027380D01*
X35713095Y-4979761D01*
X35760714Y-4932142D01*
X34189285Y-5027380D02*
X34760714Y-5027380D01*
X34475000Y-5027380D02*
X34475000Y-4027380D01*
X34570238Y-4170238D01*
X34665476Y-4265476D01*
X34760714Y-4313095D01*
%TO.C,U5*%
D15*
X16216380Y49529905D02*
X17025904Y49529905D01*
X17121142Y49482286D01*
X17168761Y49434667D01*
X17216380Y49339429D01*
X17216380Y49148953D01*
X17168761Y49053715D01*
X17121142Y49006096D01*
X17025904Y48958477D01*
X16216380Y48958477D01*
X16216380Y48006096D02*
X16216380Y48482286D01*
X16692571Y48529905D01*
X16644952Y48482286D01*
X16597333Y48387048D01*
X16597333Y48148953D01*
X16644952Y48053715D01*
X16692571Y48006096D01*
X16787809Y47958477D01*
X17025904Y47958477D01*
X17121142Y48006096D01*
X17168761Y48053715D01*
X17216380Y48148953D01*
X17216380Y48387048D01*
X17168761Y48482286D01*
X17121142Y48529905D01*
%TO.C,U4*%
X25868380Y49783905D02*
X26677904Y49783905D01*
X26773142Y49736286D01*
X26820761Y49688667D01*
X26868380Y49593429D01*
X26868380Y49402953D01*
X26820761Y49307715D01*
X26773142Y49260096D01*
X26677904Y49212477D01*
X25868380Y49212477D01*
X26201714Y48307715D02*
X26868380Y48307715D01*
X25820761Y48545810D02*
X26535047Y48783905D01*
X26535047Y48164858D01*
%TO.C,U3*%
X35520380Y49783905D02*
X36329904Y49783905D01*
X36425142Y49736286D01*
X36472761Y49688667D01*
X36520380Y49593429D01*
X36520380Y49402953D01*
X36472761Y49307715D01*
X36425142Y49260096D01*
X36329904Y49212477D01*
X35520380Y49212477D01*
X35520380Y48831524D02*
X35520380Y48212477D01*
X35901333Y48545810D01*
X35901333Y48402953D01*
X35948952Y48307715D01*
X35996571Y48260096D01*
X36091809Y48212477D01*
X36329904Y48212477D01*
X36425142Y48260096D01*
X36472761Y48307715D01*
X36520380Y48402953D01*
X36520380Y48688667D01*
X36472761Y48783905D01*
X36425142Y48831524D01*
%TO.C,U2*%
X45680380Y50037905D02*
X46489904Y50037905D01*
X46585142Y49990286D01*
X46632761Y49942667D01*
X46680380Y49847429D01*
X46680380Y49656953D01*
X46632761Y49561715D01*
X46585142Y49514096D01*
X46489904Y49466477D01*
X45680380Y49466477D01*
X45775619Y49037905D02*
X45728000Y48990286D01*
X45680380Y48895048D01*
X45680380Y48656953D01*
X45728000Y48561715D01*
X45775619Y48514096D01*
X45870857Y48466477D01*
X45966095Y48466477D01*
X46108952Y48514096D01*
X46680380Y49085524D01*
X46680380Y48466477D01*
%TO.C,USB1*%
X56652380Y11938096D02*
X57461904Y11938096D01*
X57557142Y11890477D01*
X57604761Y11842858D01*
X57652380Y11747620D01*
X57652380Y11557143D01*
X57604761Y11461905D01*
X57557142Y11414286D01*
X57461904Y11366667D01*
X56652380Y11366667D01*
X57604761Y10938096D02*
X57652380Y10795239D01*
X57652380Y10557143D01*
X57604761Y10461905D01*
X57557142Y10414286D01*
X57461904Y10366667D01*
X57366666Y10366667D01*
X57271428Y10414286D01*
X57223809Y10461905D01*
X57176190Y10557143D01*
X57128571Y10747620D01*
X57080952Y10842858D01*
X57033333Y10890477D01*
X56938095Y10938096D01*
X56842857Y10938096D01*
X56747619Y10890477D01*
X56700000Y10842858D01*
X56652380Y10747620D01*
X56652380Y10509524D01*
X56700000Y10366667D01*
X57128571Y9604762D02*
X57176190Y9461905D01*
X57223809Y9414286D01*
X57319047Y9366667D01*
X57461904Y9366667D01*
X57557142Y9414286D01*
X57604761Y9461905D01*
X57652380Y9557143D01*
X57652380Y9938096D01*
X56652380Y9938096D01*
X56652380Y9604762D01*
X56700000Y9509524D01*
X56747619Y9461905D01*
X56842857Y9414286D01*
X56938095Y9414286D01*
X57033333Y9461905D01*
X57080952Y9509524D01*
X57128571Y9604762D01*
X57128571Y9938096D01*
X57652380Y8414286D02*
X57652380Y8985715D01*
X57652380Y8700000D02*
X56652380Y8700000D01*
X56795238Y8795239D01*
X56890476Y8890477D01*
X56938095Y8985715D01*
%TO.C,U23*%
X32397619Y17861905D02*
X31588095Y17861905D01*
X31492857Y17909524D01*
X31445238Y17957143D01*
X31397619Y18052381D01*
X31397619Y18242858D01*
X31445238Y18338096D01*
X31492857Y18385715D01*
X31588095Y18433334D01*
X32397619Y18433334D01*
X32302380Y18861905D02*
X32350000Y18909524D01*
X32397619Y19004762D01*
X32397619Y19242858D01*
X32350000Y19338096D01*
X32302380Y19385715D01*
X32207142Y19433334D01*
X32111904Y19433334D01*
X31969047Y19385715D01*
X31397619Y18814286D01*
X31397619Y19433334D01*
X32397619Y19766667D02*
X32397619Y20385715D01*
X32016666Y20052381D01*
X32016666Y20195239D01*
X31969047Y20290477D01*
X31921428Y20338096D01*
X31826190Y20385715D01*
X31588095Y20385715D01*
X31492857Y20338096D01*
X31445238Y20290477D01*
X31397619Y20195239D01*
X31397619Y19909524D01*
X31445238Y19814286D01*
X31492857Y19766667D01*
%TO.C,R51*%
X51442857Y6717620D02*
X51776190Y7193810D01*
X52014285Y6717620D02*
X52014285Y7717620D01*
X51633333Y7717620D01*
X51538095Y7670000D01*
X51490476Y7622381D01*
X51442857Y7527143D01*
X51442857Y7384286D01*
X51490476Y7289048D01*
X51538095Y7241429D01*
X51633333Y7193810D01*
X52014285Y7193810D01*
X50538095Y7717620D02*
X51014285Y7717620D01*
X51061904Y7241429D01*
X51014285Y7289048D01*
X50919047Y7336667D01*
X50680952Y7336667D01*
X50585714Y7289048D01*
X50538095Y7241429D01*
X50490476Y7146191D01*
X50490476Y6908096D01*
X50538095Y6812858D01*
X50585714Y6765239D01*
X50680952Y6717620D01*
X50919047Y6717620D01*
X51014285Y6765239D01*
X51061904Y6812858D01*
X49538095Y6717620D02*
X50109523Y6717620D01*
X49823809Y6717620D02*
X49823809Y7717620D01*
X49919047Y7574762D01*
X50014285Y7479524D01*
X50109523Y7431905D01*
%TO.C,R50*%
X51442857Y12347620D02*
X51776190Y12823810D01*
X52014285Y12347620D02*
X52014285Y13347620D01*
X51633333Y13347620D01*
X51538095Y13300000D01*
X51490476Y13252381D01*
X51442857Y13157143D01*
X51442857Y13014286D01*
X51490476Y12919048D01*
X51538095Y12871429D01*
X51633333Y12823810D01*
X52014285Y12823810D01*
X50538095Y13347620D02*
X51014285Y13347620D01*
X51061904Y12871429D01*
X51014285Y12919048D01*
X50919047Y12966667D01*
X50680952Y12966667D01*
X50585714Y12919048D01*
X50538095Y12871429D01*
X50490476Y12776191D01*
X50490476Y12538096D01*
X50538095Y12442858D01*
X50585714Y12395239D01*
X50680952Y12347620D01*
X50919047Y12347620D01*
X51014285Y12395239D01*
X51061904Y12442858D01*
X49871428Y13347620D02*
X49776190Y13347620D01*
X49680952Y13300000D01*
X49633333Y13252381D01*
X49585714Y13157143D01*
X49538095Y12966667D01*
X49538095Y12728572D01*
X49585714Y12538096D01*
X49633333Y12442858D01*
X49680952Y12395239D01*
X49776190Y12347620D01*
X49871428Y12347620D01*
X49966666Y12395239D01*
X50014285Y12442858D01*
X50061904Y12538096D01*
X50109523Y12728572D01*
X50109523Y12966667D01*
X50061904Y13157143D01*
X50014285Y13252381D01*
X49966666Y13300000D01*
X49871428Y13347620D01*
%TO.C,C48*%
X55472857Y22622858D02*
X55520476Y22575239D01*
X55663333Y22527620D01*
X55758571Y22527620D01*
X55901428Y22575239D01*
X55996666Y22670477D01*
X56044285Y22765715D01*
X56091904Y22956191D01*
X56091904Y23099048D01*
X56044285Y23289524D01*
X55996666Y23384762D01*
X55901428Y23480000D01*
X55758571Y23527620D01*
X55663333Y23527620D01*
X55520476Y23480000D01*
X55472857Y23432381D01*
X54615714Y23194286D02*
X54615714Y22527620D01*
X54853809Y23575239D02*
X55091904Y22860953D01*
X54472857Y22860953D01*
X53949047Y23099048D02*
X54044285Y23146667D01*
X54091904Y23194286D01*
X54139523Y23289524D01*
X54139523Y23337143D01*
X54091904Y23432381D01*
X54044285Y23480000D01*
X53949047Y23527620D01*
X53758571Y23527620D01*
X53663333Y23480000D01*
X53615714Y23432381D01*
X53568095Y23337143D01*
X53568095Y23289524D01*
X53615714Y23194286D01*
X53663333Y23146667D01*
X53758571Y23099048D01*
X53949047Y23099048D01*
X54044285Y23051429D01*
X54091904Y23003810D01*
X54139523Y22908572D01*
X54139523Y22718096D01*
X54091904Y22622858D01*
X54044285Y22575239D01*
X53949047Y22527620D01*
X53758571Y22527620D01*
X53663333Y22575239D01*
X53615714Y22622858D01*
X53568095Y22718096D01*
X53568095Y22908572D01*
X53615714Y23003810D01*
X53663333Y23051429D01*
X53758571Y23099048D01*
%TO.C,C47*%
X49362857Y16372858D02*
X49410476Y16325239D01*
X49553333Y16277620D01*
X49648571Y16277620D01*
X49791428Y16325239D01*
X49886666Y16420477D01*
X49934285Y16515715D01*
X49981904Y16706191D01*
X49981904Y16849048D01*
X49934285Y17039524D01*
X49886666Y17134762D01*
X49791428Y17230000D01*
X49648571Y17277620D01*
X49553333Y17277620D01*
X49410476Y17230000D01*
X49362857Y17182381D01*
X48505714Y16944286D02*
X48505714Y16277620D01*
X48743809Y17325239D02*
X48981904Y16610953D01*
X48362857Y16610953D01*
X48077142Y17277620D02*
X47410476Y17277620D01*
X47839047Y16277620D01*
%TO.C,U32*%
X48202380Y21138096D02*
X49011904Y21138096D01*
X49107142Y21090477D01*
X49154761Y21042858D01*
X49202380Y20947620D01*
X49202380Y20757143D01*
X49154761Y20661905D01*
X49107142Y20614286D01*
X49011904Y20566667D01*
X48202380Y20566667D01*
X48202380Y20185715D02*
X48202380Y19566667D01*
X48583333Y19900000D01*
X48583333Y19757143D01*
X48630952Y19661905D01*
X48678571Y19614286D01*
X48773809Y19566667D01*
X49011904Y19566667D01*
X49107142Y19614286D01*
X49154761Y19661905D01*
X49202380Y19757143D01*
X49202380Y20042858D01*
X49154761Y20138096D01*
X49107142Y20185715D01*
X48297619Y19185715D02*
X48250000Y19138096D01*
X48202380Y19042858D01*
X48202380Y18804762D01*
X48250000Y18709524D01*
X48297619Y18661905D01*
X48392857Y18614286D01*
X48488095Y18614286D01*
X48630952Y18661905D01*
X49202380Y19233334D01*
X49202380Y18614286D01*
%TO.C,U27*%
X27908095Y36869620D02*
X27908095Y36060096D01*
X27860476Y35964858D01*
X27812857Y35917239D01*
X27717619Y35869620D01*
X27527142Y35869620D01*
X27431904Y35917239D01*
X27384285Y35964858D01*
X27336666Y36060096D01*
X27336666Y36869620D01*
X26908095Y36774381D02*
X26860476Y36822000D01*
X26765238Y36869620D01*
X26527142Y36869620D01*
X26431904Y36822000D01*
X26384285Y36774381D01*
X26336666Y36679143D01*
X26336666Y36583905D01*
X26384285Y36441048D01*
X26955714Y35869620D01*
X26336666Y35869620D01*
X26003333Y36869620D02*
X25336666Y36869620D01*
X25765238Y35869620D01*
%TO.C,U26*%
X44118647Y36417279D02*
X44118647Y35607755D01*
X44071028Y35512517D01*
X44023409Y35464898D01*
X43928171Y35417279D01*
X43737694Y35417279D01*
X43642456Y35464898D01*
X43594837Y35512517D01*
X43547218Y35607755D01*
X43547218Y36417279D01*
X43118647Y36322040D02*
X43071028Y36369659D01*
X42975790Y36417279D01*
X42737694Y36417279D01*
X42642456Y36369659D01*
X42594837Y36322040D01*
X42547218Y36226802D01*
X42547218Y36131564D01*
X42594837Y35988707D01*
X43166266Y35417279D01*
X42547218Y35417279D01*
X41690075Y36417279D02*
X41880552Y36417279D01*
X41975790Y36369659D01*
X42023409Y36322040D01*
X42118647Y36179183D01*
X42166266Y35988707D01*
X42166266Y35607755D01*
X42118647Y35512517D01*
X42071028Y35464898D01*
X41975790Y35417279D01*
X41785313Y35417279D01*
X41690075Y35464898D01*
X41642456Y35512517D01*
X41594837Y35607755D01*
X41594837Y35845850D01*
X41642456Y35941088D01*
X41690075Y35988707D01*
X41785313Y36036326D01*
X41975790Y36036326D01*
X42071028Y35988707D01*
X42118647Y35941088D01*
X42166266Y35845850D01*
%TO.C,U24*%
X33234380Y36544096D02*
X34043904Y36544096D01*
X34139142Y36496477D01*
X34186761Y36448858D01*
X34234380Y36353620D01*
X34234380Y36163143D01*
X34186761Y36067905D01*
X34139142Y36020286D01*
X34043904Y35972667D01*
X33234380Y35972667D01*
X33329619Y35544096D02*
X33282000Y35496477D01*
X33234380Y35401239D01*
X33234380Y35163143D01*
X33282000Y35067905D01*
X33329619Y35020286D01*
X33424857Y34972667D01*
X33520095Y34972667D01*
X33662952Y35020286D01*
X34234380Y35591715D01*
X34234380Y34972667D01*
X33567714Y34115524D02*
X34234380Y34115524D01*
X33186761Y34353620D02*
X33901047Y34591715D01*
X33901047Y33972667D01*
%TO.C,U16*%
X41763795Y15743420D02*
X41763795Y14933896D01*
X41716176Y14838658D01*
X41668557Y14791039D01*
X41573319Y14743420D01*
X41382842Y14743420D01*
X41287604Y14791039D01*
X41239985Y14838658D01*
X41192366Y14933896D01*
X41192366Y15743420D01*
X40192366Y14743420D02*
X40763795Y14743420D01*
X40478080Y14743420D02*
X40478080Y15743420D01*
X40573319Y15600562D01*
X40668557Y15505324D01*
X40763795Y15457705D01*
X39335223Y15743420D02*
X39525700Y15743420D01*
X39620938Y15695800D01*
X39668557Y15648181D01*
X39763795Y15505324D01*
X39811414Y15314848D01*
X39811414Y14933896D01*
X39763795Y14838658D01*
X39716176Y14791039D01*
X39620938Y14743420D01*
X39430461Y14743420D01*
X39335223Y14791039D01*
X39287604Y14838658D01*
X39239985Y14933896D01*
X39239985Y15171991D01*
X39287604Y15267229D01*
X39335223Y15314848D01*
X39430461Y15362467D01*
X39620938Y15362467D01*
X39716176Y15314848D01*
X39763795Y15267229D01*
X39811414Y15171991D01*
%TO.C,U15*%
X2278380Y29254296D02*
X3087904Y29254296D01*
X3183142Y29206677D01*
X3230761Y29159058D01*
X3278380Y29063820D01*
X3278380Y28873343D01*
X3230761Y28778105D01*
X3183142Y28730486D01*
X3087904Y28682867D01*
X2278380Y28682867D01*
X3278380Y27682867D02*
X3278380Y28254296D01*
X3278380Y27968581D02*
X2278380Y27968581D01*
X2421238Y28063820D01*
X2516476Y28159058D01*
X2564095Y28254296D01*
X2278380Y26778105D02*
X2278380Y27254296D01*
X2754571Y27301915D01*
X2706952Y27254296D01*
X2659333Y27159058D01*
X2659333Y26920962D01*
X2706952Y26825724D01*
X2754571Y26778105D01*
X2849809Y26730486D01*
X3087904Y26730486D01*
X3183142Y26778105D01*
X3230761Y26825724D01*
X3278380Y26920962D01*
X3278380Y27159058D01*
X3230761Y27254296D01*
X3183142Y27301915D01*
%TO.C,U12*%
X6291580Y28441496D02*
X7101104Y28441496D01*
X7196342Y28393877D01*
X7243961Y28346258D01*
X7291580Y28251020D01*
X7291580Y28060543D01*
X7243961Y27965305D01*
X7196342Y27917686D01*
X7101104Y27870067D01*
X6291580Y27870067D01*
X7291580Y26870067D02*
X7291580Y27441496D01*
X7291580Y27155781D02*
X6291580Y27155781D01*
X6434438Y27251020D01*
X6529676Y27346258D01*
X6577295Y27441496D01*
X6386819Y26489115D02*
X6339200Y26441496D01*
X6291580Y26346258D01*
X6291580Y26108162D01*
X6339200Y26012924D01*
X6386819Y25965305D01*
X6482057Y25917686D01*
X6577295Y25917686D01*
X6720152Y25965305D01*
X7291580Y26536734D01*
X7291580Y25917686D01*
%TO.C,U11*%
X45040395Y28492020D02*
X45040395Y27682496D01*
X44992776Y27587258D01*
X44945157Y27539639D01*
X44849919Y27492020D01*
X44659442Y27492020D01*
X44564204Y27539639D01*
X44516585Y27587258D01*
X44468966Y27682496D01*
X44468966Y28492020D01*
X43468966Y27492020D02*
X44040395Y27492020D01*
X43754680Y27492020D02*
X43754680Y28492020D01*
X43849919Y28349162D01*
X43945157Y28253924D01*
X44040395Y28206305D01*
X42516585Y27492020D02*
X43088014Y27492020D01*
X42802300Y27492020D02*
X42802300Y28492020D01*
X42897538Y28349162D01*
X42992776Y28253924D01*
X43088014Y28206305D01*
%TO.C,U1*%
X52450904Y36901620D02*
X52450904Y36092096D01*
X52403285Y35996858D01*
X52355666Y35949239D01*
X52260428Y35901620D01*
X52069952Y35901620D01*
X51974714Y35949239D01*
X51927095Y35996858D01*
X51879476Y36092096D01*
X51879476Y36901620D01*
X50879476Y35901620D02*
X51450904Y35901620D01*
X51165190Y35901620D02*
X51165190Y36901620D01*
X51260428Y36758762D01*
X51355666Y36663524D01*
X51450904Y36615905D01*
%TO.C,R48*%
X24518857Y33837620D02*
X24852190Y34313810D01*
X25090285Y33837620D02*
X25090285Y34837620D01*
X24709333Y34837620D01*
X24614095Y34790000D01*
X24566476Y34742381D01*
X24518857Y34647143D01*
X24518857Y34504286D01*
X24566476Y34409048D01*
X24614095Y34361429D01*
X24709333Y34313810D01*
X25090285Y34313810D01*
X23661714Y34504286D02*
X23661714Y33837620D01*
X23899809Y34885239D02*
X24137904Y34170953D01*
X23518857Y34170953D01*
X22995047Y34409048D02*
X23090285Y34456667D01*
X23137904Y34504286D01*
X23185523Y34599524D01*
X23185523Y34647143D01*
X23137904Y34742381D01*
X23090285Y34790000D01*
X22995047Y34837620D01*
X22804571Y34837620D01*
X22709333Y34790000D01*
X22661714Y34742381D01*
X22614095Y34647143D01*
X22614095Y34599524D01*
X22661714Y34504286D01*
X22709333Y34456667D01*
X22804571Y34409048D01*
X22995047Y34409048D01*
X23090285Y34361429D01*
X23137904Y34313810D01*
X23185523Y34218572D01*
X23185523Y34028096D01*
X23137904Y33932858D01*
X23090285Y33885239D01*
X22995047Y33837620D01*
X22804571Y33837620D01*
X22709333Y33885239D01*
X22661714Y33932858D01*
X22614095Y34028096D01*
X22614095Y34218572D01*
X22661714Y34313810D01*
X22709333Y34361429D01*
X22804571Y34409048D01*
%TO.C,R46*%
X37711302Y20149693D02*
X37235112Y20483026D01*
X37711302Y20721121D02*
X36711302Y20721121D01*
X36711302Y20340169D01*
X36758922Y20244931D01*
X36806541Y20197312D01*
X36901779Y20149693D01*
X37044636Y20149693D01*
X37139874Y20197312D01*
X37187493Y20244931D01*
X37235112Y20340169D01*
X37235112Y20721121D01*
X37044636Y19292550D02*
X37711302Y19292550D01*
X36663683Y19530645D02*
X37377969Y19768740D01*
X37377969Y19149693D01*
X36711302Y18340169D02*
X36711302Y18530645D01*
X36758922Y18625883D01*
X36806541Y18673502D01*
X36949398Y18768740D01*
X37139874Y18816359D01*
X37520826Y18816359D01*
X37616064Y18768740D01*
X37663683Y18721121D01*
X37711302Y18625883D01*
X37711302Y18435407D01*
X37663683Y18340169D01*
X37616064Y18292550D01*
X37520826Y18244931D01*
X37282731Y18244931D01*
X37187493Y18292550D01*
X37139874Y18340169D01*
X37092255Y18435407D01*
X37092255Y18625883D01*
X37139874Y18721121D01*
X37187493Y18768740D01*
X37282731Y18816359D01*
%TO.C,R45*%
X2582857Y30057620D02*
X2916190Y30533810D01*
X3154285Y30057620D02*
X3154285Y31057620D01*
X2773333Y31057620D01*
X2678095Y31010000D01*
X2630476Y30962381D01*
X2582857Y30867143D01*
X2582857Y30724286D01*
X2630476Y30629048D01*
X2678095Y30581429D01*
X2773333Y30533810D01*
X3154285Y30533810D01*
X1725714Y30724286D02*
X1725714Y30057620D01*
X1963809Y31105239D02*
X2201904Y30390953D01*
X1582857Y30390953D01*
X725714Y31057620D02*
X1201904Y31057620D01*
X1249523Y30581429D01*
X1201904Y30629048D01*
X1106666Y30676667D01*
X868571Y30676667D01*
X773333Y30629048D01*
X725714Y30581429D01*
X678095Y30486191D01*
X678095Y30248096D01*
X725714Y30152858D01*
X773333Y30105239D01*
X868571Y30057620D01*
X1106666Y30057620D01*
X1201904Y30105239D01*
X1249523Y30152858D01*
%TO.C,R44*%
X9102380Y32122858D02*
X8626190Y32456191D01*
X9102380Y32694286D02*
X8102380Y32694286D01*
X8102380Y32313334D01*
X8150000Y32218096D01*
X8197619Y32170477D01*
X8292857Y32122858D01*
X8435714Y32122858D01*
X8530952Y32170477D01*
X8578571Y32218096D01*
X8626190Y32313334D01*
X8626190Y32694286D01*
X8435714Y31265715D02*
X9102380Y31265715D01*
X8054761Y31503810D02*
X8769047Y31741905D01*
X8769047Y31122858D01*
X8435714Y30313334D02*
X9102380Y30313334D01*
X8054761Y30551429D02*
X8769047Y30789524D01*
X8769047Y30170477D01*
%TO.C,R36*%
X40317857Y34817620D02*
X40651190Y35293810D01*
X40889285Y34817620D02*
X40889285Y35817620D01*
X40508333Y35817620D01*
X40413095Y35770000D01*
X40365476Y35722381D01*
X40317857Y35627143D01*
X40317857Y35484286D01*
X40365476Y35389048D01*
X40413095Y35341429D01*
X40508333Y35293810D01*
X40889285Y35293810D01*
X39984523Y35817620D02*
X39365476Y35817620D01*
X39698809Y35436667D01*
X39555952Y35436667D01*
X39460714Y35389048D01*
X39413095Y35341429D01*
X39365476Y35246191D01*
X39365476Y35008096D01*
X39413095Y34912858D01*
X39460714Y34865239D01*
X39555952Y34817620D01*
X39841666Y34817620D01*
X39936904Y34865239D01*
X39984523Y34912858D01*
X38508333Y35817620D02*
X38698809Y35817620D01*
X38794047Y35770000D01*
X38841666Y35722381D01*
X38936904Y35579524D01*
X38984523Y35389048D01*
X38984523Y35008096D01*
X38936904Y34912858D01*
X38889285Y34865239D01*
X38794047Y34817620D01*
X38603571Y34817620D01*
X38508333Y34865239D01*
X38460714Y34912858D01*
X38413095Y35008096D01*
X38413095Y35246191D01*
X38460714Y35341429D01*
X38508333Y35389048D01*
X38603571Y35436667D01*
X38794047Y35436667D01*
X38889285Y35389048D01*
X38936904Y35341429D01*
X38984523Y35246191D01*
%TO.C,R35*%
X31884857Y33931620D02*
X32218190Y34407810D01*
X32456285Y33931620D02*
X32456285Y34931620D01*
X32075333Y34931620D01*
X31980095Y34884000D01*
X31932476Y34836381D01*
X31884857Y34741143D01*
X31884857Y34598286D01*
X31932476Y34503048D01*
X31980095Y34455429D01*
X32075333Y34407810D01*
X32456285Y34407810D01*
X31551523Y34931620D02*
X30932476Y34931620D01*
X31265809Y34550667D01*
X31122952Y34550667D01*
X31027714Y34503048D01*
X30980095Y34455429D01*
X30932476Y34360191D01*
X30932476Y34122096D01*
X30980095Y34026858D01*
X31027714Y33979239D01*
X31122952Y33931620D01*
X31408666Y33931620D01*
X31503904Y33979239D01*
X31551523Y34026858D01*
X30027714Y34931620D02*
X30503904Y34931620D01*
X30551523Y34455429D01*
X30503904Y34503048D01*
X30408666Y34550667D01*
X30170571Y34550667D01*
X30075333Y34503048D01*
X30027714Y34455429D01*
X29980095Y34360191D01*
X29980095Y34122096D01*
X30027714Y34026858D01*
X30075333Y33979239D01*
X30170571Y33931620D01*
X30408666Y33931620D01*
X30503904Y33979239D01*
X30551523Y34026858D01*
%TO.C,R34*%
X49252857Y35787620D02*
X49586190Y36263810D01*
X49824285Y35787620D02*
X49824285Y36787620D01*
X49443333Y36787620D01*
X49348095Y36740000D01*
X49300476Y36692381D01*
X49252857Y36597143D01*
X49252857Y36454286D01*
X49300476Y36359048D01*
X49348095Y36311429D01*
X49443333Y36263810D01*
X49824285Y36263810D01*
X48919523Y36787620D02*
X48300476Y36787620D01*
X48633809Y36406667D01*
X48490952Y36406667D01*
X48395714Y36359048D01*
X48348095Y36311429D01*
X48300476Y36216191D01*
X48300476Y35978096D01*
X48348095Y35882858D01*
X48395714Y35835239D01*
X48490952Y35787620D01*
X48776666Y35787620D01*
X48871904Y35835239D01*
X48919523Y35882858D01*
X47443333Y36454286D02*
X47443333Y35787620D01*
X47681428Y36835239D02*
X47919523Y36120953D01*
X47300476Y36120953D01*
%TO.C,R31*%
X21280380Y37218858D02*
X20804190Y37552191D01*
X21280380Y37790286D02*
X20280380Y37790286D01*
X20280380Y37409334D01*
X20328000Y37314096D01*
X20375619Y37266477D01*
X20470857Y37218858D01*
X20613714Y37218858D01*
X20708952Y37266477D01*
X20756571Y37314096D01*
X20804190Y37409334D01*
X20804190Y37790286D01*
X20280380Y36885524D02*
X20280380Y36266477D01*
X20661333Y36599810D01*
X20661333Y36456953D01*
X20708952Y36361715D01*
X20756571Y36314096D01*
X20851809Y36266477D01*
X21089904Y36266477D01*
X21185142Y36314096D01*
X21232761Y36361715D01*
X21280380Y36456953D01*
X21280380Y36742667D01*
X21232761Y36837905D01*
X21185142Y36885524D01*
X21280380Y35314096D02*
X21280380Y35885524D01*
X21280380Y35599810D02*
X20280380Y35599810D01*
X20423238Y35695048D01*
X20518476Y35790286D01*
X20566095Y35885524D01*
%TO.C,R30*%
D17*
X40546190Y42191429D02*
X40308095Y42358096D01*
X40546190Y42477143D02*
X40046190Y42477143D01*
X40046190Y42286667D01*
X40070000Y42239048D01*
X40093809Y42215239D01*
X40141428Y42191429D01*
X40212857Y42191429D01*
X40260476Y42215239D01*
X40284285Y42239048D01*
X40308095Y42286667D01*
X40308095Y42477143D01*
X40046190Y42024762D02*
X40046190Y41715239D01*
X40236666Y41881905D01*
X40236666Y41810477D01*
X40260476Y41762858D01*
X40284285Y41739048D01*
X40331904Y41715239D01*
X40450952Y41715239D01*
X40498571Y41739048D01*
X40522380Y41762858D01*
X40546190Y41810477D01*
X40546190Y41953334D01*
X40522380Y42000953D01*
X40498571Y42024762D01*
X40046190Y41405715D02*
X40046190Y41358096D01*
X40070000Y41310477D01*
X40093809Y41286667D01*
X40141428Y41262858D01*
X40236666Y41239048D01*
X40355714Y41239048D01*
X40450952Y41262858D01*
X40498571Y41286667D01*
X40522380Y41310477D01*
X40546190Y41358096D01*
X40546190Y41405715D01*
X40522380Y41453334D01*
X40498571Y41477143D01*
X40450952Y41500953D01*
X40355714Y41524762D01*
X40236666Y41524762D01*
X40141428Y41500953D01*
X40093809Y41477143D01*
X40070000Y41453334D01*
X40046190Y41405715D01*
%TO.C,R29*%
D15*
X27884380Y39060358D02*
X27408190Y39393691D01*
X27884380Y39631786D02*
X26884380Y39631786D01*
X26884380Y39250834D01*
X26932000Y39155596D01*
X26979619Y39107977D01*
X27074857Y39060358D01*
X27217714Y39060358D01*
X27312952Y39107977D01*
X27360571Y39155596D01*
X27408190Y39250834D01*
X27408190Y39631786D01*
X26979619Y38679405D02*
X26932000Y38631786D01*
X26884380Y38536548D01*
X26884380Y38298453D01*
X26932000Y38203215D01*
X26979619Y38155596D01*
X27074857Y38107977D01*
X27170095Y38107977D01*
X27312952Y38155596D01*
X27884380Y38727024D01*
X27884380Y38107977D01*
X27884380Y37631786D02*
X27884380Y37441310D01*
X27836761Y37346072D01*
X27789142Y37298453D01*
X27646285Y37203215D01*
X27455809Y37155596D01*
X27074857Y37155596D01*
X26979619Y37203215D01*
X26932000Y37250834D01*
X26884380Y37346072D01*
X26884380Y37536548D01*
X26932000Y37631786D01*
X26979619Y37679405D01*
X27074857Y37727024D01*
X27312952Y37727024D01*
X27408190Y37679405D01*
X27455809Y37631786D01*
X27503428Y37536548D01*
X27503428Y37346072D01*
X27455809Y37250834D01*
X27408190Y37203215D01*
X27312952Y37155596D01*
%TO.C,R26*%
X13596857Y43743620D02*
X13930190Y44219810D01*
X14168285Y43743620D02*
X14168285Y44743620D01*
X13787333Y44743620D01*
X13692095Y44696000D01*
X13644476Y44648381D01*
X13596857Y44553143D01*
X13596857Y44410286D01*
X13644476Y44315048D01*
X13692095Y44267429D01*
X13787333Y44219810D01*
X14168285Y44219810D01*
X13215904Y44648381D02*
X13168285Y44696000D01*
X13073047Y44743620D01*
X12834952Y44743620D01*
X12739714Y44696000D01*
X12692095Y44648381D01*
X12644476Y44553143D01*
X12644476Y44457905D01*
X12692095Y44315048D01*
X13263523Y43743620D01*
X12644476Y43743620D01*
X11787333Y44743620D02*
X11977809Y44743620D01*
X12073047Y44696000D01*
X12120666Y44648381D01*
X12215904Y44505524D01*
X12263523Y44315048D01*
X12263523Y43934096D01*
X12215904Y43838858D01*
X12168285Y43791239D01*
X12073047Y43743620D01*
X11882571Y43743620D01*
X11787333Y43791239D01*
X11739714Y43838858D01*
X11692095Y43934096D01*
X11692095Y44172191D01*
X11739714Y44267429D01*
X11787333Y44315048D01*
X11882571Y44362667D01*
X12073047Y44362667D01*
X12168285Y44315048D01*
X12215904Y44267429D01*
X12263523Y44172191D01*
%TO.C,R25*%
D17*
X23943428Y43207810D02*
X24110095Y43445905D01*
X24229142Y43207810D02*
X24229142Y43707810D01*
X24038666Y43707810D01*
X23991047Y43684000D01*
X23967238Y43660191D01*
X23943428Y43612572D01*
X23943428Y43541143D01*
X23967238Y43493524D01*
X23991047Y43469715D01*
X24038666Y43445905D01*
X24229142Y43445905D01*
X23752952Y43660191D02*
X23729142Y43684000D01*
X23681523Y43707810D01*
X23562476Y43707810D01*
X23514857Y43684000D01*
X23491047Y43660191D01*
X23467238Y43612572D01*
X23467238Y43564953D01*
X23491047Y43493524D01*
X23776761Y43207810D01*
X23467238Y43207810D01*
X23014857Y43707810D02*
X23252952Y43707810D01*
X23276761Y43469715D01*
X23252952Y43493524D01*
X23205333Y43517334D01*
X23086285Y43517334D01*
X23038666Y43493524D01*
X23014857Y43469715D01*
X22991047Y43422096D01*
X22991047Y43303048D01*
X23014857Y43255429D01*
X23038666Y43231620D01*
X23086285Y43207810D01*
X23205333Y43207810D01*
X23252952Y43231620D01*
X23276761Y43255429D01*
%TO.C,R24*%
X33595428Y43207810D02*
X33762095Y43445905D01*
X33881142Y43207810D02*
X33881142Y43707810D01*
X33690666Y43707810D01*
X33643047Y43684000D01*
X33619238Y43660191D01*
X33595428Y43612572D01*
X33595428Y43541143D01*
X33619238Y43493524D01*
X33643047Y43469715D01*
X33690666Y43445905D01*
X33881142Y43445905D01*
X33404952Y43660191D02*
X33381142Y43684000D01*
X33333523Y43707810D01*
X33214476Y43707810D01*
X33166857Y43684000D01*
X33143047Y43660191D01*
X33119238Y43612572D01*
X33119238Y43564953D01*
X33143047Y43493524D01*
X33428761Y43207810D01*
X33119238Y43207810D01*
X32690666Y43541143D02*
X32690666Y43207810D01*
X32809714Y43731620D02*
X32928761Y43374477D01*
X32619238Y43374477D01*
%TO.C,R23*%
X44517428Y43207810D02*
X44684095Y43445905D01*
X44803142Y43207810D02*
X44803142Y43707810D01*
X44612666Y43707810D01*
X44565047Y43684000D01*
X44541238Y43660191D01*
X44517428Y43612572D01*
X44517428Y43541143D01*
X44541238Y43493524D01*
X44565047Y43469715D01*
X44612666Y43445905D01*
X44803142Y43445905D01*
X44326952Y43660191D02*
X44303142Y43684000D01*
X44255523Y43707810D01*
X44136476Y43707810D01*
X44088857Y43684000D01*
X44065047Y43660191D01*
X44041238Y43612572D01*
X44041238Y43564953D01*
X44065047Y43493524D01*
X44350761Y43207810D01*
X44041238Y43207810D01*
X43874571Y43707810D02*
X43565047Y43707810D01*
X43731714Y43517334D01*
X43660285Y43517334D01*
X43612666Y43493524D01*
X43588857Y43469715D01*
X43565047Y43422096D01*
X43565047Y43303048D01*
X43588857Y43255429D01*
X43612666Y43231620D01*
X43660285Y43207810D01*
X43803142Y43207810D01*
X43850761Y43231620D01*
X43874571Y43255429D01*
%TO.C,R22*%
D15*
X19248380Y38996858D02*
X18772190Y39330191D01*
X19248380Y39568286D02*
X18248380Y39568286D01*
X18248380Y39187334D01*
X18296000Y39092096D01*
X18343619Y39044477D01*
X18438857Y38996858D01*
X18581714Y38996858D01*
X18676952Y39044477D01*
X18724571Y39092096D01*
X18772190Y39187334D01*
X18772190Y39568286D01*
X18343619Y38615905D02*
X18296000Y38568286D01*
X18248380Y38473048D01*
X18248380Y38234953D01*
X18296000Y38139715D01*
X18343619Y38092096D01*
X18438857Y38044477D01*
X18534095Y38044477D01*
X18676952Y38092096D01*
X19248380Y38663524D01*
X19248380Y38044477D01*
X18343619Y37663524D02*
X18296000Y37615905D01*
X18248380Y37520667D01*
X18248380Y37282572D01*
X18296000Y37187334D01*
X18343619Y37139715D01*
X18438857Y37092096D01*
X18534095Y37092096D01*
X18676952Y37139715D01*
X19248380Y37711143D01*
X19248380Y37092096D01*
%TO.C,R21*%
X15120857Y41965620D02*
X15454190Y42441810D01*
X15692285Y41965620D02*
X15692285Y42965620D01*
X15311333Y42965620D01*
X15216095Y42918000D01*
X15168476Y42870381D01*
X15120857Y42775143D01*
X15120857Y42632286D01*
X15168476Y42537048D01*
X15216095Y42489429D01*
X15311333Y42441810D01*
X15692285Y42441810D01*
X14739904Y42870381D02*
X14692285Y42918000D01*
X14597047Y42965620D01*
X14358952Y42965620D01*
X14263714Y42918000D01*
X14216095Y42870381D01*
X14168476Y42775143D01*
X14168476Y42679905D01*
X14216095Y42537048D01*
X14787523Y41965620D01*
X14168476Y41965620D01*
X13216095Y41965620D02*
X13787523Y41965620D01*
X13501809Y41965620D02*
X13501809Y42965620D01*
X13597047Y42822762D01*
X13692285Y42727524D01*
X13787523Y42679905D01*
%TO.C,R20*%
D17*
X26483428Y40667810D02*
X26650095Y40905905D01*
X26769142Y40667810D02*
X26769142Y41167810D01*
X26578666Y41167810D01*
X26531047Y41144000D01*
X26507238Y41120191D01*
X26483428Y41072572D01*
X26483428Y41001143D01*
X26507238Y40953524D01*
X26531047Y40929715D01*
X26578666Y40905905D01*
X26769142Y40905905D01*
X26292952Y41120191D02*
X26269142Y41144000D01*
X26221523Y41167810D01*
X26102476Y41167810D01*
X26054857Y41144000D01*
X26031047Y41120191D01*
X26007238Y41072572D01*
X26007238Y41024953D01*
X26031047Y40953524D01*
X26316761Y40667810D01*
X26007238Y40667810D01*
X25697714Y41167810D02*
X25650095Y41167810D01*
X25602476Y41144000D01*
X25578666Y41120191D01*
X25554857Y41072572D01*
X25531047Y40977334D01*
X25531047Y40858286D01*
X25554857Y40763048D01*
X25578666Y40715429D01*
X25602476Y40691620D01*
X25650095Y40667810D01*
X25697714Y40667810D01*
X25745333Y40691620D01*
X25769142Y40715429D01*
X25792952Y40763048D01*
X25816761Y40858286D01*
X25816761Y40977334D01*
X25792952Y41072572D01*
X25769142Y41120191D01*
X25745333Y41144000D01*
X25697714Y41167810D01*
%TO.C,R19*%
X25213428Y42191810D02*
X25380095Y42429905D01*
X25499142Y42191810D02*
X25499142Y42691810D01*
X25308666Y42691810D01*
X25261047Y42668000D01*
X25237238Y42644191D01*
X25213428Y42596572D01*
X25213428Y42525143D01*
X25237238Y42477524D01*
X25261047Y42453715D01*
X25308666Y42429905D01*
X25499142Y42429905D01*
X24737238Y42191810D02*
X25022952Y42191810D01*
X24880095Y42191810D02*
X24880095Y42691810D01*
X24927714Y42620381D01*
X24975333Y42572762D01*
X25022952Y42548953D01*
X24499142Y42191810D02*
X24403904Y42191810D01*
X24356285Y42215620D01*
X24332476Y42239429D01*
X24284857Y42310858D01*
X24261047Y42406096D01*
X24261047Y42596572D01*
X24284857Y42644191D01*
X24308666Y42668000D01*
X24356285Y42691810D01*
X24451523Y42691810D01*
X24499142Y42668000D01*
X24522952Y42644191D01*
X24546761Y42596572D01*
X24546761Y42477524D01*
X24522952Y42429905D01*
X24499142Y42406096D01*
X24451523Y42382286D01*
X24356285Y42382286D01*
X24308666Y42406096D01*
X24284857Y42429905D01*
X24261047Y42477524D01*
%TO.C,R18*%
D15*
X38742857Y39138620D02*
X39076190Y39614810D01*
X39314285Y39138620D02*
X39314285Y40138620D01*
X38933333Y40138620D01*
X38838095Y40091000D01*
X38790476Y40043381D01*
X38742857Y39948143D01*
X38742857Y39805286D01*
X38790476Y39710048D01*
X38838095Y39662429D01*
X38933333Y39614810D01*
X39314285Y39614810D01*
X37790476Y39138620D02*
X38361904Y39138620D01*
X38076190Y39138620D02*
X38076190Y40138620D01*
X38171428Y39995762D01*
X38266666Y39900524D01*
X38361904Y39852905D01*
X37219047Y39710048D02*
X37314285Y39757667D01*
X37361904Y39805286D01*
X37409523Y39900524D01*
X37409523Y39948143D01*
X37361904Y40043381D01*
X37314285Y40091000D01*
X37219047Y40138620D01*
X37028571Y40138620D01*
X36933333Y40091000D01*
X36885714Y40043381D01*
X36838095Y39948143D01*
X36838095Y39900524D01*
X36885714Y39805286D01*
X36933333Y39757667D01*
X37028571Y39710048D01*
X37219047Y39710048D01*
X37314285Y39662429D01*
X37361904Y39614810D01*
X37409523Y39519572D01*
X37409523Y39329096D01*
X37361904Y39233858D01*
X37314285Y39186239D01*
X37219047Y39138620D01*
X37028571Y39138620D01*
X36933333Y39186239D01*
X36885714Y39233858D01*
X36838095Y39329096D01*
X36838095Y39519572D01*
X36885714Y39614810D01*
X36933333Y39662429D01*
X37028571Y39710048D01*
%TO.C,R17*%
D17*
X35373428Y41429810D02*
X35540095Y41667905D01*
X35659142Y41429810D02*
X35659142Y41929810D01*
X35468666Y41929810D01*
X35421047Y41906000D01*
X35397238Y41882191D01*
X35373428Y41834572D01*
X35373428Y41763143D01*
X35397238Y41715524D01*
X35421047Y41691715D01*
X35468666Y41667905D01*
X35659142Y41667905D01*
X34897238Y41429810D02*
X35182952Y41429810D01*
X35040095Y41429810D02*
X35040095Y41929810D01*
X35087714Y41858381D01*
X35135333Y41810762D01*
X35182952Y41786953D01*
X34730571Y41929810D02*
X34397238Y41929810D01*
X34611523Y41429810D01*
%TO.C,R16*%
X49731428Y41903810D02*
X49898095Y42141905D01*
X50017142Y41903810D02*
X50017142Y42403810D01*
X49826666Y42403810D01*
X49779047Y42380000D01*
X49755238Y42356191D01*
X49731428Y42308572D01*
X49731428Y42237143D01*
X49755238Y42189524D01*
X49779047Y42165715D01*
X49826666Y42141905D01*
X50017142Y42141905D01*
X49255238Y41903810D02*
X49540952Y41903810D01*
X49398095Y41903810D02*
X49398095Y42403810D01*
X49445714Y42332381D01*
X49493333Y42284762D01*
X49540952Y42260953D01*
X48826666Y42403810D02*
X48921904Y42403810D01*
X48969523Y42380000D01*
X48993333Y42356191D01*
X49040952Y42284762D01*
X49064761Y42189524D01*
X49064761Y41999048D01*
X49040952Y41951429D01*
X49017142Y41927620D01*
X48969523Y41903810D01*
X48874285Y41903810D01*
X48826666Y41927620D01*
X48802857Y41951429D01*
X48779047Y41999048D01*
X48779047Y42118096D01*
X48802857Y42165715D01*
X48826666Y42189524D01*
X48874285Y42213334D01*
X48969523Y42213334D01*
X49017142Y42189524D01*
X49040952Y42165715D01*
X49064761Y42118096D01*
%TO.C,R15*%
X45025428Y41937810D02*
X45192095Y42175905D01*
X45311142Y41937810D02*
X45311142Y42437810D01*
X45120666Y42437810D01*
X45073047Y42414000D01*
X45049238Y42390191D01*
X45025428Y42342572D01*
X45025428Y42271143D01*
X45049238Y42223524D01*
X45073047Y42199715D01*
X45120666Y42175905D01*
X45311142Y42175905D01*
X44549238Y41937810D02*
X44834952Y41937810D01*
X44692095Y41937810D02*
X44692095Y42437810D01*
X44739714Y42366381D01*
X44787333Y42318762D01*
X44834952Y42294953D01*
X44096857Y42437810D02*
X44334952Y42437810D01*
X44358761Y42199715D01*
X44334952Y42223524D01*
X44287333Y42247334D01*
X44168285Y42247334D01*
X44120666Y42223524D01*
X44096857Y42199715D01*
X44073047Y42152096D01*
X44073047Y42033048D01*
X44096857Y41985429D01*
X44120666Y41961620D01*
X44168285Y41937810D01*
X44287333Y41937810D01*
X44334952Y41961620D01*
X44358761Y41985429D01*
%TO.C,R14*%
D15*
X45792380Y36242858D02*
X45316190Y36576191D01*
X45792380Y36814286D02*
X44792380Y36814286D01*
X44792380Y36433334D01*
X44840000Y36338096D01*
X44887619Y36290477D01*
X44982857Y36242858D01*
X45125714Y36242858D01*
X45220952Y36290477D01*
X45268571Y36338096D01*
X45316190Y36433334D01*
X45316190Y36814286D01*
X45792380Y35290477D02*
X45792380Y35861905D01*
X45792380Y35576191D02*
X44792380Y35576191D01*
X44935238Y35671429D01*
X45030476Y35766667D01*
X45078095Y35861905D01*
X45125714Y34433334D02*
X45792380Y34433334D01*
X44744761Y34671429D02*
X45459047Y34909524D01*
X45459047Y34290477D01*
%TO.C,R13*%
X29916380Y39250858D02*
X29440190Y39584191D01*
X29916380Y39822286D02*
X28916380Y39822286D01*
X28916380Y39441334D01*
X28964000Y39346096D01*
X29011619Y39298477D01*
X29106857Y39250858D01*
X29249714Y39250858D01*
X29344952Y39298477D01*
X29392571Y39346096D01*
X29440190Y39441334D01*
X29440190Y39822286D01*
X29916380Y38298477D02*
X29916380Y38869905D01*
X29916380Y38584191D02*
X28916380Y38584191D01*
X29059238Y38679429D01*
X29154476Y38774667D01*
X29202095Y38869905D01*
X28916380Y37965143D02*
X28916380Y37346096D01*
X29297333Y37679429D01*
X29297333Y37536572D01*
X29344952Y37441334D01*
X29392571Y37393715D01*
X29487809Y37346096D01*
X29725904Y37346096D01*
X29821142Y37393715D01*
X29868761Y37441334D01*
X29916380Y37536572D01*
X29916380Y37822286D01*
X29868761Y37917524D01*
X29821142Y37965143D01*
%TO.C,R12*%
D17*
X46936190Y39631429D02*
X46698095Y39798096D01*
X46936190Y39917143D02*
X46436190Y39917143D01*
X46436190Y39726667D01*
X46460000Y39679048D01*
X46483809Y39655239D01*
X46531428Y39631429D01*
X46602857Y39631429D01*
X46650476Y39655239D01*
X46674285Y39679048D01*
X46698095Y39726667D01*
X46698095Y39917143D01*
X46936190Y39155239D02*
X46936190Y39440953D01*
X46936190Y39298096D02*
X46436190Y39298096D01*
X46507619Y39345715D01*
X46555238Y39393334D01*
X46579047Y39440953D01*
X46483809Y38964762D02*
X46460000Y38940953D01*
X46436190Y38893334D01*
X46436190Y38774286D01*
X46460000Y38726667D01*
X46483809Y38702858D01*
X46531428Y38679048D01*
X46579047Y38679048D01*
X46650476Y38702858D01*
X46936190Y38988572D01*
X46936190Y38679048D01*
%TO.C,R11*%
X25721428Y59971810D02*
X25888095Y60209905D01*
X26007142Y59971810D02*
X26007142Y60471810D01*
X25816666Y60471810D01*
X25769047Y60448000D01*
X25745238Y60424191D01*
X25721428Y60376572D01*
X25721428Y60305143D01*
X25745238Y60257524D01*
X25769047Y60233715D01*
X25816666Y60209905D01*
X26007142Y60209905D01*
X25245238Y59971810D02*
X25530952Y59971810D01*
X25388095Y59971810D02*
X25388095Y60471810D01*
X25435714Y60400381D01*
X25483333Y60352762D01*
X25530952Y60328953D01*
X24769047Y59971810D02*
X25054761Y59971810D01*
X24911904Y59971810D02*
X24911904Y60471810D01*
X24959523Y60400381D01*
X25007142Y60352762D01*
X25054761Y60328953D01*
%TO.C,R10*%
D15*
X36266380Y35694858D02*
X35790190Y36028191D01*
X36266380Y36266286D02*
X35266380Y36266286D01*
X35266380Y35885334D01*
X35314000Y35790096D01*
X35361619Y35742477D01*
X35456857Y35694858D01*
X35599714Y35694858D01*
X35694952Y35742477D01*
X35742571Y35790096D01*
X35790190Y35885334D01*
X35790190Y36266286D01*
X36266380Y34742477D02*
X36266380Y35313905D01*
X36266380Y35028191D02*
X35266380Y35028191D01*
X35409238Y35123429D01*
X35504476Y35218667D01*
X35552095Y35313905D01*
X35266380Y34123429D02*
X35266380Y34028191D01*
X35314000Y33932953D01*
X35361619Y33885334D01*
X35456857Y33837715D01*
X35647333Y33790096D01*
X35885428Y33790096D01*
X36075904Y33837715D01*
X36171142Y33885334D01*
X36218761Y33932953D01*
X36266380Y34028191D01*
X36266380Y34123429D01*
X36218761Y34218667D01*
X36171142Y34266286D01*
X36075904Y34313905D01*
X35885428Y34361524D01*
X35647333Y34361524D01*
X35456857Y34313905D01*
X35361619Y34266286D01*
X35314000Y34218667D01*
X35266380Y34123429D01*
%TO.C,R9*%
D17*
X28531333Y59971810D02*
X28698000Y60209905D01*
X28817047Y59971810D02*
X28817047Y60471810D01*
X28626571Y60471810D01*
X28578952Y60448000D01*
X28555142Y60424191D01*
X28531333Y60376572D01*
X28531333Y60305143D01*
X28555142Y60257524D01*
X28578952Y60233715D01*
X28626571Y60209905D01*
X28817047Y60209905D01*
X28293238Y59971810D02*
X28198000Y59971810D01*
X28150380Y59995620D01*
X28126571Y60019429D01*
X28078952Y60090858D01*
X28055142Y60186096D01*
X28055142Y60376572D01*
X28078952Y60424191D01*
X28102761Y60448000D01*
X28150380Y60471810D01*
X28245619Y60471810D01*
X28293238Y60448000D01*
X28317047Y60424191D01*
X28340857Y60376572D01*
X28340857Y60257524D01*
X28317047Y60209905D01*
X28293238Y60186096D01*
X28245619Y60162286D01*
X28150380Y60162286D01*
X28102761Y60186096D01*
X28078952Y60209905D01*
X28055142Y60257524D01*
%TO.C,R8*%
X27007333Y59971810D02*
X27174000Y60209905D01*
X27293047Y59971810D02*
X27293047Y60471810D01*
X27102571Y60471810D01*
X27054952Y60448000D01*
X27031142Y60424191D01*
X27007333Y60376572D01*
X27007333Y60305143D01*
X27031142Y60257524D01*
X27054952Y60233715D01*
X27102571Y60209905D01*
X27293047Y60209905D01*
X26721619Y60257524D02*
X26769238Y60281334D01*
X26793047Y60305143D01*
X26816857Y60352762D01*
X26816857Y60376572D01*
X26793047Y60424191D01*
X26769238Y60448000D01*
X26721619Y60471810D01*
X26626380Y60471810D01*
X26578761Y60448000D01*
X26554952Y60424191D01*
X26531142Y60376572D01*
X26531142Y60352762D01*
X26554952Y60305143D01*
X26578761Y60281334D01*
X26626380Y60257524D01*
X26721619Y60257524D01*
X26769238Y60233715D01*
X26793047Y60209905D01*
X26816857Y60162286D01*
X26816857Y60067048D01*
X26793047Y60019429D01*
X26769238Y59995620D01*
X26721619Y59971810D01*
X26626380Y59971810D01*
X26578761Y59995620D01*
X26554952Y60019429D01*
X26531142Y60067048D01*
X26531142Y60162286D01*
X26554952Y60209905D01*
X26578761Y60233715D01*
X26626380Y60257524D01*
%TO.C,R7*%
X31833333Y59971810D02*
X32000000Y60209905D01*
X32119047Y59971810D02*
X32119047Y60471810D01*
X31928571Y60471810D01*
X31880952Y60448000D01*
X31857142Y60424191D01*
X31833333Y60376572D01*
X31833333Y60305143D01*
X31857142Y60257524D01*
X31880952Y60233715D01*
X31928571Y60209905D01*
X32119047Y60209905D01*
X31666666Y60471810D02*
X31333333Y60471810D01*
X31547619Y59971810D01*
%TO.C,R6*%
X30055333Y59971810D02*
X30222000Y60209905D01*
X30341047Y59971810D02*
X30341047Y60471810D01*
X30150571Y60471810D01*
X30102952Y60448000D01*
X30079142Y60424191D01*
X30055333Y60376572D01*
X30055333Y60305143D01*
X30079142Y60257524D01*
X30102952Y60233715D01*
X30150571Y60209905D01*
X30341047Y60209905D01*
X29626761Y60471810D02*
X29722000Y60471810D01*
X29769619Y60448000D01*
X29793428Y60424191D01*
X29841047Y60352762D01*
X29864857Y60257524D01*
X29864857Y60067048D01*
X29841047Y60019429D01*
X29817238Y59995620D01*
X29769619Y59971810D01*
X29674380Y59971810D01*
X29626761Y59995620D01*
X29602952Y60019429D01*
X29579142Y60067048D01*
X29579142Y60186096D01*
X29602952Y60233715D01*
X29626761Y60257524D01*
X29674380Y60281334D01*
X29769619Y60281334D01*
X29817238Y60257524D01*
X29841047Y60233715D01*
X29864857Y60186096D01*
%TO.C,R5*%
X34881333Y59971810D02*
X35048000Y60209905D01*
X35167047Y59971810D02*
X35167047Y60471810D01*
X34976571Y60471810D01*
X34928952Y60448000D01*
X34905142Y60424191D01*
X34881333Y60376572D01*
X34881333Y60305143D01*
X34905142Y60257524D01*
X34928952Y60233715D01*
X34976571Y60209905D01*
X35167047Y60209905D01*
X34428952Y60471810D02*
X34667047Y60471810D01*
X34690857Y60233715D01*
X34667047Y60257524D01*
X34619428Y60281334D01*
X34500380Y60281334D01*
X34452761Y60257524D01*
X34428952Y60233715D01*
X34405142Y60186096D01*
X34405142Y60067048D01*
X34428952Y60019429D01*
X34452761Y59995620D01*
X34500380Y59971810D01*
X34619428Y59971810D01*
X34667047Y59995620D01*
X34690857Y60019429D01*
%TO.C,R4*%
X33357333Y59971810D02*
X33524000Y60209905D01*
X33643047Y59971810D02*
X33643047Y60471810D01*
X33452571Y60471810D01*
X33404952Y60448000D01*
X33381142Y60424191D01*
X33357333Y60376572D01*
X33357333Y60305143D01*
X33381142Y60257524D01*
X33404952Y60233715D01*
X33452571Y60209905D01*
X33643047Y60209905D01*
X32928761Y60305143D02*
X32928761Y59971810D01*
X33047809Y60495620D02*
X33166857Y60138477D01*
X32857333Y60138477D01*
%TO.C,R3*%
X36405333Y59971810D02*
X36572000Y60209905D01*
X36691047Y59971810D02*
X36691047Y60471810D01*
X36500571Y60471810D01*
X36452952Y60448000D01*
X36429142Y60424191D01*
X36405333Y60376572D01*
X36405333Y60305143D01*
X36429142Y60257524D01*
X36452952Y60233715D01*
X36500571Y60209905D01*
X36691047Y60209905D01*
X36238666Y60471810D02*
X35929142Y60471810D01*
X36095809Y60281334D01*
X36024380Y60281334D01*
X35976761Y60257524D01*
X35952952Y60233715D01*
X35929142Y60186096D01*
X35929142Y60067048D01*
X35952952Y60019429D01*
X35976761Y59995620D01*
X36024380Y59971810D01*
X36167238Y59971810D01*
X36214857Y59995620D01*
X36238666Y60019429D01*
%TO.C,R2*%
X38183333Y59971810D02*
X38350000Y60209905D01*
X38469047Y59971810D02*
X38469047Y60471810D01*
X38278571Y60471810D01*
X38230952Y60448000D01*
X38207142Y60424191D01*
X38183333Y60376572D01*
X38183333Y60305143D01*
X38207142Y60257524D01*
X38230952Y60233715D01*
X38278571Y60209905D01*
X38469047Y60209905D01*
X37992857Y60424191D02*
X37969047Y60448000D01*
X37921428Y60471810D01*
X37802380Y60471810D01*
X37754761Y60448000D01*
X37730952Y60424191D01*
X37707142Y60376572D01*
X37707142Y60328953D01*
X37730952Y60257524D01*
X38016666Y59971810D01*
X37707142Y59971810D01*
%TO.C,R1*%
D15*
X54476666Y41467620D02*
X54810000Y41943810D01*
X55048095Y41467620D02*
X55048095Y42467620D01*
X54667142Y42467620D01*
X54571904Y42420000D01*
X54524285Y42372381D01*
X54476666Y42277143D01*
X54476666Y42134286D01*
X54524285Y42039048D01*
X54571904Y41991429D01*
X54667142Y41943810D01*
X55048095Y41943810D01*
X53524285Y41467620D02*
X54095714Y41467620D01*
X53810000Y41467620D02*
X53810000Y42467620D01*
X53905238Y42324762D01*
X54000476Y42229524D01*
X54095714Y42181905D01*
%TO.C,P1*%
X19272380Y54840096D02*
X18272380Y54840096D01*
X18272380Y54459143D01*
X18320000Y54363905D01*
X18367619Y54316286D01*
X18462857Y54268667D01*
X18605714Y54268667D01*
X18700952Y54316286D01*
X18748571Y54363905D01*
X18796190Y54459143D01*
X18796190Y54840096D01*
X19272380Y53316286D02*
X19272380Y53887715D01*
X19272380Y53602000D02*
X18272380Y53602000D01*
X18415238Y53697239D01*
X18510476Y53792477D01*
X18558095Y53887715D01*
%TO.C,D1*%
X58188095Y23607620D02*
X58188095Y24607620D01*
X57950000Y24607620D01*
X57807142Y24560000D01*
X57711904Y24464762D01*
X57664285Y24369524D01*
X57616666Y24179048D01*
X57616666Y24036191D01*
X57664285Y23845715D01*
X57711904Y23750477D01*
X57807142Y23655239D01*
X57950000Y23607620D01*
X58188095Y23607620D01*
X56664285Y23607620D02*
X57235714Y23607620D01*
X56950000Y23607620D02*
X56950000Y24607620D01*
X57045238Y24464762D01*
X57140476Y24369524D01*
X57235714Y24321905D01*
%TO.C,C44*%
X24010857Y41044858D02*
X24058476Y40997239D01*
X24201333Y40949620D01*
X24296571Y40949620D01*
X24439428Y40997239D01*
X24534666Y41092477D01*
X24582285Y41187715D01*
X24629904Y41378191D01*
X24629904Y41521048D01*
X24582285Y41711524D01*
X24534666Y41806762D01*
X24439428Y41902000D01*
X24296571Y41949620D01*
X24201333Y41949620D01*
X24058476Y41902000D01*
X24010857Y41854381D01*
X23153714Y41616286D02*
X23153714Y40949620D01*
X23391809Y41997239D02*
X23629904Y41282953D01*
X23010857Y41282953D01*
X22201333Y41616286D02*
X22201333Y40949620D01*
X22439428Y41997239D02*
X22677523Y41282953D01*
X22058476Y41282953D01*
%TO.C,C42*%
X42472857Y20422858D02*
X42520476Y20375239D01*
X42663333Y20327620D01*
X42758571Y20327620D01*
X42901428Y20375239D01*
X42996666Y20470477D01*
X43044285Y20565715D01*
X43091904Y20756191D01*
X43091904Y20899048D01*
X43044285Y21089524D01*
X42996666Y21184762D01*
X42901428Y21280000D01*
X42758571Y21327620D01*
X42663333Y21327620D01*
X42520476Y21280000D01*
X42472857Y21232381D01*
X41615714Y20994286D02*
X41615714Y20327620D01*
X41853809Y21375239D02*
X42091904Y20660953D01*
X41472857Y20660953D01*
X41139523Y21232381D02*
X41091904Y21280000D01*
X40996666Y21327620D01*
X40758571Y21327620D01*
X40663333Y21280000D01*
X40615714Y21232381D01*
X40568095Y21137143D01*
X40568095Y21041905D01*
X40615714Y20899048D01*
X41187142Y20327620D01*
X40568095Y20327620D01*
%TO.C,C41*%
X42492857Y19112858D02*
X42540476Y19065239D01*
X42683333Y19017620D01*
X42778571Y19017620D01*
X42921428Y19065239D01*
X43016666Y19160477D01*
X43064285Y19255715D01*
X43111904Y19446191D01*
X43111904Y19589048D01*
X43064285Y19779524D01*
X43016666Y19874762D01*
X42921428Y19970000D01*
X42778571Y20017620D01*
X42683333Y20017620D01*
X42540476Y19970000D01*
X42492857Y19922381D01*
X41635714Y19684286D02*
X41635714Y19017620D01*
X41873809Y20065239D02*
X42111904Y19350953D01*
X41492857Y19350953D01*
X40588095Y19017620D02*
X41159523Y19017620D01*
X40873809Y19017620D02*
X40873809Y20017620D01*
X40969047Y19874762D01*
X41064285Y19779524D01*
X41159523Y19731905D01*
%TO.C,C40*%
X2552857Y31872858D02*
X2600476Y31825239D01*
X2743333Y31777620D01*
X2838571Y31777620D01*
X2981428Y31825239D01*
X3076666Y31920477D01*
X3124285Y32015715D01*
X3171904Y32206191D01*
X3171904Y32349048D01*
X3124285Y32539524D01*
X3076666Y32634762D01*
X2981428Y32730000D01*
X2838571Y32777620D01*
X2743333Y32777620D01*
X2600476Y32730000D01*
X2552857Y32682381D01*
X1695714Y32444286D02*
X1695714Y31777620D01*
X1933809Y32825239D02*
X2171904Y32110953D01*
X1552857Y32110953D01*
X981428Y32777620D02*
X886190Y32777620D01*
X790952Y32730000D01*
X743333Y32682381D01*
X695714Y32587143D01*
X648095Y32396667D01*
X648095Y32158572D01*
X695714Y31968096D01*
X743333Y31872858D01*
X790952Y31825239D01*
X886190Y31777620D01*
X981428Y31777620D01*
X1076666Y31825239D01*
X1124285Y31872858D01*
X1171904Y31968096D01*
X1219523Y32158572D01*
X1219523Y32396667D01*
X1171904Y32587143D01*
X1124285Y32682381D01*
X1076666Y32730000D01*
X981428Y32777620D01*
%TO.C,C39*%
X43382857Y41362858D02*
X43430476Y41315239D01*
X43573333Y41267620D01*
X43668571Y41267620D01*
X43811428Y41315239D01*
X43906666Y41410477D01*
X43954285Y41505715D01*
X44001904Y41696191D01*
X44001904Y41839048D01*
X43954285Y42029524D01*
X43906666Y42124762D01*
X43811428Y42220000D01*
X43668571Y42267620D01*
X43573333Y42267620D01*
X43430476Y42220000D01*
X43382857Y42172381D01*
X43049523Y42267620D02*
X42430476Y42267620D01*
X42763809Y41886667D01*
X42620952Y41886667D01*
X42525714Y41839048D01*
X42478095Y41791429D01*
X42430476Y41696191D01*
X42430476Y41458096D01*
X42478095Y41362858D01*
X42525714Y41315239D01*
X42620952Y41267620D01*
X42906666Y41267620D01*
X43001904Y41315239D01*
X43049523Y41362858D01*
X41954285Y41267620D02*
X41763809Y41267620D01*
X41668571Y41315239D01*
X41620952Y41362858D01*
X41525714Y41505715D01*
X41478095Y41696191D01*
X41478095Y42077143D01*
X41525714Y42172381D01*
X41573333Y42220000D01*
X41668571Y42267620D01*
X41859047Y42267620D01*
X41954285Y42220000D01*
X42001904Y42172381D01*
X42049523Y42077143D01*
X42049523Y41839048D01*
X42001904Y41743810D01*
X41954285Y41696191D01*
X41859047Y41648572D01*
X41668571Y41648572D01*
X41573333Y41696191D01*
X41525714Y41743810D01*
X41478095Y41839048D01*
%TO.C,C37*%
X33408857Y41298858D02*
X33456476Y41251239D01*
X33599333Y41203620D01*
X33694571Y41203620D01*
X33837428Y41251239D01*
X33932666Y41346477D01*
X33980285Y41441715D01*
X34027904Y41632191D01*
X34027904Y41775048D01*
X33980285Y41965524D01*
X33932666Y42060762D01*
X33837428Y42156000D01*
X33694571Y42203620D01*
X33599333Y42203620D01*
X33456476Y42156000D01*
X33408857Y42108381D01*
X33075523Y42203620D02*
X32456476Y42203620D01*
X32789809Y41822667D01*
X32646952Y41822667D01*
X32551714Y41775048D01*
X32504095Y41727429D01*
X32456476Y41632191D01*
X32456476Y41394096D01*
X32504095Y41298858D01*
X32551714Y41251239D01*
X32646952Y41203620D01*
X32932666Y41203620D01*
X33027904Y41251239D01*
X33075523Y41298858D01*
X32123142Y42203620D02*
X31456476Y42203620D01*
X31885047Y41203620D01*
%TO.C,C36*%
X35011275Y14938394D02*
X35058894Y14890775D01*
X35201751Y14843156D01*
X35296989Y14843156D01*
X35439846Y14890775D01*
X35535084Y14986013D01*
X35582703Y15081251D01*
X35630322Y15271727D01*
X35630322Y15414584D01*
X35582703Y15605060D01*
X35535084Y15700298D01*
X35439846Y15795536D01*
X35296989Y15843156D01*
X35201751Y15843156D01*
X35058894Y15795536D01*
X35011275Y15747917D01*
X34677941Y15843156D02*
X34058894Y15843156D01*
X34392227Y15462203D01*
X34249370Y15462203D01*
X34154132Y15414584D01*
X34106513Y15366965D01*
X34058894Y15271727D01*
X34058894Y15033632D01*
X34106513Y14938394D01*
X34154132Y14890775D01*
X34249370Y14843156D01*
X34535084Y14843156D01*
X34630322Y14890775D01*
X34677941Y14938394D01*
X33201751Y15843156D02*
X33392227Y15843156D01*
X33487465Y15795536D01*
X33535084Y15747917D01*
X33630322Y15605060D01*
X33677941Y15414584D01*
X33677941Y15033632D01*
X33630322Y14938394D01*
X33582703Y14890775D01*
X33487465Y14843156D01*
X33296989Y14843156D01*
X33201751Y14890775D01*
X33154132Y14938394D01*
X33106513Y15033632D01*
X33106513Y15271727D01*
X33154132Y15366965D01*
X33201751Y15414584D01*
X33296989Y15462203D01*
X33487465Y15462203D01*
X33582703Y15414584D01*
X33630322Y15366965D01*
X33677941Y15271727D01*
%TO.C,C35*%
X24586776Y21112240D02*
X24586776Y21044896D01*
X24654120Y20910209D01*
X24721463Y20842866D01*
X24856150Y20775522D01*
X24990837Y20775522D01*
X25091852Y20809194D01*
X25260211Y20910209D01*
X25361226Y21011224D01*
X25462242Y21179583D01*
X25495913Y21280598D01*
X25495913Y21415285D01*
X25428570Y21549972D01*
X25361226Y21617316D01*
X25226539Y21684659D01*
X25159196Y21684659D01*
X24990837Y21987705D02*
X24553104Y22425438D01*
X24519433Y21920362D01*
X24418417Y22021377D01*
X24317402Y22055049D01*
X24250058Y22055049D01*
X24149043Y22021377D01*
X23980684Y21853018D01*
X23947013Y21752003D01*
X23947013Y21684659D01*
X23980684Y21583644D01*
X24182715Y21381614D01*
X24283730Y21347942D01*
X24351074Y21347942D01*
X23913341Y23065201D02*
X24250058Y22728484D01*
X23947013Y22358095D01*
X23947013Y22425438D01*
X23913341Y22526453D01*
X23744982Y22694812D01*
X23643967Y22728484D01*
X23576623Y22728484D01*
X23475608Y22694812D01*
X23307249Y22526453D01*
X23273578Y22425438D01*
X23273578Y22358095D01*
X23307249Y22257079D01*
X23475608Y22088721D01*
X23576623Y22055049D01*
X23643967Y22055049D01*
%TO.C,C34*%
X41557142Y24322858D02*
X41604761Y24370477D01*
X41652380Y24513334D01*
X41652380Y24608572D01*
X41604761Y24751429D01*
X41509523Y24846667D01*
X41414285Y24894286D01*
X41223809Y24941905D01*
X41080952Y24941905D01*
X40890476Y24894286D01*
X40795238Y24846667D01*
X40700000Y24751429D01*
X40652380Y24608572D01*
X40652380Y24513334D01*
X40700000Y24370477D01*
X40747619Y24322858D01*
X40652380Y23989524D02*
X40652380Y23370477D01*
X41033333Y23703810D01*
X41033333Y23560953D01*
X41080952Y23465715D01*
X41128571Y23418096D01*
X41223809Y23370477D01*
X41461904Y23370477D01*
X41557142Y23418096D01*
X41604761Y23465715D01*
X41652380Y23560953D01*
X41652380Y23846667D01*
X41604761Y23941905D01*
X41557142Y23989524D01*
X40985714Y22513334D02*
X41652380Y22513334D01*
X40604761Y22751429D02*
X41319047Y22989524D01*
X41319047Y22370477D01*
%TO.C,C33*%
X40117142Y24302858D02*
X40164761Y24350477D01*
X40212380Y24493334D01*
X40212380Y24588572D01*
X40164761Y24731429D01*
X40069523Y24826667D01*
X39974285Y24874286D01*
X39783809Y24921905D01*
X39640952Y24921905D01*
X39450476Y24874286D01*
X39355238Y24826667D01*
X39260000Y24731429D01*
X39212380Y24588572D01*
X39212380Y24493334D01*
X39260000Y24350477D01*
X39307619Y24302858D01*
X39212380Y23969524D02*
X39212380Y23350477D01*
X39593333Y23683810D01*
X39593333Y23540953D01*
X39640952Y23445715D01*
X39688571Y23398096D01*
X39783809Y23350477D01*
X40021904Y23350477D01*
X40117142Y23398096D01*
X40164761Y23445715D01*
X40212380Y23540953D01*
X40212380Y23826667D01*
X40164761Y23921905D01*
X40117142Y23969524D01*
X39212380Y23017143D02*
X39212380Y22398096D01*
X39593333Y22731429D01*
X39593333Y22588572D01*
X39640952Y22493334D01*
X39688571Y22445715D01*
X39783809Y22398096D01*
X40021904Y22398096D01*
X40117142Y22445715D01*
X40164761Y22493334D01*
X40212380Y22588572D01*
X40212380Y22874286D01*
X40164761Y22969524D01*
X40117142Y23017143D01*
%TO.C,C32*%
X38577142Y24332858D02*
X38624761Y24380477D01*
X38672380Y24523334D01*
X38672380Y24618572D01*
X38624761Y24761429D01*
X38529523Y24856667D01*
X38434285Y24904286D01*
X38243809Y24951905D01*
X38100952Y24951905D01*
X37910476Y24904286D01*
X37815238Y24856667D01*
X37720000Y24761429D01*
X37672380Y24618572D01*
X37672380Y24523334D01*
X37720000Y24380477D01*
X37767619Y24332858D01*
X37672380Y23999524D02*
X37672380Y23380477D01*
X38053333Y23713810D01*
X38053333Y23570953D01*
X38100952Y23475715D01*
X38148571Y23428096D01*
X38243809Y23380477D01*
X38481904Y23380477D01*
X38577142Y23428096D01*
X38624761Y23475715D01*
X38672380Y23570953D01*
X38672380Y23856667D01*
X38624761Y23951905D01*
X38577142Y23999524D01*
X37767619Y22999524D02*
X37720000Y22951905D01*
X37672380Y22856667D01*
X37672380Y22618572D01*
X37720000Y22523334D01*
X37767619Y22475715D01*
X37862857Y22428096D01*
X37958095Y22428096D01*
X38100952Y22475715D01*
X38672380Y23047143D01*
X38672380Y22428096D01*
%TO.C,C31*%
X46767142Y23112858D02*
X46814761Y23160477D01*
X46862380Y23303334D01*
X46862380Y23398572D01*
X46814761Y23541429D01*
X46719523Y23636667D01*
X46624285Y23684286D01*
X46433809Y23731905D01*
X46290952Y23731905D01*
X46100476Y23684286D01*
X46005238Y23636667D01*
X45910000Y23541429D01*
X45862380Y23398572D01*
X45862380Y23303334D01*
X45910000Y23160477D01*
X45957619Y23112858D01*
X45862380Y22779524D02*
X45862380Y22160477D01*
X46243333Y22493810D01*
X46243333Y22350953D01*
X46290952Y22255715D01*
X46338571Y22208096D01*
X46433809Y22160477D01*
X46671904Y22160477D01*
X46767142Y22208096D01*
X46814761Y22255715D01*
X46862380Y22350953D01*
X46862380Y22636667D01*
X46814761Y22731905D01*
X46767142Y22779524D01*
X46862380Y21208096D02*
X46862380Y21779524D01*
X46862380Y21493810D02*
X45862380Y21493810D01*
X46005238Y21589048D01*
X46100476Y21684286D01*
X46148095Y21779524D01*
%TO.C,C30*%
X49787142Y25782858D02*
X49834761Y25830477D01*
X49882380Y25973334D01*
X49882380Y26068572D01*
X49834761Y26211429D01*
X49739523Y26306667D01*
X49644285Y26354286D01*
X49453809Y26401905D01*
X49310952Y26401905D01*
X49120476Y26354286D01*
X49025238Y26306667D01*
X48930000Y26211429D01*
X48882380Y26068572D01*
X48882380Y25973334D01*
X48930000Y25830477D01*
X48977619Y25782858D01*
X48882380Y25449524D02*
X48882380Y24830477D01*
X49263333Y25163810D01*
X49263333Y25020953D01*
X49310952Y24925715D01*
X49358571Y24878096D01*
X49453809Y24830477D01*
X49691904Y24830477D01*
X49787142Y24878096D01*
X49834761Y24925715D01*
X49882380Y25020953D01*
X49882380Y25306667D01*
X49834761Y25401905D01*
X49787142Y25449524D01*
X48882380Y24211429D02*
X48882380Y24116191D01*
X48930000Y24020953D01*
X48977619Y23973334D01*
X49072857Y23925715D01*
X49263333Y23878096D01*
X49501428Y23878096D01*
X49691904Y23925715D01*
X49787142Y23973334D01*
X49834761Y24020953D01*
X49882380Y24116191D01*
X49882380Y24211429D01*
X49834761Y24306667D01*
X49787142Y24354286D01*
X49691904Y24401905D01*
X49501428Y24449524D01*
X49263333Y24449524D01*
X49072857Y24401905D01*
X48977619Y24354286D01*
X48930000Y24306667D01*
X48882380Y24211429D01*
%TO.C,C23*%
X24517857Y1462858D02*
X24565476Y1415239D01*
X24708333Y1367620D01*
X24803571Y1367620D01*
X24946428Y1415239D01*
X25041666Y1510477D01*
X25089285Y1605715D01*
X25136904Y1796191D01*
X25136904Y1939048D01*
X25089285Y2129524D01*
X25041666Y2224762D01*
X24946428Y2320000D01*
X24803571Y2367620D01*
X24708333Y2367620D01*
X24565476Y2320000D01*
X24517857Y2272381D01*
X24136904Y2272381D02*
X24089285Y2320000D01*
X23994047Y2367620D01*
X23755952Y2367620D01*
X23660714Y2320000D01*
X23613095Y2272381D01*
X23565476Y2177143D01*
X23565476Y2081905D01*
X23613095Y1939048D01*
X24184523Y1367620D01*
X23565476Y1367620D01*
X23232142Y2367620D02*
X22613095Y2367620D01*
X22946428Y1986667D01*
X22803571Y1986667D01*
X22708333Y1939048D01*
X22660714Y1891429D01*
X22613095Y1796191D01*
X22613095Y1558096D01*
X22660714Y1462858D01*
X22708333Y1415239D01*
X22803571Y1367620D01*
X23089285Y1367620D01*
X23184523Y1415239D01*
X23232142Y1462858D01*
%TO.C,C20*%
X30457142Y5322858D02*
X30504761Y5370477D01*
X30552380Y5513334D01*
X30552380Y5608572D01*
X30504761Y5751429D01*
X30409523Y5846667D01*
X30314285Y5894286D01*
X30123809Y5941905D01*
X29980952Y5941905D01*
X29790476Y5894286D01*
X29695238Y5846667D01*
X29600000Y5751429D01*
X29552380Y5608572D01*
X29552380Y5513334D01*
X29600000Y5370477D01*
X29647619Y5322858D01*
X29647619Y4941905D02*
X29600000Y4894286D01*
X29552380Y4799048D01*
X29552380Y4560953D01*
X29600000Y4465715D01*
X29647619Y4418096D01*
X29742857Y4370477D01*
X29838095Y4370477D01*
X29980952Y4418096D01*
X30552380Y4989524D01*
X30552380Y4370477D01*
X29552380Y3751429D02*
X29552380Y3656191D01*
X29600000Y3560953D01*
X29647619Y3513334D01*
X29742857Y3465715D01*
X29933333Y3418096D01*
X30171428Y3418096D01*
X30361904Y3465715D01*
X30457142Y3513334D01*
X30504761Y3560953D01*
X30552380Y3656191D01*
X30552380Y3751429D01*
X30504761Y3846667D01*
X30457142Y3894286D01*
X30361904Y3941905D01*
X30171428Y3989524D01*
X29933333Y3989524D01*
X29742857Y3941905D01*
X29647619Y3894286D01*
X29600000Y3846667D01*
X29552380Y3751429D01*
%TO.C,C19*%
X46342857Y12572858D02*
X46390476Y12525239D01*
X46533333Y12477620D01*
X46628571Y12477620D01*
X46771428Y12525239D01*
X46866666Y12620477D01*
X46914285Y12715715D01*
X46961904Y12906191D01*
X46961904Y13049048D01*
X46914285Y13239524D01*
X46866666Y13334762D01*
X46771428Y13430000D01*
X46628571Y13477620D01*
X46533333Y13477620D01*
X46390476Y13430000D01*
X46342857Y13382381D01*
X45390476Y12477620D02*
X45961904Y12477620D01*
X45676190Y12477620D02*
X45676190Y13477620D01*
X45771428Y13334762D01*
X45866666Y13239524D01*
X45961904Y13191905D01*
X44914285Y12477620D02*
X44723809Y12477620D01*
X44628571Y12525239D01*
X44580952Y12572858D01*
X44485714Y12715715D01*
X44438095Y12906191D01*
X44438095Y13287143D01*
X44485714Y13382381D01*
X44533333Y13430000D01*
X44628571Y13477620D01*
X44819047Y13477620D01*
X44914285Y13430000D01*
X44961904Y13382381D01*
X45009523Y13287143D01*
X45009523Y13049048D01*
X44961904Y12953810D01*
X44914285Y12906191D01*
X44819047Y12858572D01*
X44628571Y12858572D01*
X44533333Y12906191D01*
X44485714Y12953810D01*
X44438095Y13049048D01*
%TO.C,C18*%
X28897142Y5382858D02*
X28944761Y5430477D01*
X28992380Y5573334D01*
X28992380Y5668572D01*
X28944761Y5811429D01*
X28849523Y5906667D01*
X28754285Y5954286D01*
X28563809Y6001905D01*
X28420952Y6001905D01*
X28230476Y5954286D01*
X28135238Y5906667D01*
X28040000Y5811429D01*
X27992380Y5668572D01*
X27992380Y5573334D01*
X28040000Y5430477D01*
X28087619Y5382858D01*
X28992380Y4430477D02*
X28992380Y5001905D01*
X28992380Y4716191D02*
X27992380Y4716191D01*
X28135238Y4811429D01*
X28230476Y4906667D01*
X28278095Y5001905D01*
X28420952Y3859048D02*
X28373333Y3954286D01*
X28325714Y4001905D01*
X28230476Y4049524D01*
X28182857Y4049524D01*
X28087619Y4001905D01*
X28040000Y3954286D01*
X27992380Y3859048D01*
X27992380Y3668572D01*
X28040000Y3573334D01*
X28087619Y3525715D01*
X28182857Y3478096D01*
X28230476Y3478096D01*
X28325714Y3525715D01*
X28373333Y3573334D01*
X28420952Y3668572D01*
X28420952Y3859048D01*
X28468571Y3954286D01*
X28516190Y4001905D01*
X28611428Y4049524D01*
X28801904Y4049524D01*
X28897142Y4001905D01*
X28944761Y3954286D01*
X28992380Y3859048D01*
X28992380Y3668572D01*
X28944761Y3573334D01*
X28897142Y3525715D01*
X28801904Y3478096D01*
X28611428Y3478096D01*
X28516190Y3525715D01*
X28468571Y3573334D01*
X28420952Y3668572D01*
%TO.C,C17*%
X35857142Y24352858D02*
X35904761Y24400477D01*
X35952380Y24543334D01*
X35952380Y24638572D01*
X35904761Y24781429D01*
X35809523Y24876667D01*
X35714285Y24924286D01*
X35523809Y24971905D01*
X35380952Y24971905D01*
X35190476Y24924286D01*
X35095238Y24876667D01*
X35000000Y24781429D01*
X34952380Y24638572D01*
X34952380Y24543334D01*
X35000000Y24400477D01*
X35047619Y24352858D01*
X35952380Y23400477D02*
X35952380Y23971905D01*
X35952380Y23686191D02*
X34952380Y23686191D01*
X35095238Y23781429D01*
X35190476Y23876667D01*
X35238095Y23971905D01*
X34952380Y23067143D02*
X34952380Y22400477D01*
X35952380Y22829048D01*
%TO.C,C16*%
X34297142Y24332858D02*
X34344761Y24380477D01*
X34392380Y24523334D01*
X34392380Y24618572D01*
X34344761Y24761429D01*
X34249523Y24856667D01*
X34154285Y24904286D01*
X33963809Y24951905D01*
X33820952Y24951905D01*
X33630476Y24904286D01*
X33535238Y24856667D01*
X33440000Y24761429D01*
X33392380Y24618572D01*
X33392380Y24523334D01*
X33440000Y24380477D01*
X33487619Y24332858D01*
X34392380Y23380477D02*
X34392380Y23951905D01*
X34392380Y23666191D02*
X33392380Y23666191D01*
X33535238Y23761429D01*
X33630476Y23856667D01*
X33678095Y23951905D01*
X33392380Y22523334D02*
X33392380Y22713810D01*
X33440000Y22809048D01*
X33487619Y22856667D01*
X33630476Y22951905D01*
X33820952Y22999524D01*
X34201904Y22999524D01*
X34297142Y22951905D01*
X34344761Y22904286D01*
X34392380Y22809048D01*
X34392380Y22618572D01*
X34344761Y22523334D01*
X34297142Y22475715D01*
X34201904Y22428096D01*
X33963809Y22428096D01*
X33868571Y22475715D01*
X33820952Y22523334D01*
X33773333Y22618572D01*
X33773333Y22809048D01*
X33820952Y22904286D01*
X33868571Y22951905D01*
X33963809Y22999524D01*
%TO.C,C13*%
X13596857Y45616858D02*
X13644476Y45569239D01*
X13787333Y45521620D01*
X13882571Y45521620D01*
X14025428Y45569239D01*
X14120666Y45664477D01*
X14168285Y45759715D01*
X14215904Y45950191D01*
X14215904Y46093048D01*
X14168285Y46283524D01*
X14120666Y46378762D01*
X14025428Y46474000D01*
X13882571Y46521620D01*
X13787333Y46521620D01*
X13644476Y46474000D01*
X13596857Y46426381D01*
X12644476Y45521620D02*
X13215904Y45521620D01*
X12930190Y45521620D02*
X12930190Y46521620D01*
X13025428Y46378762D01*
X13120666Y46283524D01*
X13215904Y46235905D01*
X12311142Y46521620D02*
X11692095Y46521620D01*
X12025428Y46140667D01*
X11882571Y46140667D01*
X11787333Y46093048D01*
X11739714Y46045429D01*
X11692095Y45950191D01*
X11692095Y45712096D01*
X11739714Y45616858D01*
X11787333Y45569239D01*
X11882571Y45521620D01*
X12168285Y45521620D01*
X12263523Y45569239D01*
X12311142Y45616858D01*
%TO.C,C12*%
X26169857Y46886858D02*
X26217476Y46839239D01*
X26360333Y46791620D01*
X26455571Y46791620D01*
X26598428Y46839239D01*
X26693666Y46934477D01*
X26741285Y47029715D01*
X26788904Y47220191D01*
X26788904Y47363048D01*
X26741285Y47553524D01*
X26693666Y47648762D01*
X26598428Y47744000D01*
X26455571Y47791620D01*
X26360333Y47791620D01*
X26217476Y47744000D01*
X26169857Y47696381D01*
X25217476Y46791620D02*
X25788904Y46791620D01*
X25503190Y46791620D02*
X25503190Y47791620D01*
X25598428Y47648762D01*
X25693666Y47553524D01*
X25788904Y47505905D01*
X24836523Y47696381D02*
X24788904Y47744000D01*
X24693666Y47791620D01*
X24455571Y47791620D01*
X24360333Y47744000D01*
X24312714Y47696381D01*
X24265095Y47601143D01*
X24265095Y47505905D01*
X24312714Y47363048D01*
X24884142Y46791620D01*
X24265095Y46791620D01*
%TO.C,C11*%
X35948857Y46886858D02*
X35996476Y46839239D01*
X36139333Y46791620D01*
X36234571Y46791620D01*
X36377428Y46839239D01*
X36472666Y46934477D01*
X36520285Y47029715D01*
X36567904Y47220191D01*
X36567904Y47363048D01*
X36520285Y47553524D01*
X36472666Y47648762D01*
X36377428Y47744000D01*
X36234571Y47791620D01*
X36139333Y47791620D01*
X35996476Y47744000D01*
X35948857Y47696381D01*
X34996476Y46791620D02*
X35567904Y46791620D01*
X35282190Y46791620D02*
X35282190Y47791620D01*
X35377428Y47648762D01*
X35472666Y47553524D01*
X35567904Y47505905D01*
X34044095Y46791620D02*
X34615523Y46791620D01*
X34329809Y46791620D02*
X34329809Y47791620D01*
X34425047Y47648762D01*
X34520285Y47553524D01*
X34615523Y47505905D01*
%TO.C,C10*%
X45854857Y47046858D02*
X45902476Y46999239D01*
X46045333Y46951620D01*
X46140571Y46951620D01*
X46283428Y46999239D01*
X46378666Y47094477D01*
X46426285Y47189715D01*
X46473904Y47380191D01*
X46473904Y47523048D01*
X46426285Y47713524D01*
X46378666Y47808762D01*
X46283428Y47904000D01*
X46140571Y47951620D01*
X46045333Y47951620D01*
X45902476Y47904000D01*
X45854857Y47856381D01*
X44902476Y46951620D02*
X45473904Y46951620D01*
X45188190Y46951620D02*
X45188190Y47951620D01*
X45283428Y47808762D01*
X45378666Y47713524D01*
X45473904Y47665905D01*
X44283428Y47951620D02*
X44188190Y47951620D01*
X44092952Y47904000D01*
X44045333Y47856381D01*
X43997714Y47761143D01*
X43950095Y47570667D01*
X43950095Y47332572D01*
X43997714Y47142096D01*
X44045333Y47046858D01*
X44092952Y46999239D01*
X44188190Y46951620D01*
X44283428Y46951620D01*
X44378666Y46999239D01*
X44426285Y47046858D01*
X44473904Y47142096D01*
X44521523Y47332572D01*
X44521523Y47570667D01*
X44473904Y47761143D01*
X44426285Y47856381D01*
X44378666Y47904000D01*
X44283428Y47951620D01*
%TO.C,C9*%
X54546666Y40012858D02*
X54594285Y39965239D01*
X54737142Y39917620D01*
X54832380Y39917620D01*
X54975238Y39965239D01*
X55070476Y40060477D01*
X55118095Y40155715D01*
X55165714Y40346191D01*
X55165714Y40489048D01*
X55118095Y40679524D01*
X55070476Y40774762D01*
X54975238Y40870000D01*
X54832380Y40917620D01*
X54737142Y40917620D01*
X54594285Y40870000D01*
X54546666Y40822381D01*
X54070476Y39917620D02*
X53880000Y39917620D01*
X53784761Y39965239D01*
X53737142Y40012858D01*
X53641904Y40155715D01*
X53594285Y40346191D01*
X53594285Y40727143D01*
X53641904Y40822381D01*
X53689523Y40870000D01*
X53784761Y40917620D01*
X53975238Y40917620D01*
X54070476Y40870000D01*
X54118095Y40822381D01*
X54165714Y40727143D01*
X54165714Y40489048D01*
X54118095Y40393810D01*
X54070476Y40346191D01*
X53975238Y40298572D01*
X53784761Y40298572D01*
X53689523Y40346191D01*
X53641904Y40393810D01*
X53594285Y40489048D01*
%TO.C,C8*%
X23529542Y45391367D02*
X23577161Y45438986D01*
X23624780Y45581843D01*
X23624780Y45677081D01*
X23577161Y45819939D01*
X23481923Y45915177D01*
X23386685Y45962796D01*
X23196209Y46010415D01*
X23053352Y46010415D01*
X22862876Y45962796D01*
X22767638Y45915177D01*
X22672400Y45819939D01*
X22624780Y45677081D01*
X22624780Y45581843D01*
X22672400Y45438986D01*
X22720019Y45391367D01*
X23053352Y44819939D02*
X23005733Y44915177D01*
X22958114Y44962796D01*
X22862876Y45010415D01*
X22815257Y45010415D01*
X22720019Y44962796D01*
X22672400Y44915177D01*
X22624780Y44819939D01*
X22624780Y44629462D01*
X22672400Y44534224D01*
X22720019Y44486605D01*
X22815257Y44438986D01*
X22862876Y44438986D01*
X22958114Y44486605D01*
X23005733Y44534224D01*
X23053352Y44629462D01*
X23053352Y44819939D01*
X23100971Y44915177D01*
X23148590Y44962796D01*
X23243828Y45010415D01*
X23434304Y45010415D01*
X23529542Y44962796D01*
X23577161Y44915177D01*
X23624780Y44819939D01*
X23624780Y44629462D01*
X23577161Y44534224D01*
X23529542Y44486605D01*
X23434304Y44438986D01*
X23243828Y44438986D01*
X23148590Y44486605D01*
X23100971Y44534224D01*
X23053352Y44629462D01*
%TO.C,C7*%
X23725142Y48934667D02*
X23772761Y48982286D01*
X23820380Y49125143D01*
X23820380Y49220381D01*
X23772761Y49363239D01*
X23677523Y49458477D01*
X23582285Y49506096D01*
X23391809Y49553715D01*
X23248952Y49553715D01*
X23058476Y49506096D01*
X22963238Y49458477D01*
X22868000Y49363239D01*
X22820380Y49220381D01*
X22820380Y49125143D01*
X22868000Y48982286D01*
X22915619Y48934667D01*
X22820380Y48601334D02*
X22820380Y47934667D01*
X23820380Y48363239D01*
%TO.C,C6*%
X33308542Y46140667D02*
X33356161Y46188286D01*
X33403780Y46331143D01*
X33403780Y46426381D01*
X33356161Y46569239D01*
X33260923Y46664477D01*
X33165685Y46712096D01*
X32975209Y46759715D01*
X32832352Y46759715D01*
X32641876Y46712096D01*
X32546638Y46664477D01*
X32451400Y46569239D01*
X32403780Y46426381D01*
X32403780Y46331143D01*
X32451400Y46188286D01*
X32499019Y46140667D01*
X32403780Y45283524D02*
X32403780Y45474000D01*
X32451400Y45569239D01*
X32499019Y45616858D01*
X32641876Y45712096D01*
X32832352Y45759715D01*
X33213304Y45759715D01*
X33308542Y45712096D01*
X33356161Y45664477D01*
X33403780Y45569239D01*
X33403780Y45378762D01*
X33356161Y45283524D01*
X33308542Y45235905D01*
X33213304Y45188286D01*
X32975209Y45188286D01*
X32879971Y45235905D01*
X32832352Y45283524D01*
X32784733Y45378762D01*
X32784733Y45569239D01*
X32832352Y45664477D01*
X32879971Y45712096D01*
X32975209Y45759715D01*
%TO.C,C5*%
X33377142Y49188667D02*
X33424761Y49236286D01*
X33472380Y49379143D01*
X33472380Y49474381D01*
X33424761Y49617239D01*
X33329523Y49712477D01*
X33234285Y49760096D01*
X33043809Y49807715D01*
X32900952Y49807715D01*
X32710476Y49760096D01*
X32615238Y49712477D01*
X32520000Y49617239D01*
X32472380Y49474381D01*
X32472380Y49379143D01*
X32520000Y49236286D01*
X32567619Y49188667D01*
X32472380Y48283905D02*
X32472380Y48760096D01*
X32948571Y48807715D01*
X32900952Y48760096D01*
X32853333Y48664858D01*
X32853333Y48426762D01*
X32900952Y48331524D01*
X32948571Y48283905D01*
X33043809Y48236286D01*
X33281904Y48236286D01*
X33377142Y48283905D01*
X33424761Y48331524D01*
X33472380Y48426762D01*
X33472380Y48664858D01*
X33424761Y48760096D01*
X33377142Y48807715D01*
%TO.C,C4*%
X42909742Y45378667D02*
X42957361Y45426286D01*
X43004980Y45569143D01*
X43004980Y45664381D01*
X42957361Y45807239D01*
X42862123Y45902477D01*
X42766885Y45950096D01*
X42576409Y45997715D01*
X42433552Y45997715D01*
X42243076Y45950096D01*
X42147838Y45902477D01*
X42052600Y45807239D01*
X42004980Y45664381D01*
X42004980Y45569143D01*
X42052600Y45426286D01*
X42100219Y45378667D01*
X42338314Y44521524D02*
X43004980Y44521524D01*
X41957361Y44759620D02*
X42671647Y44997715D01*
X42671647Y44378667D01*
%TO.C,C3*%
X43029142Y48934667D02*
X43076761Y48982286D01*
X43124380Y49125143D01*
X43124380Y49220381D01*
X43076761Y49363239D01*
X42981523Y49458477D01*
X42886285Y49506096D01*
X42695809Y49553715D01*
X42552952Y49553715D01*
X42362476Y49506096D01*
X42267238Y49458477D01*
X42172000Y49363239D01*
X42124380Y49220381D01*
X42124380Y49125143D01*
X42172000Y48982286D01*
X42219619Y48934667D01*
X42124380Y48601334D02*
X42124380Y47982286D01*
X42505333Y48315620D01*
X42505333Y48172762D01*
X42552952Y48077524D01*
X42600571Y48029905D01*
X42695809Y47982286D01*
X42933904Y47982286D01*
X43029142Y48029905D01*
X43076761Y48077524D01*
X43124380Y48172762D01*
X43124380Y48458477D01*
X43076761Y48553715D01*
X43029142Y48601334D01*
%TO.C,C2*%
X52841142Y45442167D02*
X52888761Y45489786D01*
X52936380Y45632643D01*
X52936380Y45727881D01*
X52888761Y45870739D01*
X52793523Y45965977D01*
X52698285Y46013596D01*
X52507809Y46061215D01*
X52364952Y46061215D01*
X52174476Y46013596D01*
X52079238Y45965977D01*
X51984000Y45870739D01*
X51936380Y45727881D01*
X51936380Y45632643D01*
X51984000Y45489786D01*
X52031619Y45442167D01*
X52031619Y45061215D02*
X51984000Y45013596D01*
X51936380Y44918358D01*
X51936380Y44680262D01*
X51984000Y44585024D01*
X52031619Y44537405D01*
X52126857Y44489786D01*
X52222095Y44489786D01*
X52364952Y44537405D01*
X52936380Y45108834D01*
X52936380Y44489786D01*
%TO.C,C1*%
X52927142Y48806667D02*
X52974761Y48854286D01*
X53022380Y48997143D01*
X53022380Y49092381D01*
X52974761Y49235239D01*
X52879523Y49330477D01*
X52784285Y49378096D01*
X52593809Y49425715D01*
X52450952Y49425715D01*
X52260476Y49378096D01*
X52165238Y49330477D01*
X52070000Y49235239D01*
X52022380Y49092381D01*
X52022380Y48997143D01*
X52070000Y48854286D01*
X52117619Y48806667D01*
X53022380Y47854286D02*
X53022380Y48425715D01*
X53022380Y48140000D02*
X52022380Y48140000D01*
X52165238Y48235239D01*
X52260476Y48330477D01*
X52308095Y48425715D01*
%TO.C,U13*%
X17402928Y23645017D02*
X16973613Y23215702D01*
X16897851Y23190449D01*
X16847344Y23190449D01*
X16771582Y23215702D01*
X16670567Y23316718D01*
X16645313Y23392479D01*
X16645313Y23442987D01*
X16670567Y23518748D01*
X17099882Y23948063D01*
X16039222Y23948063D02*
X16342267Y23645017D01*
X16190744Y23796540D02*
X16721075Y24326870D01*
X16695821Y24200601D01*
X16695821Y24099586D01*
X16721075Y24023824D01*
X16392775Y24655170D02*
X16064475Y24983469D01*
X16039222Y24604662D01*
X15963460Y24680424D01*
X15887699Y24705677D01*
X15837191Y24705677D01*
X15761430Y24680424D01*
X15635161Y24554154D01*
X15609907Y24478393D01*
X15609907Y24427885D01*
X15635161Y24352124D01*
X15786683Y24200601D01*
X15862445Y24175347D01*
X15912953Y24175347D01*
%TO.C,U17*%
X44946771Y15638015D02*
X44946771Y15030872D01*
X44911057Y14959443D01*
X44875342Y14923729D01*
X44803914Y14888015D01*
X44661057Y14888015D01*
X44589628Y14923729D01*
X44553914Y14959443D01*
X44518200Y15030872D01*
X44518200Y15638015D01*
X43768200Y14888015D02*
X44196771Y14888015D01*
X43982485Y14888015D02*
X43982485Y15638015D01*
X44053914Y15530872D01*
X44125342Y15459443D01*
X44196771Y15423729D01*
X43518200Y15638015D02*
X43018200Y15638015D01*
X43339628Y14888015D01*
%TO.C,B1*%
X51889428Y26338572D02*
X51925142Y26231429D01*
X51960857Y26195715D01*
X52032285Y26160000D01*
X52139428Y26160000D01*
X52210857Y26195715D01*
X52246571Y26231429D01*
X52282285Y26302858D01*
X52282285Y26588572D01*
X51532285Y26588572D01*
X51532285Y26338572D01*
X51568000Y26267143D01*
X51603714Y26231429D01*
X51675142Y26195715D01*
X51746571Y26195715D01*
X51818000Y26231429D01*
X51853714Y26267143D01*
X51889428Y26338572D01*
X51889428Y26588572D01*
X52282285Y25445715D02*
X52282285Y25874286D01*
X52282285Y25660000D02*
X51532285Y25660000D01*
X51639428Y25731429D01*
X51710857Y25802858D01*
X51746571Y25874286D01*
%TO.C,SW5*%
X59536371Y36420300D02*
X59572085Y36313158D01*
X59572085Y36134586D01*
X59536371Y36063158D01*
X59500657Y36027443D01*
X59429228Y35991729D01*
X59357800Y35991729D01*
X59286371Y36027443D01*
X59250657Y36063158D01*
X59214942Y36134586D01*
X59179228Y36277443D01*
X59143514Y36348872D01*
X59107800Y36384586D01*
X59036371Y36420300D01*
X58964942Y36420300D01*
X58893514Y36384586D01*
X58857800Y36348872D01*
X58822085Y36277443D01*
X58822085Y36098872D01*
X58857800Y35991729D01*
X58822085Y35741729D02*
X59572085Y35563158D01*
X59036371Y35420300D01*
X59572085Y35277443D01*
X58822085Y35098872D01*
X58822085Y34456015D02*
X58822085Y34813158D01*
X59179228Y34848872D01*
X59143514Y34813158D01*
X59107800Y34741729D01*
X59107800Y34563158D01*
X59143514Y34491729D01*
X59179228Y34456015D01*
X59250657Y34420300D01*
X59429228Y34420300D01*
X59500657Y34456015D01*
X59536371Y34491729D01*
X59572085Y34563158D01*
X59572085Y34741729D01*
X59536371Y34813158D01*
X59500657Y34848872D01*
%TD*%
M02*
