M48
; DRILL file {KiCad (5.1.9)-1} date 05/12/21 23:32:52
; FORMAT={-:-/ absolute / metric / decimal}
; #@! TF.CreationDate,2021-05-12T23:32:52+03:00
; #@! TF.GenerationSoftware,Kicad,Pcbnew,(5.1.9)-1
; #@! TF.FileFunction,Plated,1,4,PTH
FMAT,2
METRIC
T1C0.400
T2C0.600
T3C1.000
%
G90
G05
T1
X4.14Y33.274
X5.512Y25.946
X7.442Y16.281
X8.191Y21.336
X8.839Y27.229
X10.3Y25.705
X10.668Y14.199
X12.243Y16.891
X12.306Y24.092
X13.183Y11.659
X13.398Y9.741
X14.249Y13.691
X14.897Y22.377
X14.95Y15.3
X15.4Y42.7
X15.748Y9.093
X16.04Y54.902
X16.066Y57.099
X16.078Y56.058
X16.2Y50.25
X16.37Y7.328
X16.853Y10.909
X17.55Y12.75
X17.818Y22.327
X18.237Y17.602
X18.732Y4.204
X18.923Y5.842
X19.55Y10.2
X19.748Y9.144
X19.939Y14.961
X20.4Y47.0
X20.777Y4.013
X21.0Y41.3
X21.311Y13.36
X21.539Y37.44
X22.022Y19.52
X22.085Y5.588
X22.45Y7.95
X22.9Y47.4
X23.0Y44.5
X23.482Y20.866
X23.635Y17.107
X24.727Y5.016
X24.867Y11.125
X24.925Y41.5
X25.0Y42.7
X25.057Y12.319
X25.45Y2.9
X25.527Y10.452
X25.55Y34.825
X25.908Y36.17
X26.213Y9.754
X26.848Y9.119
X27.788Y9.068
X28.375Y47.275
X28.9Y9.0
X29.3Y42.4
X29.3Y34.8
X29.616Y18.288
X29.616Y17.424
X29.616Y16.459
X29.616Y15.494
X29.616Y14.58
X29.616Y13.614
X29.616Y12.649
X29.616Y11.684
X30.175Y36.881
X31.1Y0.5
X31.496Y20.701
X31.5Y2.15
X32.3Y17.65
X32.703Y27.445
X32.728Y25.883
X32.8Y44.5
X32.8Y12.25
X33.2Y47.425
X33.299Y31.636
X34.036Y35.916
X34.15Y3.5
X34.45Y42.6
X34.6Y6.8
X34.65Y8.4
X34.65Y5.5
X34.722Y19.583
X35.065Y33.007
X35.25Y6.05
X35.55Y5.3
X36.35Y5.3
X36.881Y27.368
X36.893Y25.857
X36.925Y38.775
X37.059Y20.752
X37.4Y7.5
X37.694Y31.648
X37.694Y19.914
X37.694Y17.716
X37.7Y15.75
X38.329Y20.739
X38.341Y14.973
X38.8Y47.175
X38.8Y42.5
X38.8Y34.8
X39.15Y12.75
X39.35Y33.175
X40.3Y18.9
X40.45Y7.6
X41.0Y10.2
X41.199Y30.112
X41.554Y32.995
X41.554Y15.799
X42.393Y27.343
X42.4Y47.4
X42.4Y44.5
X42.464Y19.564
X42.725Y42.225
X42.9Y37.875
X43.7Y11.5
X43.7Y0.8
X43.891Y36.119
X43.993Y21.907
X44.65Y55.5
X44.825Y41.525
X44.958Y23.177
X46.253Y27.864
X46.355Y23.241
X46.482Y31.801
X46.482Y29.21
X46.736Y37.719
X46.9Y22.05
X47.6Y11.5
X48.8Y50.7
X48.8Y11.5
X48.9Y8.6
X49.2Y42.2
X50.165Y41.021
X50.673Y26.416
X51.689Y38.354
X52.324Y44.45
X52.4Y47.4
X53.315Y33.706
X53.8Y16.8
X54.712Y25.578
X55.105Y27.419
X56.82Y33.807
T3
X7.391Y36.906
X9.187Y35.11
X9.271Y38.735
X10.984Y33.314
X11.067Y36.939
X12.78Y31.518
X12.863Y35.143
X14.576Y29.722
X14.659Y33.347
X16.372Y27.926
X16.455Y31.551
X18.168Y26.13
X18.251Y29.755
X19.964Y24.334
X20.047Y27.959
X21.59Y55.372
X21.59Y52.832
X21.843Y26.163
X24.13Y55.372
X24.13Y52.832
X26.67Y55.372
X26.67Y52.832
X29.21Y55.372
X29.21Y52.832
X31.75Y55.372
X31.75Y52.832
X34.29Y55.372
X34.29Y52.832
X36.83Y55.372
X36.83Y52.832
X39.37Y55.372
X39.37Y52.832
X47.83Y2.15
X50.37Y2.15
X52.91Y2.15
X55.45Y2.15
T2
G00X56.145Y14.67
M15
G01X55.045Y14.67
M16
G05
G00X56.145Y6.03
M15
G01X55.045Y6.03
M16
G05
G00X60.075Y14.67
M15
G01X59.475Y14.67
M16
G05
G00X60.075Y6.03
M15
G01X59.475Y6.03
M16
G05
T0
M30
