%TF.GenerationSoftware,KiCad,Pcbnew,(5.1.9)-1*%
%TF.CreationDate,2021-05-12T23:31:49+03:00*%
%TF.ProjectId,Ganglion_01,47616e67-6c69-46f6-9e5f-30312e6b6963,01*%
%TF.SameCoordinates,PX4a1f960PY74ffa90*%
%TF.FileFunction,Legend,Top*%
%TF.FilePolarity,Positive*%
%FSLAX46Y46*%
G04 Gerber Fmt 4.6, Leading zero omitted, Abs format (unit mm)*
G04 Created by KiCad (PCBNEW (5.1.9)-1) date 2021-05-12 23:31:49*
%MOMM*%
%LPD*%
G01*
G04 APERTURE LIST*
%ADD10C,0.250000*%
%ADD11C,0.300000*%
%ADD12C,0.120000*%
%ADD13C,0.150000*%
%ADD14C,0.125000*%
G04 APERTURE END LIST*
D10*
X3852437Y32684247D02*
X2721066Y33815618D01*
X2889425Y33983977D01*
X3044315Y34031117D01*
X3219408Y33990711D01*
X3360830Y33916633D01*
X3610001Y33734806D01*
X3771625Y33573181D01*
X3953452Y33324010D01*
X4027530Y33182589D01*
X4067936Y33007496D01*
X4020796Y32852606D01*
X3852437Y32684247D01*
X3327158Y34421709D02*
X4694231Y33526041D01*
X3798562Y34893114D01*
X5165635Y33997445D02*
X4034265Y35128816D01*
X4202623Y35297175D01*
X4357513Y35344315D01*
X4532607Y35303909D01*
X4674028Y35229831D01*
X4923199Y35048004D01*
X5084823Y34886379D01*
X5266651Y34637208D01*
X5340729Y34495787D01*
X5381135Y34320694D01*
X5333994Y34165804D01*
X5165635Y33997445D01*
X5872742Y34704552D02*
X4741371Y35835923D01*
X4909730Y36004282D01*
X5064620Y36051422D01*
X5239713Y36011016D01*
X5381135Y35936938D01*
X5630306Y35755111D01*
X5791930Y35593486D01*
X5973758Y35344315D01*
X6047835Y35202894D01*
X6088241Y35027801D01*
X6041101Y34872911D01*
X5872742Y34704552D01*
X4985492Y32224627D02*
X4864273Y32211159D01*
X4763258Y32110144D01*
X4716118Y31955253D01*
X4756524Y31780160D01*
X4830602Y31638739D01*
X5012429Y31389568D01*
X5174053Y31227944D01*
X5423224Y31046116D01*
X5564646Y30972038D01*
X5739739Y30931632D01*
X5894629Y30978773D01*
X5961972Y31046116D01*
X6009113Y31201006D01*
X5988910Y31288553D01*
X5611786Y31665676D01*
X5477099Y31530989D01*
X6399705Y31483849D02*
X5268334Y32615220D01*
X6803766Y31887910D01*
X5672395Y33019281D01*
X7140484Y32224627D02*
X6009113Y33355998D01*
X6177472Y33524357D01*
X6332362Y33571498D01*
X6507455Y33531091D01*
X6648876Y33457014D01*
X6898047Y33275186D01*
X7059672Y33113562D01*
X7241499Y32864391D01*
X7315577Y32722969D01*
X7355983Y32547876D01*
X7308842Y32392986D01*
X7140484Y32224627D01*
X7490670Y33221311D02*
X7827387Y33558029D01*
X7746575Y32830719D02*
X6850907Y34197792D01*
X8217980Y33302124D01*
X7768462Y29104940D02*
X6637091Y30236311D01*
X7680915Y29663891D01*
X7108496Y30707715D01*
X8239866Y29576344D01*
X8576584Y29913062D02*
X7445213Y31044433D01*
X8825755Y30269982D02*
X8980645Y30317123D01*
X9149004Y30485481D01*
X9162472Y30606700D01*
X9142269Y30694246D01*
X9068192Y30835668D01*
X8960442Y30943417D01*
X8819021Y31017495D01*
X8731474Y31037698D01*
X8610256Y31024230D01*
X8421694Y30943417D01*
X8300476Y30929949D01*
X8212929Y30950152D01*
X8071508Y31024230D01*
X7963758Y31131979D01*
X7889680Y31273400D01*
X7869477Y31360947D01*
X7882946Y31482165D01*
X8051305Y31650524D01*
X8206195Y31697665D01*
X8590053Y32189272D02*
X8724740Y32323959D01*
X8845958Y32337428D01*
X9021051Y32297022D01*
X9270222Y32115194D01*
X9647346Y31738071D01*
X9829173Y31488900D01*
X9869579Y31313807D01*
X9856111Y31192588D01*
X9721424Y31057901D01*
X9600205Y31044433D01*
X9425112Y31084839D01*
X9175941Y31266666D01*
X8798818Y31643790D01*
X8616990Y31892961D01*
X8576584Y32068054D01*
X8590053Y32189272D01*
X9453733Y27150294D02*
X9608623Y27197435D01*
X9776982Y27365794D01*
X9790451Y27487012D01*
X9770248Y27574559D01*
X9696170Y27715980D01*
X9588420Y27823729D01*
X9446999Y27897807D01*
X9359452Y27918010D01*
X9238234Y27904542D01*
X9049672Y27823729D01*
X8928454Y27810261D01*
X8840907Y27830464D01*
X8699486Y27904542D01*
X8591736Y28012291D01*
X8517658Y28153713D01*
X8497455Y28241259D01*
X8510924Y28362478D01*
X8679283Y28530836D01*
X8834173Y28577977D01*
X10511026Y28315337D02*
X10531229Y28227791D01*
X10484089Y28072900D01*
X10416745Y28005557D01*
X10261855Y27958417D01*
X10086762Y27998823D01*
X9945341Y28072900D01*
X9696170Y28254728D01*
X9534545Y28416352D01*
X9352718Y28665523D01*
X9278640Y28806945D01*
X9238234Y28982038D01*
X9285374Y29136928D01*
X9352718Y29204271D01*
X9507608Y29251412D01*
X9595154Y29231209D01*
X11258539Y28847351D02*
X10921821Y28510633D01*
X9790451Y29642004D01*
X11494241Y29083053D02*
X10362870Y30214424D01*
X11898302Y29487114D02*
X10948759Y29830566D01*
X10766931Y30618485D02*
X11009368Y29567926D01*
X12627296Y26468441D02*
X11495925Y27599812D01*
X13031357Y26872502D01*
X11899986Y28003873D01*
X13664386Y27721031D02*
X13684589Y27633484D01*
X13637448Y27478594D01*
X13570105Y27411251D01*
X13415215Y27364110D01*
X13240122Y27404516D01*
X13098700Y27478594D01*
X12849529Y27660421D01*
X12687905Y27822046D01*
X12506077Y28071217D01*
X12432000Y28212638D01*
X12391593Y28387731D01*
X12438734Y28542621D01*
X12506077Y28609965D01*
X12660967Y28657105D01*
X12748514Y28636902D01*
X14501129Y24594608D02*
X13369758Y25725979D01*
X14905190Y24998669D01*
X13773819Y26130040D01*
X15538219Y25847198D02*
X15558422Y25759651D01*
X15511281Y25604761D01*
X15443938Y25537418D01*
X15289048Y25490277D01*
X15113955Y25530683D01*
X14972533Y25604761D01*
X14723362Y25786588D01*
X14561738Y25948213D01*
X14379910Y26197384D01*
X14305833Y26338805D01*
X14265426Y26513898D01*
X14312567Y26668788D01*
X14379910Y26736132D01*
X14534800Y26783272D01*
X14622347Y26763069D01*
X15263794Y21609608D02*
X14132423Y22740979D01*
X15176247Y22168559D01*
X14603828Y23212383D01*
X15735198Y22081012D01*
X15075232Y23683788D02*
X15209919Y23818475D01*
X15331137Y23831943D01*
X15506231Y23791537D01*
X15755401Y23609710D01*
X16132525Y23232586D01*
X16314353Y22983415D01*
X16354759Y22808322D01*
X16341290Y22687104D01*
X16206603Y22552417D01*
X16085385Y22538948D01*
X15910292Y22579354D01*
X15661121Y22761182D01*
X15283997Y23138305D01*
X15102170Y23387476D01*
X15061763Y23562569D01*
X15075232Y23683788D01*
X16725148Y23178711D02*
X16880038Y23225852D01*
X17048397Y23394210D01*
X17061865Y23515429D01*
X17041662Y23602975D01*
X16967585Y23744397D01*
X16859835Y23852146D01*
X16718414Y23926224D01*
X16630867Y23946427D01*
X16509649Y23932959D01*
X16321087Y23852146D01*
X16199869Y23838678D01*
X16112322Y23858881D01*
X15970901Y23932959D01*
X15863151Y24040708D01*
X15789073Y24182129D01*
X15768870Y24269676D01*
X15782339Y24390894D01*
X15950698Y24559253D01*
X16105588Y24606394D01*
X17486130Y23831943D02*
X16354759Y24963314D01*
X16632551Y19230698D02*
X15501180Y20362069D01*
X15770554Y20631443D01*
X15891772Y20644912D01*
X15979319Y20624709D01*
X16120740Y20550631D01*
X16282364Y20389007D01*
X16356442Y20247585D01*
X16376645Y20160039D01*
X16363177Y20038820D01*
X16093803Y19769446D01*
X16342974Y21203863D02*
X16410317Y21271207D01*
X16531535Y21284675D01*
X16619082Y21264472D01*
X16760503Y21190394D01*
X17009674Y21008567D01*
X17279048Y20739193D01*
X17460876Y20490022D01*
X17534954Y20348601D01*
X17555157Y20261054D01*
X17541688Y20139836D01*
X17474344Y20072492D01*
X17353126Y20059023D01*
X17265580Y20079227D01*
X17124158Y20153304D01*
X16874987Y20335132D01*
X16605613Y20604506D01*
X16423786Y20853677D01*
X16349708Y20995098D01*
X16329505Y21082645D01*
X16342974Y21203863D01*
X17905343Y20718990D02*
X17992889Y20698787D01*
X18013092Y20611240D01*
X17925546Y20631443D01*
X17905343Y20718990D01*
X18013092Y20611240D01*
X18720199Y21318347D02*
X18316138Y20914286D01*
X18518169Y21116316D02*
X17386798Y22247687D01*
X17481079Y22018719D01*
X17521485Y21843626D01*
X17508016Y21722408D01*
X17824531Y22685420D02*
X18262263Y23123153D01*
X18457560Y22456452D01*
X18558575Y22557467D01*
X18679793Y22570936D01*
X18767340Y22550733D01*
X18908761Y22476655D01*
X19178135Y22207281D01*
X19252213Y22065860D01*
X19272416Y21978313D01*
X19258947Y21857095D01*
X19056917Y21655065D01*
X18935698Y21641596D01*
X18848152Y21661799D01*
X10899059Y39934068D02*
X9767688Y41065439D01*
X11303120Y40338130D01*
X10171749Y41469500D01*
X11936149Y41186658D02*
X11956352Y41099111D01*
X11909211Y40944221D01*
X11841868Y40876878D01*
X11686978Y40829737D01*
X11511885Y40870143D01*
X11370463Y40944221D01*
X11121292Y41126048D01*
X10959668Y41287673D01*
X10777840Y41536844D01*
X10703763Y41678265D01*
X10663356Y41853358D01*
X10710497Y42008248D01*
X10777840Y42075592D01*
X10932730Y42122732D01*
X11020277Y42102529D01*
X12772892Y38060235D02*
X11641521Y39191606D01*
X11910895Y39460980D01*
X12032113Y39474449D01*
X12119660Y39454246D01*
X12261081Y39380168D01*
X12422706Y39218544D01*
X12496783Y39077122D01*
X12516986Y38989576D01*
X12503518Y38868358D01*
X12234144Y38598984D01*
X12483315Y40033400D02*
X12550658Y40100744D01*
X12671876Y40114212D01*
X12759423Y40094009D01*
X12900844Y40019931D01*
X13150015Y39838104D01*
X13419389Y39568730D01*
X13601217Y39319559D01*
X13675295Y39178138D01*
X13695498Y39090591D01*
X13682029Y38969373D01*
X13614686Y38902029D01*
X13493467Y38888561D01*
X13405921Y38908764D01*
X13264499Y38982841D01*
X13015328Y39164669D01*
X12745954Y39434043D01*
X12564127Y39683214D01*
X12490049Y39824635D01*
X12469846Y39912182D01*
X12483315Y40033400D01*
X14045684Y39548527D02*
X14133230Y39528324D01*
X14153434Y39440777D01*
X14065887Y39460980D01*
X14045684Y39548527D01*
X14153434Y39440777D01*
X13493467Y41043553D02*
X13560811Y41110896D01*
X13682029Y41124365D01*
X13769576Y41104162D01*
X13910997Y41030084D01*
X14160168Y40848257D01*
X14429542Y40578882D01*
X14611369Y40329712D01*
X14685447Y40188290D01*
X14705650Y40100744D01*
X14692182Y39979525D01*
X14624838Y39912182D01*
X14503620Y39898713D01*
X14416073Y39918916D01*
X14274652Y39992994D01*
X14025481Y40174821D01*
X13756107Y40444195D01*
X13574279Y40693366D01*
X13500202Y40834788D01*
X13479999Y40922334D01*
X13493467Y41043553D01*
X14166902Y41716988D02*
X14234246Y41784331D01*
X14355464Y41797800D01*
X14443011Y41777597D01*
X14584432Y41703519D01*
X14833603Y41521692D01*
X15102977Y41252318D01*
X15284804Y41003147D01*
X15358882Y40861725D01*
X15379085Y40774179D01*
X15365617Y40652960D01*
X15298273Y40585617D01*
X15177055Y40572148D01*
X15089508Y40592351D01*
X14948087Y40666429D01*
X14698916Y40848257D01*
X14429542Y41117631D01*
X14247714Y41366801D01*
X14173637Y41508223D01*
X14153434Y41595769D01*
X14166902Y41716988D01*
X14646725Y36186402D02*
X13515354Y37317773D01*
X13784728Y37587147D01*
X13905946Y37600616D01*
X13993493Y37580413D01*
X14134914Y37506335D01*
X14296539Y37344711D01*
X14370616Y37203289D01*
X14390819Y37115743D01*
X14377351Y36994525D01*
X14107977Y36725151D01*
X14357148Y38159567D02*
X14424491Y38226911D01*
X14545709Y38240379D01*
X14633256Y38220176D01*
X14774677Y38146098D01*
X15023848Y37964271D01*
X15293222Y37694897D01*
X15475050Y37445726D01*
X15549128Y37304305D01*
X15569331Y37216758D01*
X15555862Y37095540D01*
X15488519Y37028196D01*
X15367300Y37014728D01*
X15279754Y37034931D01*
X15138332Y37109008D01*
X14889161Y37290836D01*
X14619787Y37560210D01*
X14437960Y37809381D01*
X14363882Y37950802D01*
X14343679Y38038349D01*
X14357148Y38159567D01*
X15919517Y37674694D02*
X16007063Y37654491D01*
X16027267Y37566944D01*
X15939720Y37587147D01*
X15919517Y37674694D01*
X16027267Y37566944D01*
X15306691Y38893611D02*
X15286488Y38981158D01*
X15299957Y39102376D01*
X15468315Y39270735D01*
X15589534Y39284204D01*
X15677080Y39264001D01*
X15818502Y39189923D01*
X15926251Y39082173D01*
X16054204Y38886877D01*
X16296641Y37836318D01*
X16734373Y38274051D01*
X15838705Y39641124D02*
X16310109Y40112529D01*
X17138434Y38678112D01*
X16520558Y34312569D02*
X15389187Y35443940D01*
X15658561Y35713314D01*
X15779779Y35726783D01*
X15867326Y35706580D01*
X16008747Y35632502D01*
X16170372Y35470878D01*
X16244449Y35329456D01*
X16264652Y35241910D01*
X16251184Y35120692D01*
X15981810Y34851318D01*
X16230981Y36285734D02*
X16298324Y36353078D01*
X16419542Y36366546D01*
X16507089Y36346343D01*
X16648510Y36272265D01*
X16897681Y36090438D01*
X17167055Y35821064D01*
X17348883Y35571893D01*
X17422961Y35430472D01*
X17443164Y35342925D01*
X17429695Y35221707D01*
X17362352Y35154363D01*
X17241133Y35140895D01*
X17153587Y35161098D01*
X17012165Y35235175D01*
X16762994Y35417003D01*
X16493620Y35686377D01*
X16311793Y35935548D01*
X16237715Y36076969D01*
X16217512Y36164516D01*
X16230981Y36285734D01*
X17793350Y35800861D02*
X17880896Y35780658D01*
X17901100Y35693111D01*
X17813553Y35713314D01*
X17793350Y35800861D01*
X17901100Y35693111D01*
X17180524Y37019778D02*
X17160321Y37107325D01*
X17173790Y37228543D01*
X17342148Y37396902D01*
X17463367Y37410371D01*
X17550913Y37390168D01*
X17692335Y37316090D01*
X17800084Y37208340D01*
X17928037Y37013044D01*
X18170474Y35962485D01*
X18608206Y36400218D01*
X18082927Y38137680D02*
X17948240Y38002993D01*
X17934771Y37881775D01*
X17954974Y37794229D01*
X18049255Y37565261D01*
X18231083Y37316090D01*
X18662081Y36885091D01*
X18803502Y36811013D01*
X18891049Y36790810D01*
X19012267Y36804279D01*
X19146954Y36938966D01*
X19160423Y37060184D01*
X19140220Y37147731D01*
X19066142Y37289152D01*
X18796768Y37558526D01*
X18655347Y37632604D01*
X18567800Y37652807D01*
X18446582Y37639339D01*
X18311895Y37504652D01*
X18298426Y37383433D01*
X18318629Y37295887D01*
X18392707Y37154465D01*
X18394391Y32438736D02*
X17263020Y33570107D01*
X17532394Y33839481D01*
X17653612Y33852950D01*
X17741159Y33832747D01*
X17882580Y33758669D01*
X18044205Y33597045D01*
X18118282Y33455623D01*
X18138485Y33368077D01*
X18125017Y33246859D01*
X17855643Y32977485D01*
X18104814Y34411901D02*
X18172157Y34479245D01*
X18293375Y34492713D01*
X18380922Y34472510D01*
X18522343Y34398432D01*
X18771514Y34216605D01*
X19040888Y33947231D01*
X19222716Y33698060D01*
X19296794Y33556639D01*
X19316997Y33469092D01*
X19303528Y33347874D01*
X19236185Y33280530D01*
X19114966Y33267062D01*
X19027420Y33287265D01*
X18885998Y33361342D01*
X18636827Y33543170D01*
X18367453Y33812544D01*
X18185626Y34061715D01*
X18111548Y34203136D01*
X18091345Y34290683D01*
X18104814Y34411901D01*
X19667183Y33927028D02*
X19754729Y33906825D01*
X19774933Y33819278D01*
X19687386Y33839481D01*
X19667183Y33927028D01*
X19774933Y33819278D01*
X19114966Y35422054D02*
X19182310Y35489397D01*
X19303528Y35502866D01*
X19391075Y35482663D01*
X19532496Y35408585D01*
X19781667Y35226758D01*
X20051041Y34957383D01*
X20232868Y34708213D01*
X20306946Y34566791D01*
X20327149Y34479245D01*
X20313681Y34358026D01*
X20246337Y34290683D01*
X20125119Y34277214D01*
X20037572Y34297417D01*
X19896151Y34371495D01*
X19646980Y34553322D01*
X19377606Y34822696D01*
X19195778Y35071867D01*
X19121701Y35213289D01*
X19101498Y35300835D01*
X19114966Y35422054D01*
X19990432Y36297519D02*
X19653714Y35960802D01*
X20158791Y35388382D01*
X20138587Y35475928D01*
X20152056Y35597147D01*
X20320415Y35765506D01*
X20441633Y35778974D01*
X20529180Y35758771D01*
X20670601Y35684693D01*
X20939975Y35415319D01*
X21014053Y35273898D01*
X21034256Y35186351D01*
X21020787Y35065133D01*
X20852429Y34896774D01*
X20731210Y34883306D01*
X20643664Y34903509D01*
X20268224Y30564903D02*
X19136853Y31696274D01*
X19406227Y31965648D01*
X19527445Y31979117D01*
X19614992Y31958914D01*
X19756413Y31884836D01*
X19918038Y31723212D01*
X19992115Y31581790D01*
X20012318Y31494244D01*
X19998850Y31373026D01*
X19729476Y31103652D01*
X19978647Y32538068D02*
X20045990Y32605412D01*
X20167208Y32618880D01*
X20254755Y32598677D01*
X20396176Y32524599D01*
X20645347Y32342772D01*
X20914721Y32073398D01*
X21096549Y31824227D01*
X21170627Y31682806D01*
X21190830Y31595259D01*
X21177361Y31474041D01*
X21110018Y31406697D01*
X20988799Y31393229D01*
X20901253Y31413432D01*
X20759831Y31487509D01*
X20510660Y31669337D01*
X20241286Y31938711D01*
X20059459Y32187882D01*
X19985381Y32329303D01*
X19965178Y32416850D01*
X19978647Y32538068D01*
X21541016Y32053195D02*
X21628562Y32032992D01*
X21648766Y31945445D01*
X21561219Y31965648D01*
X21541016Y32053195D01*
X21648766Y31945445D01*
X20988799Y33548221D02*
X21056143Y33615564D01*
X21177361Y33629033D01*
X21264908Y33608830D01*
X21406329Y33534752D01*
X21655500Y33352925D01*
X21924874Y33083550D01*
X22106701Y32834380D01*
X22180779Y32692958D01*
X22200982Y32605412D01*
X22187514Y32484193D01*
X22120170Y32416850D01*
X21998952Y32403381D01*
X21911405Y32423584D01*
X21769984Y32497662D01*
X21520813Y32679489D01*
X21251439Y32948863D01*
X21069611Y33198034D01*
X20995534Y33339456D01*
X20975331Y33427002D01*
X20988799Y33548221D01*
X21460204Y34019625D02*
X21931608Y34491030D01*
X22759933Y33056613D01*
X22142057Y28691070D02*
X21010686Y29822441D01*
X21280060Y30091815D01*
X21401278Y30105284D01*
X21488825Y30085081D01*
X21630246Y30011003D01*
X21791871Y29849379D01*
X21865948Y29707957D01*
X21886151Y29620411D01*
X21872683Y29499193D01*
X21603309Y29229819D01*
X21852480Y30664235D02*
X21919823Y30731579D01*
X22041041Y30745047D01*
X22128588Y30724844D01*
X22270009Y30650766D01*
X22519180Y30468939D01*
X22788554Y30199565D01*
X22970382Y29950394D01*
X23044460Y29808973D01*
X23064663Y29721426D01*
X23051194Y29600208D01*
X22983851Y29532864D01*
X22862632Y29519396D01*
X22775086Y29539599D01*
X22633664Y29613676D01*
X22384493Y29795504D01*
X22115119Y30064878D01*
X21933292Y30314049D01*
X21859214Y30455470D01*
X21839011Y30543017D01*
X21852480Y30664235D01*
X23414849Y30179362D02*
X23502395Y30159159D01*
X23522599Y30071612D01*
X23435052Y30091815D01*
X23414849Y30179362D01*
X23522599Y30071612D01*
X22802023Y31398279D02*
X22781820Y31485826D01*
X22795289Y31607044D01*
X22963647Y31775403D01*
X23084866Y31788872D01*
X23172412Y31768669D01*
X23313834Y31694591D01*
X23421583Y31586841D01*
X23549536Y31391545D01*
X23791973Y30340986D01*
X24229705Y30778719D01*
X23987269Y31829278D02*
X23866050Y31815809D01*
X23778504Y31836012D01*
X23637082Y31910090D01*
X23583208Y31963965D01*
X23509130Y32105386D01*
X23488927Y32192933D01*
X23502395Y32314151D01*
X23637082Y32448838D01*
X23758301Y32462307D01*
X23845847Y32442104D01*
X23987269Y32368026D01*
X24041144Y32314151D01*
X24115221Y32172730D01*
X24135424Y32085183D01*
X24121956Y31963965D01*
X23987269Y31829278D01*
X23973800Y31708059D01*
X23994003Y31620513D01*
X24068081Y31479092D01*
X24283580Y31263592D01*
X24425001Y31189514D01*
X24512548Y31169311D01*
X24633766Y31182780D01*
X24768453Y31317467D01*
X24781922Y31438685D01*
X24761719Y31526232D01*
X24687641Y31667653D01*
X24472142Y31883153D01*
X24330721Y31957230D01*
X24243174Y31977433D01*
X24121956Y31963965D01*
X24015890Y26817237D02*
X22884519Y27948608D01*
X23153893Y28217982D01*
X23275111Y28231451D01*
X23362658Y28211248D01*
X23504079Y28137170D01*
X23665704Y27975546D01*
X23739781Y27834124D01*
X23759984Y27746578D01*
X23746516Y27625360D01*
X23477142Y27355986D01*
X23726313Y28790402D02*
X23793656Y28857746D01*
X23914874Y28871214D01*
X24002421Y28851011D01*
X24143842Y28776933D01*
X24393013Y28595106D01*
X24662387Y28325732D01*
X24844215Y28076561D01*
X24918293Y27935140D01*
X24938496Y27847593D01*
X24925027Y27726375D01*
X24857684Y27659031D01*
X24736465Y27645563D01*
X24648919Y27665766D01*
X24507497Y27739843D01*
X24258326Y27921671D01*
X23988952Y28191045D01*
X23807125Y28440216D01*
X23733047Y28581637D01*
X23712844Y28669184D01*
X23726313Y28790402D01*
X25288682Y28305529D02*
X25376228Y28285326D01*
X25396432Y28197779D01*
X25308885Y28217982D01*
X25288682Y28305529D01*
X25396432Y28197779D01*
X24534435Y29598524D02*
X24972167Y30036257D01*
X25167464Y29369556D01*
X25268479Y29470572D01*
X25389697Y29484040D01*
X25477244Y29463837D01*
X25618665Y29389759D01*
X25888039Y29120385D01*
X25962117Y28978964D01*
X25982320Y28891417D01*
X25968851Y28770199D01*
X25766821Y28568169D01*
X25645603Y28554700D01*
X25558056Y28574903D01*
X25409900Y30473990D02*
X25477244Y30541333D01*
X25598462Y30554802D01*
X25686009Y30534599D01*
X25827430Y30460521D01*
X26076601Y30278694D01*
X26345975Y30009320D01*
X26527802Y29760149D01*
X26601880Y29618727D01*
X26622083Y29531181D01*
X26608615Y29409962D01*
X26541271Y29342619D01*
X26420053Y29329150D01*
X26332506Y29349353D01*
X26191085Y29423431D01*
X25941914Y29605259D01*
X25672540Y29874633D01*
X25490712Y30123803D01*
X25416635Y30265225D01*
X25396432Y30352771D01*
X25409900Y30473990D01*
D11*
X20293500Y42461715D02*
X20217309Y42318858D01*
X20217309Y42104572D01*
X20293500Y41890286D01*
X20445880Y41747429D01*
X20598261Y41676000D01*
X20903023Y41604572D01*
X21131595Y41604572D01*
X21436357Y41676000D01*
X21588738Y41747429D01*
X21741119Y41890286D01*
X21817309Y42104572D01*
X21817309Y42247429D01*
X21741119Y42461715D01*
X21664928Y42533143D01*
X21131595Y42533143D01*
X21131595Y42247429D01*
X21817309Y43176000D02*
X20217309Y43176000D01*
X21817309Y44033143D01*
X20217309Y44033143D01*
X21817309Y44747429D02*
X20217309Y44747429D01*
X20217309Y45104572D01*
X20293500Y45318858D01*
X20445880Y45461715D01*
X20598261Y45533143D01*
X20903023Y45604572D01*
X21131595Y45604572D01*
X21436357Y45533143D01*
X21588738Y45461715D01*
X21741119Y45318858D01*
X21817309Y45104572D01*
X21817309Y44747429D01*
X21360166Y46176000D02*
X21360166Y46890286D01*
X21817309Y46033143D02*
X20217309Y46533143D01*
X21817309Y47033143D01*
X24517309Y43390286D02*
X22917309Y43390286D01*
X22917309Y43747429D01*
X22993500Y43961715D01*
X23145880Y44104572D01*
X23298261Y44176000D01*
X23603023Y44247429D01*
X23831595Y44247429D01*
X24136357Y44176000D01*
X24288738Y44104572D01*
X24441119Y43961715D01*
X24517309Y43747429D01*
X24517309Y43390286D01*
X24669690Y44533143D02*
X24669690Y45676000D01*
X22993500Y46818858D02*
X22917309Y46676000D01*
X22917309Y46461715D01*
X22993500Y46247429D01*
X23145880Y46104572D01*
X23298261Y46033143D01*
X23603023Y45961715D01*
X23831595Y45961715D01*
X24136357Y46033143D01*
X24288738Y46104572D01*
X24441119Y46247429D01*
X24517309Y46461715D01*
X24517309Y46604572D01*
X24441119Y46818858D01*
X24364928Y46890286D01*
X23831595Y46890286D01*
X23831595Y46604572D01*
X27217309Y44247429D02*
X26455404Y43747429D01*
X27217309Y43390286D02*
X25617309Y43390286D01*
X25617309Y43961715D01*
X25693500Y44104572D01*
X25769690Y44176000D01*
X25922071Y44247429D01*
X26150642Y44247429D01*
X26303023Y44176000D01*
X26379214Y44104572D01*
X26455404Y43961715D01*
X26455404Y43390286D01*
X26379214Y44890286D02*
X26379214Y45390286D01*
X27217309Y45604572D02*
X27217309Y44890286D01*
X25617309Y44890286D01*
X25617309Y45604572D01*
X26379214Y46747429D02*
X26379214Y46247429D01*
X27217309Y46247429D02*
X25617309Y46247429D01*
X25617309Y46961715D01*
X29307785Y42390286D02*
X29307785Y43533143D01*
X29917309Y42961715D02*
X28698261Y42961715D01*
X28850642Y44890286D02*
X29917309Y44890286D01*
X28241119Y44533143D02*
X29383976Y44176000D01*
X29383976Y45104572D01*
X29307785Y45676000D02*
X29307785Y46818858D01*
X32007785Y42390286D02*
X32007785Y43533143D01*
X32617309Y42961715D02*
X31398261Y42961715D01*
X31017309Y44104572D02*
X31017309Y45033143D01*
X31626833Y44533143D01*
X31626833Y44747429D01*
X31703023Y44890286D01*
X31779214Y44961715D01*
X31931595Y45033143D01*
X32312547Y45033143D01*
X32464928Y44961715D01*
X32541119Y44890286D01*
X32617309Y44747429D01*
X32617309Y44318858D01*
X32541119Y44176000D01*
X32464928Y44104572D01*
X32007785Y45676000D02*
X32007785Y46818858D01*
X34707785Y42390286D02*
X34707785Y43533143D01*
X35317309Y42961715D02*
X34098261Y42961715D01*
X33869690Y44176000D02*
X33793500Y44247429D01*
X33717309Y44390286D01*
X33717309Y44747429D01*
X33793500Y44890286D01*
X33869690Y44961715D01*
X34022071Y45033143D01*
X34174452Y45033143D01*
X34403023Y44961715D01*
X35317309Y44104572D01*
X35317309Y45033143D01*
X34707785Y45676000D02*
X34707785Y46818858D01*
X37407785Y42390286D02*
X37407785Y43533143D01*
X38017309Y42961715D02*
X36798261Y42961715D01*
X38017309Y45033143D02*
X38017309Y44176000D01*
X38017309Y44604572D02*
X36417309Y44604572D01*
X36645880Y44461715D01*
X36798261Y44318858D01*
X36874452Y44176000D01*
X37407785Y45676000D02*
X37407785Y46818858D01*
X40260166Y41890286D02*
X40260166Y42604572D01*
X40717309Y41747429D02*
X39117309Y42247429D01*
X40717309Y42747429D01*
X39117309Y43033143D02*
X40717309Y43533143D01*
X39117309Y44033143D01*
X40717309Y44533143D02*
X39117309Y44533143D01*
X39117309Y44890286D01*
X39193500Y45104572D01*
X39345880Y45247429D01*
X39498261Y45318858D01*
X39803023Y45390286D01*
X40031595Y45390286D01*
X40336357Y45318858D01*
X40488738Y45247429D01*
X40641119Y45104572D01*
X40717309Y44890286D01*
X40717309Y44533143D01*
X40717309Y46033143D02*
X39117309Y46033143D01*
X39117309Y46390286D01*
X39193500Y46604572D01*
X39345880Y46747429D01*
X39498261Y46818858D01*
X39803023Y46890286D01*
X40031595Y46890286D01*
X40336357Y46818858D01*
X40488738Y46747429D01*
X40641119Y46604572D01*
X40717309Y46390286D01*
X40717309Y46033143D01*
X57618428Y35263829D02*
X57904142Y35263829D01*
X58047000Y35192400D01*
X58189857Y35049543D01*
X58261285Y34763829D01*
X58261285Y34263829D01*
X58189857Y33978115D01*
X58047000Y33835258D01*
X57904142Y33763829D01*
X57618428Y33763829D01*
X57475571Y33835258D01*
X57332714Y33978115D01*
X57261285Y34263829D01*
X57261285Y34763829D01*
X57332714Y35049543D01*
X57475571Y35192400D01*
X57618428Y35263829D01*
X58904142Y33763829D02*
X58904142Y35263829D01*
X59761285Y33763829D01*
X59761285Y35263829D01*
X56889828Y26856429D02*
X57175542Y26856429D01*
X57318400Y26785000D01*
X57461257Y26642143D01*
X57532685Y26356429D01*
X57532685Y25856429D01*
X57461257Y25570715D01*
X57318400Y25427858D01*
X57175542Y25356429D01*
X56889828Y25356429D01*
X56746971Y25427858D01*
X56604114Y25570715D01*
X56532685Y25856429D01*
X56532685Y26356429D01*
X56604114Y26642143D01*
X56746971Y26785000D01*
X56889828Y26856429D01*
X58675542Y26142143D02*
X58175542Y26142143D01*
X58175542Y25356429D02*
X58175542Y26856429D01*
X58889828Y26856429D01*
X59961257Y26142143D02*
X59461257Y26142143D01*
X59461257Y25356429D02*
X59461257Y26856429D01*
X60175542Y26856429D01*
D12*
%TO.C,U6*%
X45133703Y45552611D02*
X45133703Y44052611D01*
X45133703Y45552611D02*
X45133703Y47052611D01*
X48353703Y45552611D02*
X48353703Y44052611D01*
X48353703Y45552611D02*
X48353703Y48477611D01*
%TO.C,U25*%
X20756100Y48906200D02*
X20756100Y50306200D01*
X18436100Y50306200D02*
X18436100Y48406200D01*
%TO.C,Y1*%
X44647600Y16672400D02*
X32047600Y16672400D01*
X44647600Y11572400D02*
X44647600Y16672400D01*
X32047600Y11572400D02*
X44647600Y11572400D01*
%TO.C,U30*%
X30478500Y47735000D02*
X31878500Y47735000D01*
X31878500Y50055000D02*
X29978500Y50055000D01*
%TO.C,U29*%
X36066500Y47798500D02*
X37466500Y47798500D01*
X37466500Y50118500D02*
X35566500Y50118500D01*
%TO.C,U28*%
X24800000Y47740000D02*
X26200000Y47740000D01*
X26200000Y50060000D02*
X24300000Y50060000D01*
%TO.C,U22*%
X23007469Y3688581D02*
X23997419Y4678531D01*
X22356931Y6319019D02*
X21013428Y4975516D01*
%TO.C,U21*%
X12847469Y13848581D02*
X13837419Y14838531D01*
X12196931Y16479019D02*
X10853428Y15135516D01*
%TO.C,U20*%
X17978269Y8717781D02*
X18968219Y9707731D01*
X17327731Y11348219D02*
X15984228Y10004716D01*
%TO.C,U19*%
X20492869Y6228581D02*
X21482819Y7218531D01*
X19842331Y8859019D02*
X18498828Y7515516D01*
%TO.C,U18*%
X15489069Y11410181D02*
X16479019Y12400131D01*
X14838531Y14040619D02*
X13495028Y12697116D01*
%TO.C,U14*%
X13281038Y21761846D02*
X11548626Y23494257D01*
X9731362Y20757754D02*
X11004154Y19484962D01*
%TO.C,U10*%
X54524000Y30618000D02*
X54524000Y28168000D01*
X57744000Y28818000D02*
X57744000Y30618000D01*
%TO.C,U9*%
X51145800Y30592600D02*
X51145800Y28142600D01*
X54365800Y28792600D02*
X54365800Y30592600D01*
D13*
%TO.C,U7*%
X40818000Y29316400D02*
X40818000Y30916400D01*
X30743000Y29316400D02*
X30743000Y23566400D01*
X41393000Y29316400D02*
X41393000Y23566400D01*
X30743000Y29316400D02*
X31393000Y29316400D01*
X30743000Y23566400D02*
X31393000Y23566400D01*
X41393000Y23566400D02*
X40743000Y23566400D01*
X41393000Y29316400D02*
X40818000Y29316400D01*
D12*
%TO.C,R49*%
X22076642Y48347100D02*
X22551158Y48347100D01*
X22076642Y49392100D02*
X22551158Y49392100D01*
%TO.C,R47*%
X43800500Y18652258D02*
X43800500Y18177742D01*
X44845500Y18652258D02*
X44845500Y18177742D01*
%TO.C,R43*%
X12650703Y19384030D02*
X12315170Y19048497D01*
X13389630Y18645103D02*
X13054097Y18309570D01*
%TO.C,R42*%
X8073370Y22607503D02*
X8408903Y22271970D01*
X8812297Y23346430D02*
X9147830Y23010897D01*
%TO.C,R41*%
X9831303Y19206230D02*
X9495770Y18870697D01*
X10570230Y18467303D02*
X10234697Y18131770D01*
%TO.C,R40*%
X8688303Y20323830D02*
X8352770Y19988297D01*
X9427230Y19584903D02*
X9091697Y19249370D01*
%TO.C,R39*%
X7514570Y17451303D02*
X7850103Y17115770D01*
X8253497Y18190230D02*
X8589030Y17854697D01*
%TO.C,R38*%
X48887258Y22522500D02*
X48412742Y22522500D01*
X48887258Y21477500D02*
X48412742Y21477500D01*
%TO.C,R37*%
X40635958Y21236200D02*
X40161442Y21236200D01*
X40635958Y20191200D02*
X40161442Y20191200D01*
%TO.C,R33*%
X17885642Y46645300D02*
X18360158Y46645300D01*
X17885642Y47690300D02*
X18360158Y47690300D01*
%TO.C,R32*%
X16940000Y49754558D02*
X16940000Y49280042D01*
X17985000Y49754558D02*
X17985000Y49280042D01*
%TO.C,R28*%
X44599203Y46712353D02*
X44599203Y47186869D01*
X43554203Y46712353D02*
X43554203Y47186869D01*
%TO.C,R27*%
X49933203Y43918353D02*
X49933203Y44392869D01*
X48888203Y43918353D02*
X48888203Y44392869D01*
%TO.C,P5*%
X8330548Y39675452D02*
X9271000Y40615904D01*
X9271000Y40615904D02*
X10211452Y39675452D01*
X11109478Y38777426D02*
X23724263Y26162641D01*
X21843359Y24281737D02*
X23724263Y26162641D01*
X9228574Y36896522D02*
X21843359Y24281737D01*
X9228574Y36896522D02*
X11109478Y38777426D01*
%TO.C,P4*%
X6450948Y37846652D02*
X7391400Y38787104D01*
X7391400Y38787104D02*
X8331852Y37846652D01*
X9229878Y36948626D02*
X21844663Y24333841D01*
X19963759Y22452937D02*
X21844663Y24333841D01*
X7348974Y35067722D02*
X19963759Y22452937D01*
X7348974Y35067722D02*
X9229878Y36948626D01*
%TO.C,P3*%
X56780000Y2150000D02*
X56780000Y820000D01*
X56780000Y820000D02*
X55450000Y820000D01*
X54180000Y820000D02*
X46500000Y820000D01*
X46500000Y3480000D02*
X46500000Y820000D01*
X54180000Y3480000D02*
X46500000Y3480000D01*
X54180000Y3480000D02*
X54180000Y820000D01*
%TO.C,D2*%
X45239000Y19900000D02*
X45239000Y17615000D01*
X46709000Y19900000D02*
X45239000Y19900000D01*
X46709000Y17615000D02*
X46709000Y19900000D01*
%TO.C,C46*%
X22173320Y49947100D02*
X22454480Y49947100D01*
X22173320Y50967100D02*
X22454480Y50967100D01*
%TO.C,C45*%
X17982320Y45108400D02*
X18263480Y45108400D01*
X17982320Y46128400D02*
X18263480Y46128400D01*
%TO.C,C43*%
X34606620Y17244600D02*
X34887780Y17244600D01*
X34606620Y18264600D02*
X34887780Y18264600D01*
%TO.C,C38*%
X41313980Y18264600D02*
X41032820Y18264600D01*
X41313980Y17244600D02*
X41032820Y17244600D01*
%TO.C,C29*%
X49516420Y31875000D02*
X49797580Y31875000D01*
X49516420Y32895000D02*
X49797580Y32895000D01*
%TO.C,C28*%
X52718580Y32895000D02*
X52437420Y32895000D01*
X52718580Y31875000D02*
X52437420Y31875000D01*
%TO.C,C27*%
X49516420Y30224000D02*
X49797580Y30224000D01*
X49516420Y31244000D02*
X49797580Y31244000D01*
%TO.C,C26*%
X53074180Y27637200D02*
X52793020Y27637200D01*
X53074180Y26617200D02*
X52793020Y26617200D01*
%TO.C,C25*%
X52793020Y25093200D02*
X53074180Y25093200D01*
X52793020Y26113200D02*
X53074180Y26113200D01*
%TO.C,C24*%
X42877200Y29171020D02*
X42877200Y29452180D01*
X41857200Y29171020D02*
X41857200Y29452180D01*
%TO.C,C22*%
X9230070Y23830681D02*
X9428881Y23631870D01*
X9951319Y24551930D02*
X10150130Y24353119D01*
%TO.C,C21*%
X41908000Y21603580D02*
X41908000Y21322420D01*
X42928000Y21603580D02*
X42928000Y21322420D01*
%TO.C,C15*%
X44586705Y44015032D02*
X44586705Y44296192D01*
X43566705Y44015032D02*
X43566705Y44296192D01*
%TO.C,C14*%
X49920705Y46809031D02*
X49920705Y47090191D01*
X48900705Y46809031D02*
X48900705Y47090191D01*
D13*
%TO.C,SW1*%
X38300000Y36000000D02*
X38300000Y41500000D01*
X41300000Y36000000D02*
X38300000Y36000000D01*
X41300000Y41500000D02*
X38300000Y41500000D01*
X41300000Y36000000D02*
X41300000Y41500000D01*
%TO.C,SW2*%
X33900000Y36000000D02*
X33900000Y41500000D01*
X36900000Y36000000D02*
X33900000Y36000000D01*
X36900000Y41500000D02*
X33900000Y41500000D01*
X36900000Y36000000D02*
X36900000Y41500000D01*
%TO.C,SW3*%
X29500000Y36000000D02*
X29500000Y41500000D01*
X32500000Y36000000D02*
X29500000Y36000000D01*
X32500000Y41500000D02*
X29500000Y41500000D01*
X32500000Y36000000D02*
X32500000Y41500000D01*
%TO.C,SW4*%
X25100000Y36000000D02*
X25100000Y41500000D01*
X28100000Y36000000D02*
X25100000Y36000000D01*
X28100000Y41500000D02*
X25100000Y41500000D01*
X28100000Y36000000D02*
X28100000Y41500000D01*
%TO.C,U6*%
X45362380Y49058096D02*
X46171904Y49058096D01*
X46267142Y49105715D01*
X46314761Y49153334D01*
X46362380Y49248572D01*
X46362380Y49439048D01*
X46314761Y49534286D01*
X46267142Y49581905D01*
X46171904Y49629524D01*
X45362380Y49629524D01*
X45362380Y50534286D02*
X45362380Y50343810D01*
X45410000Y50248572D01*
X45457619Y50200953D01*
X45600476Y50105715D01*
X45790952Y50058096D01*
X46171904Y50058096D01*
X46267142Y50105715D01*
X46314761Y50153334D01*
X46362380Y50248572D01*
X46362380Y50439048D01*
X46314761Y50534286D01*
X46267142Y50581905D01*
X46171904Y50629524D01*
X45933809Y50629524D01*
X45838571Y50581905D01*
X45790952Y50534286D01*
X45743333Y50439048D01*
X45743333Y50248572D01*
X45790952Y50153334D01*
X45838571Y50105715D01*
X45933809Y50058096D01*
%TO.C,U25*%
X18832380Y51311905D02*
X19641904Y51311905D01*
X19737142Y51359524D01*
X19784761Y51407143D01*
X19832380Y51502381D01*
X19832380Y51692858D01*
X19784761Y51788096D01*
X19737142Y51835715D01*
X19641904Y51883334D01*
X18832380Y51883334D01*
X18927619Y52311905D02*
X18880000Y52359524D01*
X18832380Y52454762D01*
X18832380Y52692858D01*
X18880000Y52788096D01*
X18927619Y52835715D01*
X19022857Y52883334D01*
X19118095Y52883334D01*
X19260952Y52835715D01*
X19832380Y52264286D01*
X19832380Y52883334D01*
X18832380Y53788096D02*
X18832380Y53311905D01*
X19308571Y53264286D01*
X19260952Y53311905D01*
X19213333Y53407143D01*
X19213333Y53645239D01*
X19260952Y53740477D01*
X19308571Y53788096D01*
X19403809Y53835715D01*
X19641904Y53835715D01*
X19737142Y53788096D01*
X19784761Y53740477D01*
X19832380Y53645239D01*
X19832380Y53407143D01*
X19784761Y53311905D01*
X19737142Y53264286D01*
%TO.C,Y1*%
X37471409Y10596210D02*
X37471409Y10120020D01*
X37138076Y11120020D02*
X37471409Y10596210D01*
X37804742Y11120020D01*
X38661885Y10120020D02*
X38090457Y10120020D01*
X38376171Y10120020D02*
X38376171Y11120020D01*
X38280933Y10977162D01*
X38185695Y10881924D01*
X38090457Y10834305D01*
%TO.C,U30*%
X29940404Y51442620D02*
X29940404Y50633096D01*
X29988023Y50537858D01*
X30035642Y50490239D01*
X30130880Y50442620D01*
X30321357Y50442620D01*
X30416595Y50490239D01*
X30464214Y50537858D01*
X30511833Y50633096D01*
X30511833Y51442620D01*
X30892785Y51442620D02*
X31511833Y51442620D01*
X31178500Y51061667D01*
X31321357Y51061667D01*
X31416595Y51014048D01*
X31464214Y50966429D01*
X31511833Y50871191D01*
X31511833Y50633096D01*
X31464214Y50537858D01*
X31416595Y50490239D01*
X31321357Y50442620D01*
X31035642Y50442620D01*
X30940404Y50490239D01*
X30892785Y50537858D01*
X32130880Y51442620D02*
X32226119Y51442620D01*
X32321357Y51395000D01*
X32368976Y51347381D01*
X32416595Y51252143D01*
X32464214Y51061667D01*
X32464214Y50823572D01*
X32416595Y50633096D01*
X32368976Y50537858D01*
X32321357Y50490239D01*
X32226119Y50442620D01*
X32130880Y50442620D01*
X32035642Y50490239D01*
X31988023Y50537858D01*
X31940404Y50633096D01*
X31892785Y50823572D01*
X31892785Y51061667D01*
X31940404Y51252143D01*
X31988023Y51347381D01*
X32035642Y51395000D01*
X32130880Y51442620D01*
%TO.C,U29*%
X35528404Y51506120D02*
X35528404Y50696596D01*
X35576023Y50601358D01*
X35623642Y50553739D01*
X35718880Y50506120D01*
X35909357Y50506120D01*
X36004595Y50553739D01*
X36052214Y50601358D01*
X36099833Y50696596D01*
X36099833Y51506120D01*
X36528404Y51410881D02*
X36576023Y51458500D01*
X36671261Y51506120D01*
X36909357Y51506120D01*
X37004595Y51458500D01*
X37052214Y51410881D01*
X37099833Y51315643D01*
X37099833Y51220405D01*
X37052214Y51077548D01*
X36480785Y50506120D01*
X37099833Y50506120D01*
X37576023Y50506120D02*
X37766500Y50506120D01*
X37861738Y50553739D01*
X37909357Y50601358D01*
X38004595Y50744215D01*
X38052214Y50934691D01*
X38052214Y51315643D01*
X38004595Y51410881D01*
X37956976Y51458500D01*
X37861738Y51506120D01*
X37671261Y51506120D01*
X37576023Y51458500D01*
X37528404Y51410881D01*
X37480785Y51315643D01*
X37480785Y51077548D01*
X37528404Y50982310D01*
X37576023Y50934691D01*
X37671261Y50887072D01*
X37861738Y50887072D01*
X37956976Y50934691D01*
X38004595Y50982310D01*
X38052214Y51077548D01*
%TO.C,U28*%
X24261904Y51447620D02*
X24261904Y50638096D01*
X24309523Y50542858D01*
X24357142Y50495239D01*
X24452380Y50447620D01*
X24642857Y50447620D01*
X24738095Y50495239D01*
X24785714Y50542858D01*
X24833333Y50638096D01*
X24833333Y51447620D01*
X25261904Y51352381D02*
X25309523Y51400000D01*
X25404761Y51447620D01*
X25642857Y51447620D01*
X25738095Y51400000D01*
X25785714Y51352381D01*
X25833333Y51257143D01*
X25833333Y51161905D01*
X25785714Y51019048D01*
X25214285Y50447620D01*
X25833333Y50447620D01*
X26404761Y51019048D02*
X26309523Y51066667D01*
X26261904Y51114286D01*
X26214285Y51209524D01*
X26214285Y51257143D01*
X26261904Y51352381D01*
X26309523Y51400000D01*
X26404761Y51447620D01*
X26595238Y51447620D01*
X26690476Y51400000D01*
X26738095Y51352381D01*
X26785714Y51257143D01*
X26785714Y51209524D01*
X26738095Y51114286D01*
X26690476Y51066667D01*
X26595238Y51019048D01*
X26404761Y51019048D01*
X26309523Y50971429D01*
X26261904Y50923810D01*
X26214285Y50828572D01*
X26214285Y50638096D01*
X26261904Y50542858D01*
X26309523Y50495239D01*
X26404761Y50447620D01*
X26595238Y50447620D01*
X26690476Y50495239D01*
X26738095Y50542858D01*
X26785714Y50638096D01*
X26785714Y50828572D01*
X26738095Y50923810D01*
X26690476Y50971429D01*
X26595238Y51019048D01*
%TO.C,U22*%
X23597309Y6951760D02*
X24169729Y6379340D01*
X24270744Y6345669D01*
X24338087Y6345669D01*
X24439103Y6379340D01*
X24573790Y6514027D01*
X24607461Y6615043D01*
X24607461Y6682386D01*
X24573790Y6783401D01*
X24001370Y7355821D01*
X24371759Y7591523D02*
X24371759Y7658867D01*
X24405431Y7759882D01*
X24573790Y7928241D01*
X24674805Y7961913D01*
X24742148Y7961913D01*
X24843164Y7928241D01*
X24910507Y7860897D01*
X24977851Y7726210D01*
X24977851Y6918088D01*
X25415583Y7355821D01*
X25045194Y8264958D02*
X25045194Y8332302D01*
X25078866Y8433317D01*
X25247225Y8601676D01*
X25348240Y8635348D01*
X25415583Y8635348D01*
X25516599Y8601676D01*
X25583942Y8534332D01*
X25651286Y8399645D01*
X25651286Y7591523D01*
X26089018Y8029256D01*
%TO.C,U21*%
X13797309Y16721760D02*
X14369729Y16149340D01*
X14470744Y16115669D01*
X14538087Y16115669D01*
X14639103Y16149340D01*
X14773790Y16284027D01*
X14807461Y16385043D01*
X14807461Y16452386D01*
X14773790Y16553401D01*
X14201370Y17125821D01*
X14571759Y17361523D02*
X14571759Y17428867D01*
X14605431Y17529882D01*
X14773790Y17698241D01*
X14874805Y17731913D01*
X14942148Y17731913D01*
X15043164Y17698241D01*
X15110507Y17630897D01*
X15177851Y17496210D01*
X15177851Y16688088D01*
X15615583Y17125821D01*
X16289018Y17799256D02*
X15884957Y17395195D01*
X16086988Y17597226D02*
X15379881Y18304332D01*
X15413553Y18135974D01*
X15413553Y18001287D01*
X15379881Y17900271D01*
%TO.C,U20*%
X18447309Y11901760D02*
X19019729Y11329340D01*
X19120744Y11295669D01*
X19188087Y11295669D01*
X19289103Y11329340D01*
X19423790Y11464027D01*
X19457461Y11565043D01*
X19457461Y11632386D01*
X19423790Y11733401D01*
X18851370Y12305821D01*
X19221759Y12541523D02*
X19221759Y12608867D01*
X19255431Y12709882D01*
X19423790Y12878241D01*
X19524805Y12911913D01*
X19592148Y12911913D01*
X19693164Y12878241D01*
X19760507Y12810897D01*
X19827851Y12676210D01*
X19827851Y11868088D01*
X20265583Y12305821D01*
X19996209Y13450661D02*
X20063553Y13518004D01*
X20164568Y13551676D01*
X20231912Y13551676D01*
X20332927Y13518004D01*
X20501286Y13416989D01*
X20669644Y13248630D01*
X20770660Y13080271D01*
X20804331Y12979256D01*
X20804331Y12911913D01*
X20770660Y12810897D01*
X20703316Y12743554D01*
X20602301Y12709882D01*
X20534957Y12709882D01*
X20433942Y12743554D01*
X20265583Y12844569D01*
X20097225Y13012928D01*
X19996209Y13181287D01*
X19962538Y13282302D01*
X19962538Y13349645D01*
X19996209Y13450661D01*
%TO.C,U19*%
X21167309Y9571760D02*
X21739729Y8999340D01*
X21840744Y8965669D01*
X21908087Y8965669D01*
X22009103Y8999340D01*
X22143790Y9134027D01*
X22177461Y9235043D01*
X22177461Y9302386D01*
X22143790Y9403401D01*
X21571370Y9975821D01*
X22985583Y9975821D02*
X22581522Y9571760D01*
X22783553Y9773791D02*
X22076446Y10480897D01*
X22110118Y10312539D01*
X22110118Y10177852D01*
X22076446Y10076836D01*
X23322301Y10312539D02*
X23456988Y10447226D01*
X23490660Y10548241D01*
X23490660Y10615584D01*
X23456988Y10783943D01*
X23355973Y10952302D01*
X23086599Y11221676D01*
X22985583Y11255348D01*
X22918240Y11255348D01*
X22817225Y11221676D01*
X22682538Y11086989D01*
X22648866Y10985974D01*
X22648866Y10918630D01*
X22682538Y10817615D01*
X22850896Y10649256D01*
X22951912Y10615584D01*
X23019255Y10615584D01*
X23120270Y10649256D01*
X23254957Y10783943D01*
X23288629Y10884958D01*
X23288629Y10952302D01*
X23254957Y11053317D01*
%TO.C,U18*%
X16267309Y14621760D02*
X16839729Y14049340D01*
X16940744Y14015669D01*
X17008087Y14015669D01*
X17109103Y14049340D01*
X17243790Y14184027D01*
X17277461Y14285043D01*
X17277461Y14352386D01*
X17243790Y14453401D01*
X16671370Y15025821D01*
X18085583Y15025821D02*
X17681522Y14621760D01*
X17883553Y14823791D02*
X17176446Y15530897D01*
X17210118Y15362539D01*
X17210118Y15227852D01*
X17176446Y15126836D01*
X18085583Y15833943D02*
X17984568Y15800271D01*
X17917225Y15800271D01*
X17816209Y15833943D01*
X17782538Y15867615D01*
X17748866Y15968630D01*
X17748866Y16035974D01*
X17782538Y16136989D01*
X17917225Y16271676D01*
X18018240Y16305348D01*
X18085583Y16305348D01*
X18186599Y16271676D01*
X18220270Y16238004D01*
X18253942Y16136989D01*
X18253942Y16069645D01*
X18220270Y15968630D01*
X18085583Y15833943D01*
X18051912Y15732928D01*
X18051912Y15665584D01*
X18085583Y15564569D01*
X18220270Y15429882D01*
X18321286Y15396210D01*
X18388629Y15396210D01*
X18489644Y15429882D01*
X18624331Y15564569D01*
X18658003Y15665584D01*
X18658003Y15732928D01*
X18624331Y15833943D01*
X18489644Y15968630D01*
X18388629Y16002302D01*
X18321286Y16002302D01*
X18220270Y15968630D01*
%TO.C,U14*%
X12171759Y24802691D02*
X11599339Y24230271D01*
X11565668Y24129256D01*
X11565668Y24061913D01*
X11599339Y23960897D01*
X11734026Y23826210D01*
X11835042Y23792539D01*
X11902385Y23792539D01*
X12003400Y23826210D01*
X12575820Y24398630D01*
X12575820Y22984417D02*
X12171759Y23388478D01*
X12373790Y23186447D02*
X13080896Y23893554D01*
X12912538Y23859882D01*
X12777851Y23859882D01*
X12676835Y23893554D01*
X13653316Y22849730D02*
X13181912Y22378325D01*
X13754331Y23287462D02*
X13080896Y22950745D01*
X13518629Y22513012D01*
%TO.C,U10*%
X54731904Y32757620D02*
X54731904Y31948096D01*
X54779523Y31852858D01*
X54827142Y31805239D01*
X54922380Y31757620D01*
X55112857Y31757620D01*
X55208095Y31805239D01*
X55255714Y31852858D01*
X55303333Y31948096D01*
X55303333Y32757620D01*
X56303333Y31757620D02*
X55731904Y31757620D01*
X56017619Y31757620D02*
X56017619Y32757620D01*
X55922380Y32614762D01*
X55827142Y32519524D01*
X55731904Y32471905D01*
X56922380Y32757620D02*
X57017619Y32757620D01*
X57112857Y32710000D01*
X57160476Y32662381D01*
X57208095Y32567143D01*
X57255714Y32376667D01*
X57255714Y32138572D01*
X57208095Y31948096D01*
X57160476Y31852858D01*
X57112857Y31805239D01*
X57017619Y31757620D01*
X56922380Y31757620D01*
X56827142Y31805239D01*
X56779523Y31852858D01*
X56731904Y31948096D01*
X56684285Y32138572D01*
X56684285Y32376667D01*
X56731904Y32567143D01*
X56779523Y32662381D01*
X56827142Y32710000D01*
X56922380Y32757620D01*
%TO.C,U9*%
X49238095Y29747620D02*
X49238095Y28938096D01*
X49285714Y28842858D01*
X49333333Y28795239D01*
X49428571Y28747620D01*
X49619047Y28747620D01*
X49714285Y28795239D01*
X49761904Y28842858D01*
X49809523Y28938096D01*
X49809523Y29747620D01*
X50333333Y28747620D02*
X50523809Y28747620D01*
X50619047Y28795239D01*
X50666666Y28842858D01*
X50761904Y28985715D01*
X50809523Y29176191D01*
X50809523Y29557143D01*
X50761904Y29652381D01*
X50714285Y29700000D01*
X50619047Y29747620D01*
X50428571Y29747620D01*
X50333333Y29700000D01*
X50285714Y29652381D01*
X50238095Y29557143D01*
X50238095Y29319048D01*
X50285714Y29223810D01*
X50333333Y29176191D01*
X50428571Y29128572D01*
X50619047Y29128572D01*
X50714285Y29176191D01*
X50761904Y29223810D01*
X50809523Y29319048D01*
%TO.C,U7*%
X41770380Y25679496D02*
X42579904Y25679496D01*
X42675142Y25727115D01*
X42722761Y25774734D01*
X42770380Y25869972D01*
X42770380Y26060448D01*
X42722761Y26155686D01*
X42675142Y26203305D01*
X42579904Y26250924D01*
X41770380Y26250924D01*
X41770380Y26631877D02*
X41770380Y27298543D01*
X42770380Y26869972D01*
%TO.C,R49*%
D14*
X21428571Y47483810D02*
X21261904Y47721905D01*
X21142857Y47483810D02*
X21142857Y47983810D01*
X21333333Y47983810D01*
X21380952Y47960000D01*
X21404761Y47936191D01*
X21428571Y47888572D01*
X21428571Y47817143D01*
X21404761Y47769524D01*
X21380952Y47745715D01*
X21333333Y47721905D01*
X21142857Y47721905D01*
X21857142Y47817143D02*
X21857142Y47483810D01*
X21738095Y48007620D02*
X21619047Y47650477D01*
X21928571Y47650477D01*
X22142857Y47483810D02*
X22238095Y47483810D01*
X22285714Y47507620D01*
X22309523Y47531429D01*
X22357142Y47602858D01*
X22380952Y47698096D01*
X22380952Y47888572D01*
X22357142Y47936191D01*
X22333333Y47960000D01*
X22285714Y47983810D01*
X22190476Y47983810D01*
X22142857Y47960000D01*
X22119047Y47936191D01*
X22095238Y47888572D01*
X22095238Y47769524D01*
X22119047Y47721905D01*
X22142857Y47698096D01*
X22190476Y47674286D01*
X22285714Y47674286D01*
X22333333Y47698096D01*
X22357142Y47721905D01*
X22380952Y47769524D01*
%TO.C,R47*%
D13*
X45572380Y20787143D02*
X45096190Y20453810D01*
X45572380Y20215715D02*
X44572380Y20215715D01*
X44572380Y20596667D01*
X44620000Y20691905D01*
X44667619Y20739524D01*
X44762857Y20787143D01*
X44905714Y20787143D01*
X45000952Y20739524D01*
X45048571Y20691905D01*
X45096190Y20596667D01*
X45096190Y20215715D01*
X44905714Y21644286D02*
X45572380Y21644286D01*
X44524761Y21406191D02*
X45239047Y21168096D01*
X45239047Y21787143D01*
X44572380Y22072858D02*
X44572380Y22739524D01*
X45572380Y22310953D01*
%TO.C,R43*%
X13728875Y17061187D02*
X13156456Y17162202D01*
X13324814Y16657126D02*
X12617708Y17364233D01*
X12887082Y17633607D01*
X12988097Y17667279D01*
X13055440Y17667279D01*
X13156456Y17633607D01*
X13257471Y17532592D01*
X13291143Y17431576D01*
X13291143Y17364233D01*
X13257471Y17263218D01*
X12988097Y16993844D01*
X13863563Y18138683D02*
X14334967Y17667279D01*
X13425830Y18239699D02*
X13762547Y17566263D01*
X14200280Y18003996D01*
X13930906Y18677431D02*
X14368639Y19115164D01*
X14402311Y18610088D01*
X14503326Y18711103D01*
X14604341Y18744775D01*
X14671685Y18744775D01*
X14772700Y18711103D01*
X14941059Y18542744D01*
X14974730Y18441729D01*
X14974730Y18374386D01*
X14941059Y18273370D01*
X14739028Y18071340D01*
X14638013Y18037668D01*
X14570669Y18037668D01*
%TO.C,R42*%
X5635549Y25064688D02*
X5736564Y25637107D01*
X5231488Y25468749D02*
X5938595Y26175855D01*
X6207969Y25906481D01*
X6241641Y25805466D01*
X6241641Y25738123D01*
X6207969Y25637107D01*
X6106954Y25536092D01*
X6005938Y25502420D01*
X5938595Y25502420D01*
X5837580Y25536092D01*
X5568206Y25805466D01*
X6713045Y24930000D02*
X6241641Y24458596D01*
X6814061Y25367733D02*
X6140625Y25031016D01*
X6578358Y24593283D01*
X7218122Y24761642D02*
X7285465Y24761642D01*
X7386480Y24727970D01*
X7554839Y24559611D01*
X7588511Y24458596D01*
X7588511Y24391252D01*
X7554839Y24290237D01*
X7487496Y24222894D01*
X7352809Y24155550D01*
X6544687Y24155550D01*
X6982419Y23717817D01*
%TO.C,R41*%
X10425312Y16385550D02*
X9852893Y16486565D01*
X10021251Y15981489D02*
X9314145Y16688596D01*
X9583519Y16957970D01*
X9684534Y16991642D01*
X9751877Y16991642D01*
X9852893Y16957970D01*
X9953908Y16856955D01*
X9987580Y16755939D01*
X9987580Y16688596D01*
X9953908Y16587581D01*
X9684534Y16318207D01*
X10560000Y17463046D02*
X11031404Y16991642D01*
X10122267Y17564062D02*
X10458984Y16890626D01*
X10896717Y17328359D01*
X11772183Y17732420D02*
X11368122Y17328359D01*
X11570152Y17530390D02*
X10863045Y18237497D01*
X10896717Y18069138D01*
X10896717Y17934451D01*
X10863045Y17833436D01*
%TO.C,R40*%
X7425312Y19595550D02*
X6852893Y19696565D01*
X7021251Y19191489D02*
X6314145Y19898596D01*
X6583519Y20167970D01*
X6684534Y20201642D01*
X6751877Y20201642D01*
X6852893Y20167970D01*
X6953908Y20066955D01*
X6987580Y19965939D01*
X6987580Y19898596D01*
X6953908Y19797581D01*
X6684534Y19528207D01*
X7560000Y20673046D02*
X8031404Y20201642D01*
X7122267Y20774062D02*
X7458984Y20100626D01*
X7896717Y20538359D01*
X7829374Y21413825D02*
X7896717Y21481168D01*
X7997732Y21514840D01*
X8065076Y21514840D01*
X8166091Y21481168D01*
X8334450Y21380153D01*
X8502809Y21211794D01*
X8603824Y21043436D01*
X8637496Y20942420D01*
X8637496Y20875077D01*
X8603824Y20774062D01*
X8536480Y20706718D01*
X8435465Y20673046D01*
X8368122Y20673046D01*
X8267106Y20706718D01*
X8098748Y20807733D01*
X7930389Y20976092D01*
X7829374Y21144451D01*
X7795702Y21245466D01*
X7795702Y21312810D01*
X7829374Y21413825D01*
%TO.C,R39*%
X5405549Y17524688D02*
X5506564Y18097107D01*
X5001488Y17928749D02*
X5708595Y18635855D01*
X5977969Y18366481D01*
X6011641Y18265466D01*
X6011641Y18198123D01*
X5977969Y18097107D01*
X5876954Y17996092D01*
X5775938Y17962420D01*
X5708595Y17962420D01*
X5607580Y17996092D01*
X5338206Y18265466D01*
X6348358Y17996092D02*
X6786091Y17558359D01*
X6281015Y17524688D01*
X6382030Y17423672D01*
X6415702Y17322657D01*
X6415702Y17255313D01*
X6382030Y17154298D01*
X6213671Y16985939D01*
X6112656Y16952268D01*
X6045312Y16952268D01*
X5944297Y16985939D01*
X5742267Y17187970D01*
X5708595Y17288985D01*
X5708595Y17356329D01*
X6415702Y16514535D02*
X6550389Y16379848D01*
X6651404Y16346176D01*
X6718748Y16346176D01*
X6887106Y16379848D01*
X7055465Y16480863D01*
X7324839Y16750237D01*
X7358511Y16851252D01*
X7358511Y16918596D01*
X7324839Y17019611D01*
X7190152Y17154298D01*
X7089137Y17187970D01*
X7021793Y17187970D01*
X6920778Y17154298D01*
X6752419Y16985939D01*
X6718748Y16884924D01*
X6718748Y16817581D01*
X6752419Y16716565D01*
X6887106Y16581878D01*
X6988122Y16548207D01*
X7055465Y16548207D01*
X7156480Y16581878D01*
%TO.C,R38*%
X48007142Y20117620D02*
X47673809Y20593810D01*
X47435714Y20117620D02*
X47435714Y21117620D01*
X47816666Y21117620D01*
X47911904Y21070000D01*
X47959523Y21022381D01*
X48007142Y20927143D01*
X48007142Y20784286D01*
X47959523Y20689048D01*
X47911904Y20641429D01*
X47816666Y20593810D01*
X47435714Y20593810D01*
X48340476Y21117620D02*
X48959523Y21117620D01*
X48626190Y20736667D01*
X48769047Y20736667D01*
X48864285Y20689048D01*
X48911904Y20641429D01*
X48959523Y20546191D01*
X48959523Y20308096D01*
X48911904Y20212858D01*
X48864285Y20165239D01*
X48769047Y20117620D01*
X48483333Y20117620D01*
X48388095Y20165239D01*
X48340476Y20212858D01*
X49530952Y20689048D02*
X49435714Y20736667D01*
X49388095Y20784286D01*
X49340476Y20879524D01*
X49340476Y20927143D01*
X49388095Y21022381D01*
X49435714Y21070000D01*
X49530952Y21117620D01*
X49721428Y21117620D01*
X49816666Y21070000D01*
X49864285Y21022381D01*
X49911904Y20927143D01*
X49911904Y20879524D01*
X49864285Y20784286D01*
X49816666Y20736667D01*
X49721428Y20689048D01*
X49530952Y20689048D01*
X49435714Y20641429D01*
X49388095Y20593810D01*
X49340476Y20498572D01*
X49340476Y20308096D01*
X49388095Y20212858D01*
X49435714Y20165239D01*
X49530952Y20117620D01*
X49721428Y20117620D01*
X49816666Y20165239D01*
X49864285Y20212858D01*
X49911904Y20308096D01*
X49911904Y20498572D01*
X49864285Y20593810D01*
X49816666Y20641429D01*
X49721428Y20689048D01*
%TO.C,R37*%
X39755842Y18831320D02*
X39422509Y19307510D01*
X39184414Y18831320D02*
X39184414Y19831320D01*
X39565366Y19831320D01*
X39660604Y19783700D01*
X39708223Y19736081D01*
X39755842Y19640843D01*
X39755842Y19497986D01*
X39708223Y19402748D01*
X39660604Y19355129D01*
X39565366Y19307510D01*
X39184414Y19307510D01*
X40089176Y19831320D02*
X40708223Y19831320D01*
X40374890Y19450367D01*
X40517747Y19450367D01*
X40612985Y19402748D01*
X40660604Y19355129D01*
X40708223Y19259891D01*
X40708223Y19021796D01*
X40660604Y18926558D01*
X40612985Y18878939D01*
X40517747Y18831320D01*
X40232033Y18831320D01*
X40136795Y18878939D01*
X40089176Y18926558D01*
X41041557Y19831320D02*
X41708223Y19831320D01*
X41279652Y18831320D01*
%TO.C,R33*%
X14357142Y46707620D02*
X14023809Y47183810D01*
X13785714Y46707620D02*
X13785714Y47707620D01*
X14166666Y47707620D01*
X14261904Y47660000D01*
X14309523Y47612381D01*
X14357142Y47517143D01*
X14357142Y47374286D01*
X14309523Y47279048D01*
X14261904Y47231429D01*
X14166666Y47183810D01*
X13785714Y47183810D01*
X14690476Y47707620D02*
X15309523Y47707620D01*
X14976190Y47326667D01*
X15119047Y47326667D01*
X15214285Y47279048D01*
X15261904Y47231429D01*
X15309523Y47136191D01*
X15309523Y46898096D01*
X15261904Y46802858D01*
X15214285Y46755239D01*
X15119047Y46707620D01*
X14833333Y46707620D01*
X14738095Y46755239D01*
X14690476Y46802858D01*
X15642857Y47707620D02*
X16261904Y47707620D01*
X15928571Y47326667D01*
X16071428Y47326667D01*
X16166666Y47279048D01*
X16214285Y47231429D01*
X16261904Y47136191D01*
X16261904Y46898096D01*
X16214285Y46802858D01*
X16166666Y46755239D01*
X16071428Y46707620D01*
X15785714Y46707620D01*
X15690476Y46755239D01*
X15642857Y46802858D01*
%TO.C,R32*%
X17912380Y51757143D02*
X17436190Y51423810D01*
X17912380Y51185715D02*
X16912380Y51185715D01*
X16912380Y51566667D01*
X16960000Y51661905D01*
X17007619Y51709524D01*
X17102857Y51757143D01*
X17245714Y51757143D01*
X17340952Y51709524D01*
X17388571Y51661905D01*
X17436190Y51566667D01*
X17436190Y51185715D01*
X16912380Y52090477D02*
X16912380Y52709524D01*
X17293333Y52376191D01*
X17293333Y52519048D01*
X17340952Y52614286D01*
X17388571Y52661905D01*
X17483809Y52709524D01*
X17721904Y52709524D01*
X17817142Y52661905D01*
X17864761Y52614286D01*
X17912380Y52519048D01*
X17912380Y52233334D01*
X17864761Y52138096D01*
X17817142Y52090477D01*
X17007619Y53090477D02*
X16960000Y53138096D01*
X16912380Y53233334D01*
X16912380Y53471429D01*
X16960000Y53566667D01*
X17007619Y53614286D01*
X17102857Y53661905D01*
X17198095Y53661905D01*
X17340952Y53614286D01*
X17912380Y53042858D01*
X17912380Y53661905D01*
%TO.C,R28*%
X43062380Y46907143D02*
X42586190Y46573810D01*
X43062380Y46335715D02*
X42062380Y46335715D01*
X42062380Y46716667D01*
X42110000Y46811905D01*
X42157619Y46859524D01*
X42252857Y46907143D01*
X42395714Y46907143D01*
X42490952Y46859524D01*
X42538571Y46811905D01*
X42586190Y46716667D01*
X42586190Y46335715D01*
X42157619Y47288096D02*
X42110000Y47335715D01*
X42062380Y47430953D01*
X42062380Y47669048D01*
X42110000Y47764286D01*
X42157619Y47811905D01*
X42252857Y47859524D01*
X42348095Y47859524D01*
X42490952Y47811905D01*
X43062380Y47240477D01*
X43062380Y47859524D01*
X42490952Y48430953D02*
X42443333Y48335715D01*
X42395714Y48288096D01*
X42300476Y48240477D01*
X42252857Y48240477D01*
X42157619Y48288096D01*
X42110000Y48335715D01*
X42062380Y48430953D01*
X42062380Y48621429D01*
X42110000Y48716667D01*
X42157619Y48764286D01*
X42252857Y48811905D01*
X42300476Y48811905D01*
X42395714Y48764286D01*
X42443333Y48716667D01*
X42490952Y48621429D01*
X42490952Y48430953D01*
X42538571Y48335715D01*
X42586190Y48288096D01*
X42681428Y48240477D01*
X42871904Y48240477D01*
X42967142Y48288096D01*
X43014761Y48335715D01*
X43062380Y48430953D01*
X43062380Y48621429D01*
X43014761Y48716667D01*
X42967142Y48764286D01*
X42871904Y48811905D01*
X42681428Y48811905D01*
X42586190Y48764286D01*
X42538571Y48716667D01*
X42490952Y48621429D01*
%TO.C,R27*%
X51322380Y43357143D02*
X50846190Y43023810D01*
X51322380Y42785715D02*
X50322380Y42785715D01*
X50322380Y43166667D01*
X50370000Y43261905D01*
X50417619Y43309524D01*
X50512857Y43357143D01*
X50655714Y43357143D01*
X50750952Y43309524D01*
X50798571Y43261905D01*
X50846190Y43166667D01*
X50846190Y42785715D01*
X50417619Y43738096D02*
X50370000Y43785715D01*
X50322380Y43880953D01*
X50322380Y44119048D01*
X50370000Y44214286D01*
X50417619Y44261905D01*
X50512857Y44309524D01*
X50608095Y44309524D01*
X50750952Y44261905D01*
X51322380Y43690477D01*
X51322380Y44309524D01*
X50322380Y44642858D02*
X50322380Y45309524D01*
X51322380Y44880953D01*
%TO.C,P5*%
X7110283Y39851893D02*
X6403176Y40558999D01*
X6672550Y40828374D01*
X6773565Y40862045D01*
X6840909Y40862045D01*
X6941924Y40828374D01*
X7042939Y40727358D01*
X7076611Y40626343D01*
X7076611Y40558999D01*
X7042939Y40457984D01*
X6773565Y40188610D01*
X7447001Y41602824D02*
X7110283Y41266106D01*
X7413329Y40895717D01*
X7413329Y40963061D01*
X7447001Y41064076D01*
X7615359Y41232435D01*
X7716375Y41266106D01*
X7783718Y41266106D01*
X7884733Y41232435D01*
X8053092Y41064076D01*
X8086764Y40963061D01*
X8086764Y40895717D01*
X8053092Y40794702D01*
X7884733Y40626343D01*
X7783718Y40592671D01*
X7716375Y40592671D01*
%TO.C,P4*%
X5230683Y38023093D02*
X4523576Y38730199D01*
X4792950Y38999574D01*
X4893965Y39033245D01*
X4961309Y39033245D01*
X5062324Y38999574D01*
X5163339Y38898558D01*
X5197011Y38797543D01*
X5197011Y38730199D01*
X5163339Y38629184D01*
X4893965Y38359810D01*
X5769431Y39504650D02*
X6240836Y39033245D01*
X5331698Y39605665D02*
X5668416Y38932230D01*
X6106149Y39369963D01*
%TO.C,P3*%
X58672380Y1411905D02*
X57672380Y1411905D01*
X57672380Y1792858D01*
X57720000Y1888096D01*
X57767619Y1935715D01*
X57862857Y1983334D01*
X58005714Y1983334D01*
X58100952Y1935715D01*
X58148571Y1888096D01*
X58196190Y1792858D01*
X58196190Y1411905D01*
X57672380Y2316667D02*
X57672380Y2935715D01*
X58053333Y2602381D01*
X58053333Y2745239D01*
X58100952Y2840477D01*
X58148571Y2888096D01*
X58243809Y2935715D01*
X58481904Y2935715D01*
X58577142Y2888096D01*
X58624761Y2840477D01*
X58672380Y2745239D01*
X58672380Y2459524D01*
X58624761Y2364286D01*
X58577142Y2316667D01*
%TO.C,D2*%
X47856380Y17676905D02*
X46856380Y17676905D01*
X46856380Y17915000D01*
X46904000Y18057858D01*
X46999238Y18153096D01*
X47094476Y18200715D01*
X47284952Y18248334D01*
X47427809Y18248334D01*
X47618285Y18200715D01*
X47713523Y18153096D01*
X47808761Y18057858D01*
X47856380Y17915000D01*
X47856380Y17676905D01*
X46951619Y18629286D02*
X46904000Y18676905D01*
X46856380Y18772143D01*
X46856380Y19010239D01*
X46904000Y19105477D01*
X46951619Y19153096D01*
X47046857Y19200715D01*
X47142095Y19200715D01*
X47284952Y19153096D01*
X47856380Y18581667D01*
X47856380Y19200715D01*
%TO.C,C46*%
D14*
X22558571Y51291429D02*
X22534761Y51267620D01*
X22463333Y51243810D01*
X22415714Y51243810D01*
X22344285Y51267620D01*
X22296666Y51315239D01*
X22272857Y51362858D01*
X22249047Y51458096D01*
X22249047Y51529524D01*
X22272857Y51624762D01*
X22296666Y51672381D01*
X22344285Y51720000D01*
X22415714Y51743810D01*
X22463333Y51743810D01*
X22534761Y51720000D01*
X22558571Y51696191D01*
X22987142Y51577143D02*
X22987142Y51243810D01*
X22868095Y51767620D02*
X22749047Y51410477D01*
X23058571Y51410477D01*
X23463333Y51743810D02*
X23368095Y51743810D01*
X23320476Y51720000D01*
X23296666Y51696191D01*
X23249047Y51624762D01*
X23225238Y51529524D01*
X23225238Y51339048D01*
X23249047Y51291429D01*
X23272857Y51267620D01*
X23320476Y51243810D01*
X23415714Y51243810D01*
X23463333Y51267620D01*
X23487142Y51291429D01*
X23510952Y51339048D01*
X23510952Y51458096D01*
X23487142Y51505715D01*
X23463333Y51529524D01*
X23415714Y51553334D01*
X23320476Y51553334D01*
X23272857Y51529524D01*
X23249047Y51505715D01*
X23225238Y51458096D01*
%TO.C,C45*%
D13*
X14287142Y45162858D02*
X14239523Y45115239D01*
X14096666Y45067620D01*
X14001428Y45067620D01*
X13858571Y45115239D01*
X13763333Y45210477D01*
X13715714Y45305715D01*
X13668095Y45496191D01*
X13668095Y45639048D01*
X13715714Y45829524D01*
X13763333Y45924762D01*
X13858571Y46020000D01*
X14001428Y46067620D01*
X14096666Y46067620D01*
X14239523Y46020000D01*
X14287142Y45972381D01*
X15144285Y45734286D02*
X15144285Y45067620D01*
X14906190Y46115239D02*
X14668095Y45400953D01*
X15287142Y45400953D01*
X16144285Y46067620D02*
X15668095Y46067620D01*
X15620476Y45591429D01*
X15668095Y45639048D01*
X15763333Y45686667D01*
X16001428Y45686667D01*
X16096666Y45639048D01*
X16144285Y45591429D01*
X16191904Y45496191D01*
X16191904Y45258096D01*
X16144285Y45162858D01*
X16096666Y45115239D01*
X16001428Y45067620D01*
X15763333Y45067620D01*
X15668095Y45115239D01*
X15620476Y45162858D01*
%TO.C,C43*%
X32417142Y18812858D02*
X32369523Y18765239D01*
X32226666Y18717620D01*
X32131428Y18717620D01*
X31988571Y18765239D01*
X31893333Y18860477D01*
X31845714Y18955715D01*
X31798095Y19146191D01*
X31798095Y19289048D01*
X31845714Y19479524D01*
X31893333Y19574762D01*
X31988571Y19670000D01*
X32131428Y19717620D01*
X32226666Y19717620D01*
X32369523Y19670000D01*
X32417142Y19622381D01*
X33274285Y19384286D02*
X33274285Y18717620D01*
X33036190Y19765239D02*
X32798095Y19050953D01*
X33417142Y19050953D01*
X33702857Y19717620D02*
X34321904Y19717620D01*
X33988571Y19336667D01*
X34131428Y19336667D01*
X34226666Y19289048D01*
X34274285Y19241429D01*
X34321904Y19146191D01*
X34321904Y18908096D01*
X34274285Y18812858D01*
X34226666Y18765239D01*
X34131428Y18717620D01*
X33845714Y18717620D01*
X33750476Y18765239D01*
X33702857Y18812858D01*
%TO.C,C38*%
X40530542Y15967458D02*
X40482923Y15919839D01*
X40340066Y15872220D01*
X40244828Y15872220D01*
X40101971Y15919839D01*
X40006733Y16015077D01*
X39959114Y16110315D01*
X39911495Y16300791D01*
X39911495Y16443648D01*
X39959114Y16634124D01*
X40006733Y16729362D01*
X40101971Y16824600D01*
X40244828Y16872220D01*
X40340066Y16872220D01*
X40482923Y16824600D01*
X40530542Y16776981D01*
X40863876Y16872220D02*
X41482923Y16872220D01*
X41149590Y16491267D01*
X41292447Y16491267D01*
X41387685Y16443648D01*
X41435304Y16396029D01*
X41482923Y16300791D01*
X41482923Y16062696D01*
X41435304Y15967458D01*
X41387685Y15919839D01*
X41292447Y15872220D01*
X41006733Y15872220D01*
X40911495Y15919839D01*
X40863876Y15967458D01*
X42054352Y16443648D02*
X41959114Y16491267D01*
X41911495Y16538886D01*
X41863876Y16634124D01*
X41863876Y16681743D01*
X41911495Y16776981D01*
X41959114Y16824600D01*
X42054352Y16872220D01*
X42244828Y16872220D01*
X42340066Y16824600D01*
X42387685Y16776981D01*
X42435304Y16681743D01*
X42435304Y16634124D01*
X42387685Y16538886D01*
X42340066Y16491267D01*
X42244828Y16443648D01*
X42054352Y16443648D01*
X41959114Y16396029D01*
X41911495Y16348410D01*
X41863876Y16253172D01*
X41863876Y16062696D01*
X41911495Y15967458D01*
X41959114Y15919839D01*
X42054352Y15872220D01*
X42244828Y15872220D01*
X42340066Y15919839D01*
X42387685Y15967458D01*
X42435304Y16062696D01*
X42435304Y16253172D01*
X42387685Y16348410D01*
X42340066Y16396029D01*
X42244828Y16443648D01*
%TO.C,C29*%
X49014142Y33457858D02*
X48966523Y33410239D01*
X48823666Y33362620D01*
X48728428Y33362620D01*
X48585571Y33410239D01*
X48490333Y33505477D01*
X48442714Y33600715D01*
X48395095Y33791191D01*
X48395095Y33934048D01*
X48442714Y34124524D01*
X48490333Y34219762D01*
X48585571Y34315000D01*
X48728428Y34362620D01*
X48823666Y34362620D01*
X48966523Y34315000D01*
X49014142Y34267381D01*
X49395095Y34267381D02*
X49442714Y34315000D01*
X49537952Y34362620D01*
X49776047Y34362620D01*
X49871285Y34315000D01*
X49918904Y34267381D01*
X49966523Y34172143D01*
X49966523Y34076905D01*
X49918904Y33934048D01*
X49347476Y33362620D01*
X49966523Y33362620D01*
X50442714Y33362620D02*
X50633190Y33362620D01*
X50728428Y33410239D01*
X50776047Y33457858D01*
X50871285Y33600715D01*
X50918904Y33791191D01*
X50918904Y34172143D01*
X50871285Y34267381D01*
X50823666Y34315000D01*
X50728428Y34362620D01*
X50537952Y34362620D01*
X50442714Y34315000D01*
X50395095Y34267381D01*
X50347476Y34172143D01*
X50347476Y33934048D01*
X50395095Y33838810D01*
X50442714Y33791191D01*
X50537952Y33743572D01*
X50728428Y33743572D01*
X50823666Y33791191D01*
X50871285Y33838810D01*
X50918904Y33934048D01*
%TO.C,C28*%
X51957142Y33442858D02*
X51909523Y33395239D01*
X51766666Y33347620D01*
X51671428Y33347620D01*
X51528571Y33395239D01*
X51433333Y33490477D01*
X51385714Y33585715D01*
X51338095Y33776191D01*
X51338095Y33919048D01*
X51385714Y34109524D01*
X51433333Y34204762D01*
X51528571Y34300000D01*
X51671428Y34347620D01*
X51766666Y34347620D01*
X51909523Y34300000D01*
X51957142Y34252381D01*
X52338095Y34252381D02*
X52385714Y34300000D01*
X52480952Y34347620D01*
X52719047Y34347620D01*
X52814285Y34300000D01*
X52861904Y34252381D01*
X52909523Y34157143D01*
X52909523Y34061905D01*
X52861904Y33919048D01*
X52290476Y33347620D01*
X52909523Y33347620D01*
X53480952Y33919048D02*
X53385714Y33966667D01*
X53338095Y34014286D01*
X53290476Y34109524D01*
X53290476Y34157143D01*
X53338095Y34252381D01*
X53385714Y34300000D01*
X53480952Y34347620D01*
X53671428Y34347620D01*
X53766666Y34300000D01*
X53814285Y34252381D01*
X53861904Y34157143D01*
X53861904Y34109524D01*
X53814285Y34014286D01*
X53766666Y33966667D01*
X53671428Y33919048D01*
X53480952Y33919048D01*
X53385714Y33871429D01*
X53338095Y33823810D01*
X53290476Y33728572D01*
X53290476Y33538096D01*
X53338095Y33442858D01*
X53385714Y33395239D01*
X53480952Y33347620D01*
X53671428Y33347620D01*
X53766666Y33395239D01*
X53814285Y33442858D01*
X53861904Y33538096D01*
X53861904Y33728572D01*
X53814285Y33823810D01*
X53766666Y33871429D01*
X53671428Y33919048D01*
%TO.C,C27*%
X45957142Y30242858D02*
X45909523Y30195239D01*
X45766666Y30147620D01*
X45671428Y30147620D01*
X45528571Y30195239D01*
X45433333Y30290477D01*
X45385714Y30385715D01*
X45338095Y30576191D01*
X45338095Y30719048D01*
X45385714Y30909524D01*
X45433333Y31004762D01*
X45528571Y31100000D01*
X45671428Y31147620D01*
X45766666Y31147620D01*
X45909523Y31100000D01*
X45957142Y31052381D01*
X46338095Y31052381D02*
X46385714Y31100000D01*
X46480952Y31147620D01*
X46719047Y31147620D01*
X46814285Y31100000D01*
X46861904Y31052381D01*
X46909523Y30957143D01*
X46909523Y30861905D01*
X46861904Y30719048D01*
X46290476Y30147620D01*
X46909523Y30147620D01*
X47242857Y31147620D02*
X47909523Y31147620D01*
X47480952Y30147620D01*
%TO.C,C26*%
X51257142Y23642858D02*
X51209523Y23595239D01*
X51066666Y23547620D01*
X50971428Y23547620D01*
X50828571Y23595239D01*
X50733333Y23690477D01*
X50685714Y23785715D01*
X50638095Y23976191D01*
X50638095Y24119048D01*
X50685714Y24309524D01*
X50733333Y24404762D01*
X50828571Y24500000D01*
X50971428Y24547620D01*
X51066666Y24547620D01*
X51209523Y24500000D01*
X51257142Y24452381D01*
X51638095Y24452381D02*
X51685714Y24500000D01*
X51780952Y24547620D01*
X52019047Y24547620D01*
X52114285Y24500000D01*
X52161904Y24452381D01*
X52209523Y24357143D01*
X52209523Y24261905D01*
X52161904Y24119048D01*
X51590476Y23547620D01*
X52209523Y23547620D01*
X53066666Y24547620D02*
X52876190Y24547620D01*
X52780952Y24500000D01*
X52733333Y24452381D01*
X52638095Y24309524D01*
X52590476Y24119048D01*
X52590476Y23738096D01*
X52638095Y23642858D01*
X52685714Y23595239D01*
X52780952Y23547620D01*
X52971428Y23547620D01*
X53066666Y23595239D01*
X53114285Y23642858D01*
X53161904Y23738096D01*
X53161904Y23976191D01*
X53114285Y24071429D01*
X53066666Y24119048D01*
X52971428Y24166667D01*
X52780952Y24166667D01*
X52685714Y24119048D01*
X52638095Y24071429D01*
X52590476Y23976191D01*
%TO.C,C25*%
X49157142Y26142858D02*
X49109523Y26095239D01*
X48966666Y26047620D01*
X48871428Y26047620D01*
X48728571Y26095239D01*
X48633333Y26190477D01*
X48585714Y26285715D01*
X48538095Y26476191D01*
X48538095Y26619048D01*
X48585714Y26809524D01*
X48633333Y26904762D01*
X48728571Y27000000D01*
X48871428Y27047620D01*
X48966666Y27047620D01*
X49109523Y27000000D01*
X49157142Y26952381D01*
X49538095Y26952381D02*
X49585714Y27000000D01*
X49680952Y27047620D01*
X49919047Y27047620D01*
X50014285Y27000000D01*
X50061904Y26952381D01*
X50109523Y26857143D01*
X50109523Y26761905D01*
X50061904Y26619048D01*
X49490476Y26047620D01*
X50109523Y26047620D01*
X51014285Y27047620D02*
X50538095Y27047620D01*
X50490476Y26571429D01*
X50538095Y26619048D01*
X50633333Y26666667D01*
X50871428Y26666667D01*
X50966666Y26619048D01*
X51014285Y26571429D01*
X51061904Y26476191D01*
X51061904Y26238096D01*
X51014285Y26142858D01*
X50966666Y26095239D01*
X50871428Y26047620D01*
X50633333Y26047620D01*
X50538095Y26095239D01*
X50490476Y26142858D01*
%TO.C,C24*%
X44317142Y28647143D02*
X44364761Y28599524D01*
X44412380Y28456667D01*
X44412380Y28361429D01*
X44364761Y28218572D01*
X44269523Y28123334D01*
X44174285Y28075715D01*
X43983809Y28028096D01*
X43840952Y28028096D01*
X43650476Y28075715D01*
X43555238Y28123334D01*
X43460000Y28218572D01*
X43412380Y28361429D01*
X43412380Y28456667D01*
X43460000Y28599524D01*
X43507619Y28647143D01*
X43507619Y29028096D02*
X43460000Y29075715D01*
X43412380Y29170953D01*
X43412380Y29409048D01*
X43460000Y29504286D01*
X43507619Y29551905D01*
X43602857Y29599524D01*
X43698095Y29599524D01*
X43840952Y29551905D01*
X44412380Y28980477D01*
X44412380Y29599524D01*
X43745714Y30456667D02*
X44412380Y30456667D01*
X43364761Y30218572D02*
X44079047Y29980477D01*
X44079047Y30599524D01*
%TO.C,C22*%
X6922893Y26522031D02*
X6855549Y26522031D01*
X6720862Y26589375D01*
X6653519Y26656718D01*
X6586175Y26791405D01*
X6586175Y26926092D01*
X6619847Y27027107D01*
X6720862Y27195466D01*
X6821877Y27296481D01*
X6990236Y27397497D01*
X7091251Y27431168D01*
X7225938Y27431168D01*
X7360625Y27363825D01*
X7427969Y27296481D01*
X7495312Y27161794D01*
X7495312Y27094451D01*
X7764687Y26825077D02*
X7832030Y26825077D01*
X7933045Y26791405D01*
X8101404Y26623046D01*
X8135076Y26522031D01*
X8135076Y26454688D01*
X8101404Y26353672D01*
X8034061Y26286329D01*
X7899374Y26218985D01*
X7091251Y26218985D01*
X7528984Y25781252D01*
X8438122Y26151642D02*
X8505465Y26151642D01*
X8606480Y26117970D01*
X8774839Y25949611D01*
X8808511Y25848596D01*
X8808511Y25781252D01*
X8774839Y25680237D01*
X8707496Y25612894D01*
X8572809Y25545550D01*
X7764687Y25545550D01*
X8202419Y25107817D01*
%TO.C,C21*%
X44205142Y20820143D02*
X44252761Y20772524D01*
X44300380Y20629667D01*
X44300380Y20534429D01*
X44252761Y20391572D01*
X44157523Y20296334D01*
X44062285Y20248715D01*
X43871809Y20201096D01*
X43728952Y20201096D01*
X43538476Y20248715D01*
X43443238Y20296334D01*
X43348000Y20391572D01*
X43300380Y20534429D01*
X43300380Y20629667D01*
X43348000Y20772524D01*
X43395619Y20820143D01*
X43395619Y21201096D02*
X43348000Y21248715D01*
X43300380Y21343953D01*
X43300380Y21582048D01*
X43348000Y21677286D01*
X43395619Y21724905D01*
X43490857Y21772524D01*
X43586095Y21772524D01*
X43728952Y21724905D01*
X44300380Y21153477D01*
X44300380Y21772524D01*
X44300380Y22724905D02*
X44300380Y22153477D01*
X44300380Y22439191D02*
X43300380Y22439191D01*
X43443238Y22343953D01*
X43538476Y22248715D01*
X43586095Y22153477D01*
%TO.C,C15*%
X43003847Y43512755D02*
X43051466Y43465136D01*
X43099085Y43322279D01*
X43099085Y43227041D01*
X43051466Y43084184D01*
X42956228Y42988946D01*
X42860990Y42941327D01*
X42670514Y42893708D01*
X42527657Y42893708D01*
X42337181Y42941327D01*
X42241943Y42988946D01*
X42146705Y43084184D01*
X42099085Y43227041D01*
X42099085Y43322279D01*
X42146705Y43465136D01*
X42194324Y43512755D01*
X43099085Y44465136D02*
X43099085Y43893708D01*
X43099085Y44179422D02*
X42099085Y44179422D01*
X42241943Y44084184D01*
X42337181Y43988946D01*
X42384800Y43893708D01*
X42099085Y45369898D02*
X42099085Y44893708D01*
X42575276Y44846089D01*
X42527657Y44893708D01*
X42480038Y44988946D01*
X42480038Y45227041D01*
X42527657Y45322279D01*
X42575276Y45369898D01*
X42670514Y45417517D01*
X42908609Y45417517D01*
X43003847Y45369898D01*
X43051466Y45322279D01*
X43099085Y45227041D01*
X43099085Y44988946D01*
X43051466Y44893708D01*
X43003847Y44846089D01*
%TO.C,C14*%
X51367142Y46407143D02*
X51414761Y46359524D01*
X51462380Y46216667D01*
X51462380Y46121429D01*
X51414761Y45978572D01*
X51319523Y45883334D01*
X51224285Y45835715D01*
X51033809Y45788096D01*
X50890952Y45788096D01*
X50700476Y45835715D01*
X50605238Y45883334D01*
X50510000Y45978572D01*
X50462380Y46121429D01*
X50462380Y46216667D01*
X50510000Y46359524D01*
X50557619Y46407143D01*
X51462380Y47359524D02*
X51462380Y46788096D01*
X51462380Y47073810D02*
X50462380Y47073810D01*
X50605238Y46978572D01*
X50700476Y46883334D01*
X50748095Y46788096D01*
X50795714Y48216667D02*
X51462380Y48216667D01*
X50414761Y47978572D02*
X51129047Y47740477D01*
X51129047Y48359524D01*
%TO.C,SW1*%
X38847500Y34918429D02*
X38954642Y34882715D01*
X39133214Y34882715D01*
X39204642Y34918429D01*
X39240357Y34954143D01*
X39276071Y35025572D01*
X39276071Y35097000D01*
X39240357Y35168429D01*
X39204642Y35204143D01*
X39133214Y35239858D01*
X38990357Y35275572D01*
X38918928Y35311286D01*
X38883214Y35347000D01*
X38847500Y35418429D01*
X38847500Y35489858D01*
X38883214Y35561286D01*
X38918928Y35597000D01*
X38990357Y35632715D01*
X39168928Y35632715D01*
X39276071Y35597000D01*
X39526071Y35632715D02*
X39704642Y34882715D01*
X39847500Y35418429D01*
X39990357Y34882715D01*
X40168928Y35632715D01*
X40847500Y34882715D02*
X40418928Y34882715D01*
X40633214Y34882715D02*
X40633214Y35632715D01*
X40561785Y35525572D01*
X40490357Y35454143D01*
X40418928Y35418429D01*
%TO.C,SW2*%
X34384000Y34918429D02*
X34491142Y34882715D01*
X34669714Y34882715D01*
X34741142Y34918429D01*
X34776857Y34954143D01*
X34812571Y35025572D01*
X34812571Y35097000D01*
X34776857Y35168429D01*
X34741142Y35204143D01*
X34669714Y35239858D01*
X34526857Y35275572D01*
X34455428Y35311286D01*
X34419714Y35347000D01*
X34384000Y35418429D01*
X34384000Y35489858D01*
X34419714Y35561286D01*
X34455428Y35597000D01*
X34526857Y35632715D01*
X34705428Y35632715D01*
X34812571Y35597000D01*
X35062571Y35632715D02*
X35241142Y34882715D01*
X35384000Y35418429D01*
X35526857Y34882715D01*
X35705428Y35632715D01*
X35955428Y35561286D02*
X35991142Y35597000D01*
X36062571Y35632715D01*
X36241142Y35632715D01*
X36312571Y35597000D01*
X36348285Y35561286D01*
X36384000Y35489858D01*
X36384000Y35418429D01*
X36348285Y35311286D01*
X35919714Y34882715D01*
X36384000Y34882715D01*
%TO.C,SW3*%
X29920500Y34854929D02*
X30027642Y34819215D01*
X30206214Y34819215D01*
X30277642Y34854929D01*
X30313357Y34890643D01*
X30349071Y34962072D01*
X30349071Y35033500D01*
X30313357Y35104929D01*
X30277642Y35140643D01*
X30206214Y35176358D01*
X30063357Y35212072D01*
X29991928Y35247786D01*
X29956214Y35283500D01*
X29920500Y35354929D01*
X29920500Y35426358D01*
X29956214Y35497786D01*
X29991928Y35533500D01*
X30063357Y35569215D01*
X30241928Y35569215D01*
X30349071Y35533500D01*
X30599071Y35569215D02*
X30777642Y34819215D01*
X30920500Y35354929D01*
X31063357Y34819215D01*
X31241928Y35569215D01*
X31456214Y35569215D02*
X31920500Y35569215D01*
X31670500Y35283500D01*
X31777642Y35283500D01*
X31849071Y35247786D01*
X31884785Y35212072D01*
X31920500Y35140643D01*
X31920500Y34962072D01*
X31884785Y34890643D01*
X31849071Y34854929D01*
X31777642Y34819215D01*
X31563357Y34819215D01*
X31491928Y34854929D01*
X31456214Y34890643D01*
%TO.C,SW4*%
X25584000Y34854929D02*
X25691142Y34819215D01*
X25869714Y34819215D01*
X25941142Y34854929D01*
X25976857Y34890643D01*
X26012571Y34962072D01*
X26012571Y35033500D01*
X25976857Y35104929D01*
X25941142Y35140643D01*
X25869714Y35176358D01*
X25726857Y35212072D01*
X25655428Y35247786D01*
X25619714Y35283500D01*
X25584000Y35354929D01*
X25584000Y35426358D01*
X25619714Y35497786D01*
X25655428Y35533500D01*
X25726857Y35569215D01*
X25905428Y35569215D01*
X26012571Y35533500D01*
X26262571Y35569215D02*
X26441142Y34819215D01*
X26584000Y35354929D01*
X26726857Y34819215D01*
X26905428Y35569215D01*
X27512571Y35319215D02*
X27512571Y34819215D01*
X27334000Y35604929D02*
X27155428Y35069215D01*
X27619714Y35069215D01*
%TO.C,SW6*%
X45000000Y25596429D02*
X45107142Y25560715D01*
X45285714Y25560715D01*
X45357142Y25596429D01*
X45392857Y25632143D01*
X45428571Y25703572D01*
X45428571Y25775000D01*
X45392857Y25846429D01*
X45357142Y25882143D01*
X45285714Y25917858D01*
X45142857Y25953572D01*
X45071428Y25989286D01*
X45035714Y26025000D01*
X45000000Y26096429D01*
X45000000Y26167858D01*
X45035714Y26239286D01*
X45071428Y26275000D01*
X45142857Y26310715D01*
X45321428Y26310715D01*
X45428571Y26275000D01*
X45678571Y26310715D02*
X45857142Y25560715D01*
X46000000Y26096429D01*
X46142857Y25560715D01*
X46321428Y26310715D01*
X46928571Y26310715D02*
X46785714Y26310715D01*
X46714285Y26275000D01*
X46678571Y26239286D01*
X46607142Y26132143D01*
X46571428Y25989286D01*
X46571428Y25703572D01*
X46607142Y25632143D01*
X46642857Y25596429D01*
X46714285Y25560715D01*
X46857142Y25560715D01*
X46928571Y25596429D01*
X46964285Y25632143D01*
X47000000Y25703572D01*
X47000000Y25882143D01*
X46964285Y25953572D01*
X46928571Y25989286D01*
X46857142Y26025000D01*
X46714285Y26025000D01*
X46642857Y25989286D01*
X46607142Y25953572D01*
X46571428Y25882143D01*
%TD*%
M02*
